<svg width="43" height="32" viewBox="0 0 43 32" fill="none" xmlns="http://www.w3.org/2000/svg">
<g clip-path="url(#clip0_45_1703)">
<g clip-path="url(#clip1_45_1703)">
<path fill-rule="evenodd" clip-rule="evenodd" d="M13.1158 23.7669H13.4303C13.5668 23.7659 13.703 23.7815 13.836 23.8134C13.9035 23.8411 13.9669 23.8784 14.0241 23.9242C14.0675 23.9587 14.1083 23.9964 14.1462 24.037C14.227 24.1253 14.3013 24.2196 14.3684 24.3192C14.407 24.3776 14.4503 24.4418 14.4924 24.5116L14.8529 25.0792C14.9348 25.2141 15.0031 25.3118 15.053 25.3816C15.1017 25.4494 15.1619 25.5077 15.2307 25.5539C15.2769 25.5844 15.3287 25.6051 15.3829 25.6146C15.4169 25.6208 15.4513 25.6238 15.4857 25.6236C15.5628 25.6259 15.6393 25.61 15.7094 25.5771C15.7719 25.5494 15.8254 25.5043 15.864 25.447C15.8984 25.4 15.9173 25.343 15.9181 25.2842C15.9027 25.1819 15.8706 25.0828 15.823 24.9913C15.745 24.8247 15.6546 24.6645 15.5526 24.512C15.4359 24.3356 15.3058 24.1689 15.1635 24.0133C15.034 23.8678 14.8796 23.7476 14.708 23.6585C14.8395 23.6323 14.9687 23.5951 15.0943 23.5473C15.2678 23.4849 15.4267 23.3865 15.5611 23.2584C15.6561 23.1601 15.7302 23.0428 15.7788 22.914C15.8273 22.7851 15.8492 22.6473 15.8431 22.5094C15.844 22.3608 15.8162 22.2134 15.7612 22.0758C15.7044 21.9402 15.6206 21.8182 15.5151 21.7174C15.4388 21.6432 15.3524 21.5806 15.2585 21.5317C15.2218 21.5126 15.1842 21.4953 15.1457 21.4801C15.0214 21.4313 14.8916 21.3984 14.7594 21.3823C14.6133 21.3685 14.4398 21.3591 14.2397 21.3591H12.7758C12.6242 21.3436 12.4725 21.3868 12.3508 21.4801C12.3034 21.5342 12.2672 21.5976 12.2446 21.6663C12.2219 21.7351 12.2132 21.8079 12.219 21.8802V25.1128C12.2105 25.2519 12.2527 25.3894 12.3376 25.4987C12.4274 25.5818 12.544 25.6282 12.6652 25.629C12.7863 25.6299 12.9036 25.5852 12.9945 25.5034C13.0392 25.4498 13.0732 25.3877 13.0943 25.3206C13.1155 25.2536 13.1234 25.1829 13.1177 25.1128L13.1158 23.7669ZM13.1158 21.9993H13.9457C14.1557 21.9876 14.3663 22.0096 14.5697 22.0643C14.6728 22.1052 14.7629 22.1744 14.8301 22.2642C14.8937 22.3533 14.9271 22.4611 14.9251 22.5713C14.9269 22.6559 14.9103 22.74 14.8764 22.8173C14.8585 22.8551 14.8349 22.8898 14.8065 22.9202C14.7145 23.0138 14.5969 23.077 14.4692 23.1015C14.2891 23.1378 14.1057 23.1549 13.9221 23.1527H13.1158V21.9993Z" fill="#9A141B"/>
<path fill-rule="evenodd" clip-rule="evenodd" d="M19.3235 24.5577L19.5372 25.0832C19.5627 25.1439 19.5963 25.2125 19.6337 25.2894L19.6422 25.3063C19.6703 25.3746 19.707 25.4387 19.7516 25.4971C19.7868 25.5385 19.8303 25.5719 19.8791 25.5949C19.9368 25.6201 19.999 25.6327 20.0618 25.6319C20.1762 25.633 20.2867 25.5898 20.3709 25.5109C20.4097 25.4778 20.4412 25.4366 20.4631 25.3901C20.4851 25.3436 20.4972 25.2929 20.4984 25.2413C20.4809 25.0834 20.4345 24.9303 20.3616 24.7899L19.201 22.0829C19.1462 21.948 19.101 21.8408 19.0642 21.7572C19.0407 21.7034 19.0129 21.6516 18.9812 21.6023L18.9325 21.5294C18.8969 21.4845 18.8556 21.4448 18.8096 21.4111C18.7833 21.3914 18.7557 21.3734 18.727 21.3575C18.6294 21.308 18.5213 21.284 18.4125 21.2877C18.3366 21.2866 18.261 21.2975 18.1884 21.3201C18.1584 21.3302 18.1296 21.3434 18.1022 21.3595C18.0205 21.4 17.95 21.4607 17.8971 21.5361C17.8391 21.6226 17.7901 21.7151 17.751 21.812C17.7058 21.9236 17.6645 22.0166 17.6324 22.0959L16.4965 24.8179C16.4513 24.9294 16.4146 25.015 16.3964 25.0737C16.3754 25.1301 16.3647 25.19 16.3647 25.2503C16.3666 25.3016 16.3793 25.3519 16.4021 25.3977C16.4248 25.4436 16.457 25.4838 16.4965 25.5156C16.5659 25.5762 16.6509 25.615 16.7413 25.6275C16.8318 25.64 16.9238 25.6257 17.0065 25.5862C17.0363 25.5696 17.0626 25.5471 17.0838 25.52C17.1747 25.39 17.247 25.2475 17.2982 25.0966L17.5126 24.5569L19.3235 24.5577ZM19.0816 23.9203H17.7553L18.4121 22.1857L19.0816 23.9203Z" fill="#9A141B"/>
<path fill-rule="evenodd" clip-rule="evenodd" d="M22.8926 21.3618H21.7162C21.5666 21.3494 21.4176 21.3924 21.2966 21.4829C21.2492 21.5369 21.213 21.6003 21.1904 21.6691C21.1677 21.7379 21.159 21.8107 21.1648 21.883V24.9626C21.1604 25.0739 21.1728 25.1854 21.2015 25.2929C21.2156 25.3365 21.2382 25.3768 21.268 25.4112C21.2957 25.443 21.3287 25.4697 21.3654 25.49C21.4812 25.5436 21.6081 25.5675 21.7351 25.5598H22.9062C23.0908 25.5603 23.2753 25.5478 23.4583 25.5223C23.6146 25.4972 23.7674 25.4536 23.9138 25.3922C24.0559 25.3326 24.1882 25.251 24.3059 25.1502C24.3931 25.0752 24.4732 24.9921 24.5451 24.9018C24.595 24.8398 24.64 24.7739 24.6799 24.7047C24.7272 24.6222 24.7683 24.5362 24.8028 24.4473C24.8413 24.3482 24.872 24.246 24.8944 24.1418C24.9421 23.9157 24.965 23.6848 24.9628 23.4535C24.9878 23.1328 24.938 22.8107 24.8174 22.5134C24.6969 22.2162 24.509 21.9523 24.2692 21.7434C24.1805 21.6688 24.0835 21.605 23.9802 21.5534C23.8833 21.5051 23.7817 21.4675 23.677 21.4411C23.5727 21.4168 23.4672 21.3988 23.3609 21.3871C23.2054 21.3698 23.0491 21.3614 22.8926 21.3618ZM22.0674 24.8833V22.0363H22.6597C22.8964 22.0318 23.1327 22.0599 23.3621 22.1199C23.5682 22.1849 23.7434 22.3253 23.8543 22.5141C24.0063 22.7986 24.0759 23.1212 24.0552 23.4445C24.0787 23.673 24.0501 23.9039 23.9719 24.1194C23.8936 24.3348 23.7677 24.5289 23.6039 24.6866C23.5327 24.7436 23.4523 24.7876 23.3663 24.8167C23.28 24.8438 23.1914 24.8626 23.1017 24.8727C23.0198 24.8774 22.9015 24.8821 22.7512 24.8821L22.0674 24.8833Z" fill="#9A141B"/>
<path d="M25.7972 25.1112V21.8038C25.7917 21.7343 25.7998 21.6645 25.821 21.5982C25.8422 21.532 25.8759 21.4707 25.9204 21.4178C25.9623 21.3741 26.0128 21.3398 26.0686 21.3174C26.1244 21.295 26.1843 21.2849 26.2442 21.2877C26.3044 21.2848 26.3646 21.2945 26.4211 21.3161C26.4775 21.3377 26.5291 21.3709 26.5726 21.4135C26.6178 21.4661 26.6523 21.5272 26.6742 21.5935C26.696 21.6597 26.7049 21.7297 26.7001 21.7994V25.1068C26.7055 25.1774 26.697 25.2483 26.6751 25.3154C26.6532 25.3825 26.6184 25.4444 26.5726 25.4975C26.5291 25.5404 26.4776 25.574 26.4213 25.5964C26.3649 25.6187 26.3047 25.6293 26.2442 25.6276C26.185 25.6299 26.126 25.6196 26.0711 25.5971C26.0161 25.5747 25.9663 25.5408 25.925 25.4975C25.879 25.4455 25.8438 25.3843 25.8218 25.3179C25.7998 25.2514 25.7914 25.1811 25.7972 25.1112Z" fill="#9A141B"/>
<path fill-rule="evenodd" clip-rule="evenodd" d="M30.8443 21.5574C30.4763 21.3715 30.0694 21.2805 29.659 21.2921C29.3471 21.2863 29.0368 21.3367 28.7421 21.4411C28.487 21.5325 28.2551 21.6806 28.0629 21.8747C27.8743 22.0703 27.7293 22.3053 27.6379 22.5634C27.5789 22.7307 27.5378 22.9039 27.515 23.0802C27.4994 23.2035 27.4916 23.3276 27.4919 23.4519C27.4885 23.7511 27.5362 24.0486 27.6329 24.331C27.6629 24.4167 27.6985 24.5002 27.7395 24.581C27.9469 25.0005 28.306 25.3212 28.741 25.4754C29.0407 25.5858 29.3577 25.6392 29.6763 25.6331C29.9927 25.639 30.3075 25.587 30.6059 25.4798C30.8638 25.3849 31.0976 25.2323 31.2902 25.0331C31.4782 24.8382 31.6215 24.6031 31.7098 24.3448C31.8079 24.0611 31.8556 23.7618 31.8508 23.461C31.8596 23.0624 31.7719 22.6676 31.5954 22.3119C31.4267 21.9878 31.1645 21.7245 30.8443 21.5574ZM30.7802 22.6505C30.8906 22.902 30.9451 23.1753 30.9397 23.4508C30.9494 23.7416 30.8899 24.0305 30.7663 24.2928C30.6669 24.5045 30.5061 24.6798 30.3057 24.795C30.1118 24.9036 29.8937 24.9597 29.6725 24.9578C29.5023 24.9616 29.3331 24.9299 29.1752 24.8648C29.0223 24.802 28.8852 24.705 28.7738 24.581C28.6519 24.4423 28.5598 24.2791 28.5034 24.102C28.4368 23.8933 28.4045 23.6749 28.4075 23.4555C28.4052 23.2372 28.4385 23.0201 28.5061 22.8129C28.5595 22.6395 28.648 22.4795 28.7657 22.343C28.878 22.2233 29.0132 22.1283 29.1629 22.0639C29.3201 21.9972 29.4891 21.964 29.6593 21.9662C29.7694 21.9656 29.8791 21.9775 29.9866 22.0016C30.1073 22.029 30.2231 22.0752 30.3301 22.1384C30.5278 22.2582 30.6849 22.4369 30.7802 22.6505Z" fill="#9A141B"/>
<path d="M32.8004 25.6323C32.6819 25.6354 32.5664 25.5933 32.4767 25.5141C32.4311 25.4755 32.3949 25.4266 32.3712 25.3712C32.3474 25.3158 32.3367 25.2555 32.3399 25.1952C32.3399 25.1381 32.3517 25.0817 32.3744 25.0296C32.3972 24.9775 32.4305 24.9309 32.472 24.8928C32.5595 24.8089 32.6759 24.7637 32.7958 24.767C32.917 24.7645 33.0346 24.8095 33.1242 24.8928C33.1673 24.93 33.2018 24.9763 33.2254 25.0285C33.2491 25.0808 33.2612 25.1376 33.261 25.1952C33.2636 25.2557 33.2526 25.3161 33.2289 25.3717C33.2052 25.4273 33.1694 25.4767 33.1242 25.516C33.0334 25.5931 32.9185 25.6344 32.8004 25.6323Z" fill="#9A141B"/>
<path d="M37.5327 22.0178H35.7577V23.0924H37.2394C37.3485 23.0825 37.4573 23.1139 37.545 23.1807C37.577 23.2102 37.6025 23.2463 37.6198 23.2866C37.6371 23.3269 37.6458 23.3704 37.6453 23.4144C37.6449 23.4584 37.6353 23.5017 37.6172 23.5416C37.5991 23.5816 37.5729 23.6171 37.5404 23.6459C37.4509 23.7082 37.3432 23.7377 37.2352 23.7295H35.7546V25.1092C35.7608 25.1798 35.7527 25.2509 35.7308 25.3181C35.7088 25.3853 35.6736 25.4472 35.6271 25.4999C35.5371 25.5816 35.4206 25.6264 35.3001 25.6256C35.1797 25.6247 35.0638 25.5782 34.9749 25.4951C34.8837 25.3871 34.8378 25.2468 34.8474 25.1045V21.872C34.8425 21.7693 34.8628 21.667 34.9066 21.5743C34.9434 21.4962 35.0089 21.4361 35.0889 21.4068C35.1892 21.3679 35.2963 21.3505 35.4034 21.3555H37.5284C37.6413 21.3482 37.7534 21.3793 37.8471 21.4439C37.8809 21.4727 37.9079 21.509 37.926 21.5499C37.9442 21.5909 37.9532 21.6354 37.9522 21.6804C37.9536 21.7254 37.9449 21.7701 37.9267 21.8111C37.9084 21.8521 37.8812 21.8883 37.8471 21.9169C37.7591 21.9909 37.6463 22.0271 37.5327 22.0178Z" fill="#9A141B"/>
<path d="M38.6633 25.1112V21.8038C38.6578 21.7343 38.6659 21.6644 38.6871 21.5982C38.7082 21.532 38.742 21.4707 38.7866 21.4178C38.8278 21.3746 38.8775 21.3406 38.9324 21.3182C38.9873 21.2958 39.0462 21.2854 39.1053 21.2877C39.1656 21.2848 39.2259 21.2945 39.2824 21.3161C39.3389 21.3377 39.3905 21.3709 39.4341 21.4135C39.4793 21.4661 39.5138 21.5272 39.5356 21.5935C39.5575 21.6597 39.5663 21.7297 39.5616 21.7994V25.1068C39.5669 25.1773 39.5584 25.2482 39.5365 25.3153C39.5146 25.3824 39.4798 25.4443 39.4341 25.4975C39.3908 25.5408 39.3393 25.5746 39.2828 25.597C39.2263 25.6193 39.1659 25.6297 39.1053 25.6276C39.0462 25.6299 38.9873 25.6195 38.9324 25.5971C38.8775 25.5747 38.8278 25.5408 38.7866 25.4975C38.742 25.4446 38.7081 25.3833 38.687 25.3169C38.6658 25.2506 38.6578 25.1807 38.6633 25.1112Z" fill="#9A141B"/>
<path d="M2.48994 13.4256C2.48994 13.4256 0.371142 13.5884 0.0280539 10.9555C-0.315034 8.32255 2.62247 6.85254 4.50056 5.79133C6.37866 4.73011 8.32553 3.64683 9.86248 2.60926C11.3994 1.5717 12.4978 0.795898 12.4978 0.795898C11.5263 3.14853 10.8225 5.60713 10.4003 8.12347C9.88064 11.7565 9.38378 17.7343 9.27984 20.3255C9.17591 22.9166 8.89348 28.7131 7.11854 30.7921C5.3436 32.8712 3.23021 32.0749 2.01588 29.8326C0.801548 27.5904 0.784934 25.5081 2.72794 22.548C4.67095 19.5879 5.56383 18.9382 6.32535 18.0264C7.25995 16.9053 8.42251 15.3702 8.42251 15.3702L8.11342 17.4635C8.11342 17.4635 3.89436 24.6227 3.89436 26.567C3.89436 29.2184 5.03876 29.0371 5.71026 28.6697C6.38175 28.3023 7.69808 24.5305 8.19494 20.873C8.6918 17.2155 9.21069 11.8716 9.48925 10.0993C9.76782 8.32689 9.92236 7.46633 10.1824 6.22417C10.4424 4.98201 10.6155 4.42854 10.6155 4.42854C8.74241 6.34737 6.60985 7.98283 4.28266 9.28521C0.908183 11.1924 2.48994 13.4256 2.48994 13.4256Z" fill="#9A141B"/>
<path fill-rule="evenodd" clip-rule="evenodd" d="M15.6067 11.2441C15.6067 11.2441 14.7633 11.123 13.0355 12.021C12.0121 12.5465 11.1974 13.4156 10.7285 14.4821C10.7285 14.4821 11.1149 14.1517 11.4854 13.8679C11.8034 13.6521 12.1446 13.4742 12.5023 13.3377C12.5023 13.3377 10.4465 15.3147 10.6192 17.5798C10.7919 19.8449 13.2356 20.8036 15.2462 18.8018C17.2569 16.8 17.4531 13.7221 17.4531 13.7221C17.7118 13.6462 17.9648 13.5514 18.21 13.4382C18.6774 13.2179 19.1259 12.958 19.5507 12.6612C19.5507 12.6612 17.9048 16.5966 17.841 17.8017C17.7773 19.0068 18.1648 19.5603 19.7415 19.2114C21.3183 18.8626 22.9194 16.355 23.3942 15.5784C23.869 14.8018 24.0417 14.5365 24.0417 14.5365C24.0417 14.5365 23.0932 17.5368 23.2435 18.3741C23.3938 19.2114 24.3253 19.7231 25.9249 18.6812C27.5244 17.6393 29.1019 15.3738 29.1019 15.3738C29.1019 15.3738 29.5122 17.4765 30.8757 17.6996C32.2392 17.9228 33.4469 15.8622 33.4469 15.8622C33.4469 15.8622 33.2151 18.2811 33.8982 19.0443C34.5813 19.8075 35.9729 19.7606 37.1629 18.8815C38.3529 18.0024 39.087 16.2718 39.087 16.2718C39.087 16.2718 38.9135 17.6953 39.5201 18.5744C40.1267 19.4535 40.9473 19.593 41.9183 19.3281C42.199 19.2462 42.4505 19.0831 42.6425 18.8586C42.8344 18.634 42.9586 18.3576 43.0001 18.0627C42.6598 18.3588 42.2369 18.5381 41.7911 18.5752C41.0806 18.617 40.1275 18.2681 40.0869 15.984C40.0937 14.3862 40.2601 12.7933 40.5834 11.2299L38.8961 11.3509C38.8961 11.3509 37.8143 15.7006 37.2321 16.8217C36.7399 17.7706 35.3718 18.7384 34.6377 16.9428C33.9036 15.1471 35.7639 11.1278 35.7639 11.1278L34.3599 11.2303C34.3599 11.2303 32.974 14.1888 32.4134 15.0868C31.8528 15.9848 31.2678 16.2608 30.6848 15.5118C30.1018 14.7628 30.2985 14.2503 30.2985 14.2503C31.4114 11.7218 32.3708 9.1257 33.1711 6.47687C34.2274 2.75908 34.9197 0.126147 33.6432 0.00512406C32.3667 -0.115898 30.7891 1.98682 30.2046 3.31255C29.4746 4.92919 29.0211 6.66139 28.8639 8.43412C28.7772 10.2155 28.7987 12.0006 28.928 13.7792C28.928 13.7792 27.0492 16.7145 26.2923 17.3271C25.5354 17.9397 24.692 18.1041 24.5185 17.3689C24.345 16.6337 25.7274 10.7958 25.7274 10.7958L24.9064 10.9169C24.9064 10.9169 21.7711 17.6125 19.9795 17.4497C18.188 17.2869 21.3836 10.8392 21.3836 10.8392H20.517C19.8913 11.3768 19.2091 11.8417 18.4828 12.2256C18.2097 12.3642 17.9177 12.4599 17.6166 12.5095C17.6166 12.5095 18.2 11.2626 17.6799 11.2441C17.2446 11.2743 16.8223 11.4083 16.447 11.6353C16.0717 11.8624 15.7539 12.1761 15.519 12.5513C15.0225 13.4489 15.0635 13.7733 15.519 13.998C15.6457 14.0639 15.7853 14.0998 15.9274 14.1031C16.0696 14.1063 16.2106 14.0767 16.34 14.0165C16.34 14.0165 15.3463 18.5058 13.0119 18.6079C10.6775 18.71 12.2778 14.6725 13.7047 13.1C15.1315 11.5275 15.6067 11.2441 15.6067 11.2441ZM32.2801 2.48471C32.7866 2.45199 32.9049 3.922 31.6967 7.39262C31.1506 9.0731 30.4876 10.7117 29.7127 12.2958C29.6579 10.452 29.8544 8.60929 30.2965 6.82062C31.0353 3.66142 31.7736 2.52176 32.2801 2.48471Z" fill="#9A141B"/>
</g>
</g>
<defs>
<clipPath id="clip0_45_1703">
<rect width="43" height="32" fill="white"/>
</clipPath>
<clipPath id="clip1_45_1703">
<rect width="43" height="32" fill="white"/>
</clipPath>
</defs>
</svg>
