<?xml version="1.0" encoding="utf-8"?>
<!-- Generator: Adobe Illustrator 22.1.0, SVG Export Plug-In . SVG Version: 6.00 Build 0)  -->
<svg version="1.1" id="Layer_1" xmlns="http://www.w3.org/2000/svg" xmlns:xlink="http://www.w3.org/1999/xlink" x="0px" y="0px"
	 viewBox="0 0 1200 1200" style="enable-background:new 0 0 1200 1200;" xml:space="preserve">
<style type="text/css">
	.st0{fill:#E5B223;}
	.st1{fill:#FFFFFF;}
</style>
<g>
	<circle class="st0" cx="600" cy="601" r="595"/>
	<g>
		<g>
			<path class="st1" d="M194.3,603.3h-70.5V444.1h70.5v58.3h35.9v-58.3h70.5v159.2h-70.5v-59.2h-35.9V603.3z"/>
			<path class="st1" d="M386.7,603.3h-70.5l55.3-159.2h100.5l55.3,159.2h-70.4l-9.2-26.9h-51.7L386.7,603.3z M408.7,538.8h26.1
				l-13-39.5L408.7,538.8z"/>
			<path class="st1" d="M543.6,444.1h96.5c20.4,0,36,5.2,46.9,15.5c10.9,10.3,16.4,23.1,16.4,38.3c0,14.9-5.2,27.5-15.5,38
				c-10.4,10.4-22.8,15.6-37.5,15.6c-12.2,0-24.3-4.6-36.4-13.9v65.6h-70.4V444.1z M614,478.5v34.6c2.1,0.6,4,0.8,5.8,0.8
				c5.3,0,9.6-1.7,12.8-5s4.9-7.7,4.9-13.1c0-5.4-1.4-9.6-4.2-12.7s-6.7-4.6-11.9-4.6H614z"/>
			<path class="st1" d="M721.6,444.1h96.5c20.4,0,36,5.2,46.9,15.5c10.9,10.3,16.4,23.1,16.4,38.3c0,14.9-5.2,27.5-15.5,38
				c-10.4,10.4-22.8,15.6-37.5,15.6c-12.2,0-24.3-4.6-36.4-13.9v65.6h-70.4V444.1z M792,478.5v34.6c2.1,0.6,4,0.8,5.8,0.8
				c5.3,0,9.6-1.7,12.8-5s4.9-7.7,4.9-13.1c0-5.4-1.4-9.6-4.2-12.7s-6.7-4.6-11.9-4.6H792z"/>
			<path class="st1" d="M1015.6,603.3H945v-69.5l-60.7-89.7h71.4l24.6,36.1l24.5-36.1h71.4l-60.6,89.7V603.3z"/>
		</g>
		<g>
			<path class="st1" d="M171.6,756.2h-47.8v-108h47.8v39.6h24.3v-39.6h47.8v108h-47.8v-40.1h-24.3V756.2z"/>
			<path class="st1" d="M315.9,757.9c-15.4,0-28.5-5.4-39.2-16.2c-10.7-10.8-16.1-24-16.1-39.6c0-15.5,5.4-28.7,16.1-39.4
				c10.7-10.8,23.8-16.2,39.2-16.2c15.5,0,28.6,5.4,39.3,16.2c10.7,10.8,16.1,23.9,16.1,39.4c0,15.6-5.4,28.8-16.1,39.6
				C344.5,752.5,331.4,757.9,315.9,757.9z M315.9,687.9c-3.1,0-5.6,1.1-7.6,3.2c-2,2.1-3,4.8-3,8.1c0,3.3,1,6,3,8.1
				c2,2.1,4.6,3.2,7.6,3.2c3.1,0,5.7-1.1,7.7-3.2c2-2.1,3-4.8,3-8.1c0-3.3-1-6-3-8.1C321.6,689,319.1,687.9,315.9,687.9z"/>
			<path class="st1" d="M388.3,756.2v-108h47.8v80.9H478v27.1H388.3z"/>
			<path class="st1" d="M489.9,756.2v-108h47.8v108H489.9z"/>
			<path class="st1" d="M559.2,648.2h53.1c19.2,0,33.9,5.3,44.4,15.9s15.6,23.4,15.6,38.3c0,9.5-2.4,18.5-7.1,27
				c-4.7,8.5-11.7,15-20.8,19.7c-9.2,4.7-20.2,7-33.2,7h-52V648.2z M607,689.5v25.3h1.2c5.8,0,9.9-1,12.5-3c2.6-2,3.9-5.3,3.9-9.9
				c0-8.3-4.8-12.5-14.5-12.5H607z"/>
			<path class="st1" d="M718.8,756.2H671l37.5-108h68.1l37.5,108h-47.8l-6.2-18.3h-35.1L718.8,756.2z M733.8,712.5h17.7l-8.8-26.8
				L733.8,712.5z"/>
			<path class="st1" d="M882.9,756.2h-47.8v-47.1l-41.2-60.8h48.4l16.7,24.5l16.6-24.5H924l-41.1,60.8V756.2z"/>
			<path class="st1" d="M1018.6,653.7l-11.9,34c-7.8-10.5-16.7-15.8-26.8-15.8c-5.6,0-8.4,2.1-8.4,6.4c0,1.3,0.9,2.7,2.7,4
				c1.8,1.4,6.4,3.5,13.9,6.4c8.3,3.3,14.6,6.2,19.1,8.9c4.5,2.7,7.8,6.1,10,10.2c2.2,4.2,3.3,9,3.3,14.5c0,11.6-4.4,20.4-13.2,26.4
				c-8.8,6.1-21.7,9.1-38.7,9.1c-19.1,0-35.6-2.7-49.4-8.1l11.7-36.1c3.4,5.3,7.6,9.5,12.6,12.6c5,3.1,9.8,4.7,14.5,4.7
				c2.3,0,4.2-0.6,5.7-1.8c1.5-1.2,2.3-2.6,2.3-4.3c0-1.6-0.7-3.1-2.2-4.6c-1.5-1.5-5.4-3.5-11.8-6.1c-5.8-2.3-10.5-4.6-14.3-6.8
				c-3.8-2.2-7.1-5.3-9.8-9.4c-2.8-4.1-4.2-9.2-4.2-15.4c0-12,4.4-21,13.1-27.1c8.7-6.1,21.6-9.1,38.6-9.1
				C990.9,646.5,1005.3,648.9,1018.6,653.7z"/>
			<path class="st1" d="M1046.8,725.2c-12.2-20.3-18.3-36.8-18.3-49.3c0-8.5,2.3-15.6,6.8-21.1c4.5-5.5,10.3-8.3,17.3-8.3
				c6.7,0,12.4,2.7,16.9,8.1c4.5,5.4,6.8,12.2,6.8,20.4c0,14.1-6.1,30.8-18.4,50.2c3.6,1.4,6.4,3.5,8.4,6.3c2,2.8,3,6,3,9.6
				c0,4.6-1.6,8.6-4.9,11.9c-3.3,3.3-7.2,5-11.9,5c-4.6,0-8.6-1.7-12-5c-3.4-3.3-5-7.3-5-11.9c0-3.5,1-6.7,3-9.6
				C1040.4,728.7,1043.2,726.6,1046.8,725.2z"/>
		</g>
	</g>
</g>
</svg>
