<?xml version="1.0" encoding="utf-8"?>
<!-- Generator: Adobe Illustrator 22.1.0, SVG Export Plug-In . SVG Version: 6.00 Build 0)  -->
<svg version="1.1" id="Layer_1" xmlns="http://www.w3.org/2000/svg" xmlns:xlink="http://www.w3.org/1999/xlink" x="0px" y="0px"
	 viewBox="0 0 1200 1200" style="enable-background:new 0 0 1200 1200;" xml:space="preserve">
<style type="text/css">
	.st0{fill:#9A141B;}
	.st1{fill:#FFFFFF;}
</style>
<circle class="st0" cx="600.8" cy="600.8" r="593.3"/>
<g>
	<path class="st1" d="M423.9,767H417v29c0,3.8-0.9,6.6-2.7,8.4c-1.8,1.8-4.2,2.7-7.1,2.7c-3.1,0-5.6-1-7.3-2.8
		c-1.7-1.9-2.6-4.7-2.6-8.3v-69.5c0-3.9,1-6.8,2.9-8.6c1.9-1.8,5-2.6,9.3-2.6h32.1c4.4,0,8.2,0.2,11.4,0.5c3.1,0.4,6,1.1,8.5,2.1
		c3.1,1.2,5.8,2.9,8.1,5.1c2.4,2.2,4.1,4.8,5.4,7.7c1.2,2.9,1.8,6.1,1.8,9.3c0,6.7-2.1,12.1-6.2,16.1c-4.1,4-10.3,6.9-18.7,8.6
		c3.5,1.7,6.9,4.3,10,7.6c3.2,3.4,6,6.9,8.6,10.7c2.5,3.8,4.5,7.2,5.9,10.3c1.4,3.1,2.1,5.2,2.1,6.3c0,1.2-0.4,2.4-1.2,3.5
		c-0.8,1.2-1.9,2.1-3.4,2.8c-1.4,0.7-3.1,1-4.9,1c-2.2,0-4.1-0.5-5.6-1.5c-1.5-1-2.8-2.2-3.9-3.7c-1.1-1.5-2.6-3.6-4.4-6.5
		l-7.9-12.2c-2.8-4.5-5.4-7.9-7.6-10.2c-2.2-2.3-4.5-3.9-6.8-4.8C430.3,767.4,427.4,767,423.9,767 M435.2,729H417v24.8h17.7
		c4.7,0,8.7-0.4,12-1.1c3.2-0.8,5.7-2,7.4-3.9c1.7-1.8,2.6-4.3,2.6-7.5c0-2.5-0.7-4.7-2.1-6.6c-1.4-1.9-3.3-3.3-5.7-4.3
		C446.6,729.5,442,729,435.2,729"/>
	<path class="st1" d="M557.8,795.3l-4.7-11.3h-39.7l-4.7,11.6c-1.8,4.5-3.4,7.6-4.7,9.1c-1.3,1.6-3.4,2.4-6.3,2.4
		c-2.5,0-4.7-0.8-6.6-2.5c-1.9-1.7-2.9-3.6-2.9-5.7c0-1.2,0.2-2.5,0.7-3.8c0.4-1.3,1.2-3.1,2.2-5.5l24.9-58.6
		c0.7-1.7,1.6-3.7,2.6-6.1c1-2.4,2.1-4.3,3.2-5.9c1.1-1.6,2.6-2.8,4.5-3.8c1.8-1,4.1-1.5,6.8-1.5c2.8,0,5,0.5,6.9,1.5
		c1.8,1,3.3,2.2,4.5,3.7c1.1,1.5,2.1,3.1,2.9,4.9c0.8,1.8,1.8,4.1,3,7l25.5,58.2c2,4.4,3,7.7,3,9.7c0,2.1-0.9,4-2.8,5.8
		c-1.9,1.7-4.2,2.6-6.8,2.6c-1.5,0-2.9-0.3-4-0.8c-1.1-0.5-2-1.2-2.8-2.1c-0.7-0.9-1.6-2.2-2.4-4.1
		C559.2,798.3,558.4,796.7,557.8,795.3 M518.7,770.3h29.1L533.1,733L518.7,770.3z"/>
	<path class="st1" d="M605.6,715.3h25.8c6.7,0,12.5,0.6,17.2,1.7c4.8,1.2,9.1,3.3,13,6.5c10.2,8,15.2,20.3,15.2,36.7
		c0,5.4-0.5,10.4-1.5,14.8c-1,4.5-2.6,8.5-4.7,12.1c-2.1,3.6-4.9,6.8-8.2,9.6c-2.6,2.2-5.5,3.9-8.6,5.2c-3.1,1.3-6.4,2.2-10,2.8
		c-3.6,0.5-7.6,0.8-12.1,0.8H606c-3.6,0-6.3-0.5-8.1-1.5c-1.8-1-3-2.4-3.6-4.2c-0.6-1.8-0.8-4.2-0.8-7.1v-66.2c0-3.9,1-6.8,2.9-8.6
		C598.3,716.2,601.4,715.3,605.6,715.3 M613.3,729.8V791h15c3.3,0,5.9-0.1,7.7-0.2c1.9-0.2,3.8-0.6,5.8-1.2c2-0.7,3.7-1.6,5.2-2.8
		c6.6-5.2,9.9-14.1,9.9-26.7c0-8.9-1.5-15.6-4.4-20c-2.9-4.4-6.5-7.3-10.8-8.5c-4.3-1.2-9.4-1.8-15.4-1.8H613.3z"/>
	<path class="st1" d="M695.1,795.9v-71.1c0-3.7,0.9-6.5,2.7-8.3c1.8-1.9,4.2-2.8,7.1-2.8c3,0,5.4,0.9,7.2,2.7
		c1.8,1.8,2.8,4.6,2.8,8.3v71.1c0,3.7-0.9,6.5-2.8,8.4c-1.8,1.8-4.3,2.8-7.2,2.8c-2.8,0-5.2-0.9-7-2.8
		C696,802.4,695.1,799.6,695.1,795.9"/>
	<path class="st1" d="M779.8,713.8c10.1,0,18.8,1.9,26,5.7c7.3,3.8,12.7,9.2,16.5,16.2c3.7,7,5.6,15.2,5.6,24.7c0,7-1,13.3-3.1,19
		c-2,5.7-5.1,10.6-9.2,14.8c-4.1,4.2-9.1,7.4-15,9.6c-5.9,2.2-12.7,3.3-20.4,3.3c-7.6,0-14.5-1.1-20.5-3.4c-6-2.3-11.1-5.5-15.1-9.6
		c-4-4.2-7.1-9.1-9.2-15c-2.1-5.8-3.1-12.1-3.1-18.9c0-6.9,1.1-13.3,3.2-19.1c2.1-5.8,5.3-10.7,9.3-14.8c4.1-4.1,9.1-7.2,14.9-9.3
		C765.7,714.8,772.4,713.8,779.8,713.8 M807.9,760.2c0-6.6-1.2-12.3-3.5-17.2c-2.3-4.8-5.6-8.5-9.9-11c-4.3-2.5-9.2-3.7-14.7-3.7
		c-4,0-7.6,0.7-10.9,2.1c-3.3,1.4-6.2,3.4-8.7,6c-2.4,2.6-4.3,6-5.7,10.1c-1.4,4.1-2.1,8.7-2.1,13.8c0,5.1,0.7,9.8,2.1,13.9
		c1.4,4.1,3.4,7.6,5.9,10.3c2.5,2.7,5.5,4.8,8.8,6.1c3.3,1.4,6.9,2,10.9,2c5.1,0,9.7-1.2,13.9-3.5c4.2-2.3,7.6-5.9,10.1-10.8
		C806.7,773.3,807.9,767.3,807.9,760.2"/>
	<path class="st1" d="M848.7,807.1c-2.8,0-5.1-0.8-7.1-2.5c-2-1.6-3-3.9-3-6.9c0-2.5,1-4.7,2.9-6.5c1.9-1.8,4.3-2.7,7.1-2.7
		c2.8,0,5.2,0.9,7.2,2.7c2,1.8,3,4,3,6.5c0,2.9-1,5.2-3,6.9C853.7,806.3,851.4,807.1,848.7,807.1"/>
	<path class="st1" d="M952.5,729.4h-38.9v23.1h32.5c3,0,5.3,0.6,6.7,1.9c1.5,1.3,2.2,2.9,2.2,5c0,2.1-0.8,3.8-2.3,5
		c-1.5,1.2-3.7,1.8-6.7,1.8h-32.5v29.7c0,3.8-0.9,6.6-2.8,8.4c-1.8,1.8-4.2,2.7-7.1,2.7c-2.9,0-5.3-0.9-7.2-2.8
		c-1.8-1.9-2.8-4.6-2.8-8.4v-69.5c0-2.6,0.4-4.8,1.3-6.4c0.8-1.7,2.2-2.9,4-3.6c1.8-0.8,4.1-1.1,6.9-1.1h46.6c3.1,0,5.5,0.7,7,1.9
		c1.5,1.3,2.3,3,2.3,5.1c0,2.1-0.8,3.9-2.3,5.1C958,728.7,955.6,729.4,952.5,729.4"/>
	<path class="st1" d="M977.3,795.9v-71.1c0-3.7,0.9-6.5,2.7-8.3c1.8-1.9,4.2-2.8,7-2.8c3,0,5.4,0.9,7.2,2.7c1.8,1.8,2.8,4.6,2.8,8.3
		v71.1c0,3.7-0.9,6.5-2.8,8.4c-1.8,1.8-4.2,2.8-7.2,2.8c-2.8,0-5.2-0.9-7-2.8C978.2,802.4,977.3,799.6,977.3,795.9"/>
	<path class="st1" d="M183.9,544.7c0,0-46.5,3.5-54-53.1c-7.6-56.6,56.9-88.2,98.1-111c41.2-22.8,83.9-46.1,117.6-68.4
		c33.7-22.4,57.8-39,57.8-39s-34.6,79.4-46,157.5C346,508.8,335.1,637.3,332.8,693c-2.4,55.7-8.5,180.3-47.4,225
		c-38.9,44.8-85.3,27.6-111.9-20.6c-26.5-48.3-27-93,15.6-156.6c42.7-63.6,62.2-77.6,78.9-97.2c20.5-24.1,46-57.1,46-57.1l-6.8,45
		c0,0-92.5,153.9-92.5,195.7c0,57,25.1,53.1,39.8,45.2c14.7-7.9,43.6-89,54.5-167.6c10.9-78.5,22.3-193.5,28.4-231.6
		c6.2-38.2,9.5-56.6,15.2-83.3c5.7-26.8,9.5-38.6,9.5-38.6s-52.6,56.6-138.9,104.4C149.2,496.7,183.9,544.7,183.9,544.7"/>
	<path class="st1" d="M415.2,514.5c37.9-19.3,56.4-16.7,56.4-16.7s-10.4,6.1-41.7,39.9c-31.3,33.8-66.4,120.6-15.2,118.4
		c51.2-2.2,73-98.7,73-98.7s-8.1,4.4-18-0.4c-10-4.8-10.9-11.8,0-31.1c10.9-19.3,36-28.5,47.4-28.1c11.4,0.4-1.4,27.2-1.4,27.2
		s2.4,0.4,19-6.1c16.6-6.6,44.6-29.8,44.6-29.8h19c0,0-70.2,138.6-30.8,142.1c39.3,3.5,108.1-140.4,108.1-140.4l18-2.6
		c0,0-30.3,125.5-26.5,141.3c3.8,15.8,22.3,12.3,38.9-0.9c16.6-13.2,57.8-76.3,57.8-76.3s-5.2-70.2-1.4-114.9
		c3.8-44.8,16.6-81.6,29.4-110.1c12.8-28.5,47.4-73.7,75.4-71.1c28,2.6,12.8,59.2-10.4,139.1c-23.2,79.8-63,167.1-63,167.1
		s-4.3,11,8.5,27.1c12.8,16.1,25.6,10.2,37.9-9.1c12.3-19.3,42.7-82.9,42.7-82.9l30.8-2.2c0,0-40.8,86.4-24.7,125
		c16.1,38.6,46.1,17.8,56.9-2.6c12.8-24.1,36.5-117.6,36.5-117.6l37-2.6c0,0-11.8,53.1-10.9,102.2c0.9,49.1,21.8,56.6,37.4,55.7
		c15.6-0.9,26.5-11,26.5-11s-2.4,21.5-23.7,27.2c-21.3,5.7-39.3,2.6-52.6-16.2c-13.3-18.9-9.5-49.5-9.5-49.5s-16.1,37.2-42.2,56.1
		c-26.1,18.9-56.6,19.9-71.6,3.5c-15-16.4-9.9-68.4-9.9-68.4s-26.6,44.3-56.4,39.5c-29.9-4.8-38.9-50-38.9-50s-34.6,48.7-69.7,71.1
		c-35.1,22.4-55.5,11.4-58.8-6.6c-3.3-18,17.5-82.5,17.5-82.5s-3.8,5.7-14.2,22.4c-10.4,16.7-45.5,70.6-80.1,78.1
		c-34.6,7.5-43.1-4.4-41.7-30.3c1.4-25.9,37.5-110.5,37.5-110.5s-16.6,11.4-29.4,16.7c-12.8,5.3-16.6,6.1-16.6,6.1
		s-4.3,66.2-48.4,109.2c-44.1,43-97.7,22.4-101.5-26.3c-3.8-48.7,41.3-91.2,41.3-91.2s-14.2,5.3-22.3,11.4
		c-8.1,6.1-16.6,13.2-16.6,13.2S377.3,533.8,415.2,514.5 M824.5,415c26.5-74.6,23.9-106.2,12.8-105.5c-11.1,0.8-27.3,25.3-43.5,93.2
		C777.5,470.6,781,520.4,781,520.4S798,489.6,824.5,415"/>
</g>
</svg>
