<?xml version="1.0" encoding="utf-8"?>
<!-- Generator: Adobe Illustrator 22.1.0, SVG Export Plug-In . SVG Version: 6.00 Build 0)  -->
<svg version="1.1" id="Layer_1" xmlns="http://www.w3.org/2000/svg" xmlns:xlink="http://www.w3.org/1999/xlink" x="0px" y="0px"
	 viewBox="0 0 1200 1200" style="enable-background:new 0 0 1200 1200;" xml:space="preserve">
<style type="text/css">
	.st0{fill:#1F3166;}
	.st1{fill:#FFFFFF;}
</style>
<circle class="st0" cx="601" cy="600.4" r="595"/>
<g>
	<g>
		<path class="st1" d="M348,599.7c-1.7-8.6-3.6-16.8-5.5-24.5c-1.9-7.8-4.6-15.7-8.1-23.9c-2.6,0.9-4.8,1.6-6.8,2.3
			c-1.9,0.6-4,1.2-6.1,1.6c-8.6,13.8-18.2,27.5-28.7,41c-10.6,13.6-22.1,26-34.6,37.5c-12.5,11.4-25.8,21.4-40,30
			c-14.2,8.6-29.3,14.9-45.2,18.7c-7.3,2.1-14.2,3.6-20.7,4.2c-6.5,0.6-12.7,1-18.7,1c-12.9,0-24.4-1.7-34.6-5.2
			c-10.1-3.5-18.4-8.2-24.9-14.2c-12.9-12.9-19.4-27.1-19.4-42.6c0-7.8,1.9-15.2,5.8-22.3c3.9-7.1,9-13.3,15.5-18.7
			c6.5-5.4,13.8-9.4,22-11.9c8.2-2.6,16.6-3.2,25.2-1.9c0.4,0,0.7,0.1,1,0.3c0.2,0.2,0.5,0.3,1,0.3c0.4,0.4,0.9,0.6,1.3,0.6
			c0.4,0,1.1,0.2,1.9,0.6l2.6,1.3c0,0.4-0.9,1.2-2.6,2.3c-1.7,1.1-3.9,2-6.5,2.9c-2.6,0.9-5.3,1.7-8.1,2.6c-2.8,0.9-5.1,1.3-6.8,1.3
			c-6-2.6-12.3-2.4-18.7,0.6c-8.6,3.5-15.2,8.7-19.7,15.8c-4.5,7.1-6.8,15-6.8,23.6c0,12.1,4.5,22.8,13.6,32.3
			c6,6.5,13.6,11.2,22.6,14.2c9,3,18.7,4.5,29.1,4.5c14.2,0,28.8-2.4,43.9-7.1c15.1-4.7,28.8-11,41.3-18.7
			c18.1-11.2,34.9-24.7,50.4-40.4c15.5-15.7,30.1-33.3,43.9-52.6c-7.8-1.3-11.6-4.7-11.6-10.3c0-2.6,1.1-4.8,3.2-6.8
			c2.1-1.9,4.7-3.4,7.8-4.5c3-1.1,6-1.7,9-1.9c3-0.2,5.2-0.1,6.5,0.3c12.5-19.4,24.4-41,35.8-64.9c11.4-23.9,21.2-46.2,29.4-66.9
			c-4.3,3-8.9,5.7-13.9,8.1c-5,2.4-10.4,4.6-16.5,6.8c-11.2,4.7-23.3,8.2-36.2,10.3c-12.9,2.2-25,3.9-36.2,5.2
			c-10.3,0.9-21.2,2.2-32.6,3.9c-11.4,1.7-22,4.8-31.7,9.4c-9.7,4.5-17.8,10.8-24.2,18.7c-6.5,8-9.9,18.6-10.3,32
			c0.9,4.7,3.1,10.3,6.8,16.8c3.7,6.5,7.9,10.3,12.6,11.6c9,3.5,16.4,3.9,22,1.3c1.7,0,4.1,0.4,7.1,1.3c3,0.9,6,1.8,9,2.9
			c3,1.1,5.4,2.2,7.1,3.2c1.7,1.1,2.1,1.8,1.3,2.3l-9,1.9c-11.6,2.6-21.7,2-30.4-1.6c-8.6-3.7-14.6-7.6-18.1-12
			c-1.7-1.3-4.3-4.9-7.8-11c-3.5-6-5.2-12.7-5.2-20c0-11.2,3.2-21.9,9.7-32c6.5-10.1,14.9-17.5,25.2-22.3H215
			c9.9-6,20.1-9.9,30.7-11.6c10.5-1.7,21.4-3,32.6-3.9h3.9c5.2-0.4,12.2-1.2,21-2.3c8.8-1.1,18.4-2.7,28.7-4.8
			c10.3-2.1,20.7-5.1,31-8.7c10.3-3.7,19.2-8.3,26.5-13.9v0.6c3-9,5.6-16.8,7.8-23.3c2.1-6.5,4.3-11.4,6.5-14.9v0.6
			c3-7.8,6.5-11.6,10.3-11.6c1.7-0.4,2.9,0.1,3.6,1.6c0.6,1.5,1,2.9,1,4.2c0,8.6-2.6,17-7.8,25.2c-5.2,8.2-11,15.1-17.4,20.7v-0.6
			c-0.4,0.9-0.9,1.9-1.3,3.2c-0.4,1.3-0.9,2.6-1.3,3.9c-2.6,6.9-5.6,15.5-9,25.8c-3.5,10.3-7.6,21.5-12.6,33.6
			c-5,12.1-10.4,24.8-16.5,38.1c-6,13.4-12.9,26.5-20.7,39.4c0.9,0.9,1.7,1.9,2.6,3.2c0.9,1.3,1.7,2.8,2.6,4.5
			c13.8-7.3,28.3-18.9,43.6-34.9c15.3-15.9,30.5-33.4,45.5-52.3c8.2-9.9,16.4-19.7,24.5-29.4c8.2-9.7,16.4-18.6,24.5-26.8
			c8.2-8.2,16.2-15.1,24.2-20.7c8-5.6,15.8-9.5,23.6-11.6c0.9-0.4,3.3-1.1,7.4-1.9c4.1-0.9,8.9-1.3,14.5-1.3
			c5.2,0,10.4,0.6,15.8,1.9c5.4,1.3,10.4,3.7,15.2,7.1h-0.6c1.7,0.9,3.7,2.4,5.8,4.5c0.4,1.3-0.3,2-2.3,2.3c-1.9,0.2-4.4,0.2-7.4,0
			c-3-0.2-5.9-0.5-8.7-1c-2.8-0.4-5.1-0.9-6.8-1.3c-3-3.4-6.5-5.7-10.3-6.8c-3.9-1.1-8.2-1.2-12.9-0.3c-7.3,0-15,2.6-22.9,7.8
			c-8,5.2-16.4,11.9-25.2,20.3c-8.8,8.4-17.9,18-27.1,28.7c-9.3,10.8-18.4,21.5-27.5,32.3c-15.1,18.1-30.5,35.2-46.2,51.4
			c-15.7,16.1-30.7,27.9-44.9,35.2c2.6,6,4.9,13.5,7.1,22.3c2.1,8.8,4.3,18,6.5,27.5c1.7,7.3,4.4,14.6,8.1,22
			c3.7,7.3,8.2,14.1,13.6,20.3c5.4,6.2,11.7,11.6,19.1,16.1c7.3,4.5,15.7,7.4,25.2,8.7c1.3,0,2.9,0.1,4.8,0.3
			c1.9,0.2,3.6,0.3,4.8,0.3c3.4-0.9,7.2-2,11.3-3.6c4.1-1.5,7.4-3.6,10-6.1c1.7-0.4,4.2-1.1,7.4-1.9c3.2-0.9,6.3-1.5,9.4-1.9
			c3-0.4,5.5-0.6,7.4-0.6s2.5,0.4,1.6,1.3c-0.9,0.9-1.4,1.5-1.6,1.9c-0.2,0.4-0.5,0.9-1,1.3l-2.6,2.6c-4.7,3.9-9.7,6.7-14.9,8.4
			c-5.2,1.7-10.1,2.9-14.9,3.6c-4.7,0.6-9,0.7-12.9,0.3c-3.9-0.4-6.9-0.9-9-1.3c-20.7-3.5-36.7-12.2-48.1-26.2
			C358.9,630.6,351.5,615.6,348,599.7z M302.8,548.7c1.3,1.3,3.4,1.9,6.5,1.9c1.3-1.7,2.7-3.7,4.2-5.8c1.5-2.1,2.9-4.1,4.2-5.8v0.6
			c0.4-0.9,1.1-1.7,1.9-2.6c-1.3-0.9-3.1-1.2-5.5-1c-2.4,0.2-4.6,0.8-6.8,1.6c-2.2,0.9-4.1,1.9-5.8,3.2c-1.7,1.3-2.6,2.6-2.6,3.9
			c0,1.7,1.1,3,3.2,3.9H302.8z M324.1,550.6c0.9-0.4,2.1-0.7,3.9-1c1.7-0.2,3.4-0.7,5.2-1.6c-0.9-1.7-2.4-3.7-4.5-5.8
			c-0.9,0.9-1.6,2.2-2.3,3.9c-0.6,1.7-1.2,2.8-1.6,3.2c-0.4,0.4-0.5,0.6-0.3,0.6C324.7,549.9,324.6,550.2,324.1,550.6z M333.2,548
			c0-0.4,0.2-0.6,0.6-0.6L333.2,548z M408.1,356.8c-2.2,3.5-4.2,7.4-6.1,11.9c-1.9,4.5-4,10-6.1,16.5c4.7-4.7,9-10.2,12.9-16.5
			c3.9-6.2,5.4-12.8,4.5-19.7c-0.9,0.9-1.4,1.6-1.6,2.3c-0.2,0.6-0.5,1.2-1,1.6v-0.6c-0.4,0.9-0.9,1.5-1.3,1.9
			c-0.4,0.4-0.9,1.1-1.3,1.9V356.8z M413.9,347.8c0.4-0.4,0.5-0.4,0.3,0c-0.2,0.4-0.5,0.9-1,1.3l-0.6-1.9L413.9,347.8z"/>
		<path class="st1" d="M412.6,619.7c-6.5,0-10.5-2.1-12.3-6.5v0.6c-2.1-3.4-2.5-9.3-1-17.4c1.5-8.2,5.9-19.6,13.2-34.2
			c6-12.5,12.8-25.9,20.3-40.4c7.5-14.4,15-28.7,22.3-43c1.7-3.4,3.8-7.5,6.1-12.3c2.4-4.7,4.4-8.6,6.1-11.6
			c2.6-5.2,5.2-10.2,7.8-15.2c2.6-4.9,3.7-7.4,3.2-7.4c0.9-0.9,1.6-0.1,2.3,2.3c0.6,2.4,1,5.3,1,8.7c0,3.5-0.1,6.8-0.3,10
			c-0.2,3.2-0.5,5.3-1,6.1v-0.6c0-0.4-0.4,0.6-1.3,3.2l-1.3,2.6v0.6l-1.3,1.3c-1.7,3-3.3,5.9-4.8,8.7c-1.5,2.8-2.9,5.5-4.2,8.1
			c-2.2,3.9-4.4,8.2-6.8,12.9c-2.4,4.7-5.3,10.1-8.7,16.1v-0.6c-9.9,17.7-19,34.6-27.1,50.7c-8.2,16.1-14,27.9-17.4,35.2
			c-0.4,0.9-0.7,1.9-1,3.2c-0.2,1.3-0.5,2.6-1,3.9c-0.9,5.6,0.6,9.3,4.5,11c1.3,0,3.3-0.4,6.1-1.3c2.8-0.9,6.1-2.7,10-5.5
			c3.9-2.8,8.3-6.9,13.2-12.3c4.9-5.4,10.7-12.6,17.1-21.6c0.4-0.4,0.6-0.7,0.6-1c0-0.2,0.2-0.5,0.6-1v0.6c0.9-1.7,2.4-2.1,4.5-1.3
			c0,0.9-0.6,2.6-1.9,5.2c-2.6,3.9-5,7.3-7.1,10.3c-2.2,3-4.7,6.2-7.8,9.7c-4.7,5.2-10.1,10.1-16.1,14.9
			C423.4,617.3,417.8,619.7,412.6,619.7z"/>
		<path class="st1" d="M521.1,616.5c-2.2-2.1-3.6-4.9-4.2-8.4c-0.6-3.4,0.1-8.8,2.3-16.1c-9.5,13.4-19.3,22.5-29.4,27.5
			c-10.1,4.9-19.5,4.8-28.1-0.3c-9-6.5-13.6-17.2-13.6-32.3c0-8.2,1.5-17,4.5-26.5c3-9.5,7.5-18.5,13.6-27.1
			c5.6-8.2,11.7-15.3,18.4-21.3c6.7-6,13.6-10.9,20.7-14.5c7.1-3.7,14-5.9,20.7-6.8c6.7-0.9,12.6,0,17.8,2.6
			c8.2,5.2,11.2,14.2,9,27.1c2.1-4.7,4.1-8.5,5.8-11.3c1.7-2.8,3-5.3,3.9-7.4c1.7-3.4,3.2-7.1,4.5-11c0.4-0.9,0.9-0.2,1.3,1.9
			c0.4,2.2,0.7,5,1,8.4c0.2,3.5,0.1,7.1-0.3,11c-0.4,3.9-1.3,7.1-2.6,9.7c-2.6,4.3-5.7,10-9.4,17.1c-3.7,7.1-7.4,14.3-11.3,21.6
			c-3.9,7.3-7.5,14.3-11,21c-3.5,6.7-5.8,12-7.1,15.8c-0.9,1.7-1.7,4.3-2.6,7.8c-0.4,2.2-0.3,4.3,0.3,6.5c0.6,2.2,1.8,3.7,3.6,4.5
			c1.7,0,3.9-0.4,6.5-1.3c2.6-0.9,5.7-2.7,9.4-5.5c3.7-2.8,8.1-6.9,13.2-12.3c5.2-5.4,11-12.6,17.4-21.6c1.3-1.3,2.7-1.8,4.2-1.6
			c1.5,0.2,1.8,1.2,1,2.9c-2.6,3.9-5.3,7.7-8.1,11.3c-2.8,3.7-5.3,7.2-7.4,10.7c-4.7,5.2-10.1,10.1-16.1,14.9
			c-6,4.7-12.1,7.1-18.1,7.1C526.1,619.9,522.9,618.6,521.1,616.5z M473.3,612.6c7.8,4.7,15.8,3.1,24.2-4.8
			c8.4-8,17.5-19.5,27.5-34.6c2.1-3.4,4.8-8.1,8.1-13.9c3.2-5.8,5.7-10.4,7.4-13.9c5.6-12.1,8.4-22.4,8.4-31
			c0-7.8-2.6-13.1-7.8-16.1c-7.3-4.3-16.9-2.5-28.7,5.5c-11.8,8-22.7,19.3-32.6,33.9c-5.2,8.2-9.3,16.9-12.3,26.2
			c-3,9.3-4.5,17.3-4.5,24.2C463,600.1,466.4,608.3,473.3,612.6z"/>
		<path class="st1" d="M618,502.1c0-0.4-0.1-0.9-0.3-1.3c-0.2-0.4-0.3-1.1-0.3-1.9c-0.4-1.3-0.8-2.9-1-4.8c-0.2-1.9-0.8-4-1.6-6.1
			c-0.9-2.1-0.4-5.6,1.3-10.3c1.7-4.7,5.6-6.2,11.6-4.5c4.7,3,6.2,6.8,4.5,11.3c-1.7,4.5-3.7,8.5-5.8,12c-0.9,0.9-1.3,1.5-1.3,1.9
			c0.4,2.6,1.5,5.4,3.2,8.4c0.9,2.2,1.6,4.1,2.3,5.8c0.6,1.7,1.4,3.7,2.3,5.8c0.9,2.2,1.6,4.3,2.3,6.5c0.6,2.2,1.4,4.3,2.3,6.5
			c3,7.8,6,16.4,9,25.8c3,9.5,5.2,18.3,6.5,26.5c1.7,10.8-0.8,19.4-7.4,25.8c-6.7,6.5-13.9,9.9-21.6,10.3c-9,0.4-16.4-1.9-22-7.1
			c-5.6-5.2-8.4-12.1-8.4-20.7v-3.9c0.4-1.3,1.7-0.4,3.9,2.6c2.1,3,3.4,5.6,3.9,7.8c0,2.6,0.2,4.3,0.6,5.2c2.1,5.2,7.1,8.8,14.9,11
			c6-0.4,11.5-3.2,16.5-8.4c4.9-5.2,7-11.4,6.1-18.7c0-6.5-1.3-15-3.9-25.5c-2.6-10.5-5.2-20.1-7.8-28.7c-0.4-1.7-0.9-3.2-1.3-4.5
			c-0.4-1.3-0.9-2.6-1.3-3.9c-0.9-3.4-1.7-6.3-2.6-8.7c-0.9-2.4-1.7-5.1-2.6-8.1c-3,6-6.6,12.7-10.7,20c-4.1,7.3-8.2,14.6-12.3,22
			c-4.1,7.3-8.2,14.2-12.3,20.7c-4.1,6.5-7.9,11.8-11.3,16.1l-3.9-3.2c3.5-4.7,7.4-10.5,12-17.4c4.5-6.9,9-14.1,13.6-21.6
			c4.5-7.5,8.8-15,12.9-22.3C612.1,514.9,615.4,508.2,618,502.1z M623.2,491.2l0.6-0.6l0.6,1.9h-1.3V491.2z"/>
		<path class="st1" d="M694.9,502.1c0-0.4-0.1-0.9-0.3-1.3c-0.2-0.4-0.3-1.1-0.3-1.9c-0.4-1.3-0.8-2.9-1-4.8c-0.2-1.9-0.8-4-1.6-6.1
			c-0.9-2.1-0.4-5.6,1.3-10.3c1.7-4.7,5.6-6.2,11.6-4.5c4.7,3,6.2,6.8,4.5,11.3c-1.7,4.5-3.7,8.5-5.8,12c-0.9,0.9-1.3,1.5-1.3,1.9
			c0.4,2.6,1.5,5.4,3.2,8.4c0.9,2.2,1.6,4.1,2.3,5.8c0.6,1.7,1.4,3.7,2.3,5.8c0.9,2.2,1.6,4.3,2.3,6.5c0.6,2.2,1.4,4.3,2.3,6.5
			c3,7.8,6,16.4,9,25.8c3,9.5,5.2,18.3,6.5,26.5c1.7,10.8-0.8,19.4-7.4,25.8c-6.7,6.5-13.9,9.9-21.6,10.3c-9,0.4-16.4-1.9-22-7.1
			c-5.6-5.2-8.4-12.1-8.4-20.7v-3.9c0.4-1.3,1.7-0.4,3.9,2.6c2.1,3,3.4,5.6,3.9,7.8c0,2.6,0.2,4.3,0.6,5.2c2.1,5.2,7.1,8.8,14.9,11
			c6-0.4,11.5-3.2,16.5-8.4c4.9-5.2,7-11.4,6.1-18.7c0-6.5-1.3-15-3.9-25.5c-2.6-10.5-5.2-20.1-7.8-28.7c-0.4-1.7-0.9-3.2-1.3-4.5
			c-0.4-1.3-0.9-2.6-1.3-3.9c-0.9-3.4-1.7-6.3-2.6-8.7c-0.9-2.4-1.7-5.1-2.6-8.1c-3,6-6.6,12.7-10.7,20c-4.1,7.3-8.2,14.6-12.3,22
			c-4.1,7.3-8.2,14.2-12.3,20.7c-4.1,6.5-7.9,11.8-11.3,16.1l-3.9-3.2c3.5-4.7,7.4-10.5,12-17.4c4.5-6.9,9-14.1,13.6-21.6
			c4.5-7.5,8.8-15,12.9-22.3C689,514.9,692.3,508.2,694.9,502.1z M700.1,491.2l0.6-0.6l0.6,1.9h-1.3V491.2z"/>
		<path class="st1" d="M795,571.9c0.9,0.9,0.4,2.8-1.3,5.8c-2.6,3.9-5,7.3-7.1,10.3c-2.2,3-4.7,6.2-7.8,9.7
			c-4.7,5.2-10.1,10.1-16.1,14.9c-6,4.7-11.6,7.1-16.8,7.1c-6,0-9.9-2.1-11.6-6.5v0.6c-2.6-3.9-3.1-9.7-1.6-17.4
			c1.5-7.8,5.9-19.2,13.2-34.2c0.4-0.9,2-4.3,4.8-10.3c2.8-6,5.9-12.7,9.4-20c1.7-3.9,3.8-8.3,6.1-13.2c2.4-4.9,4.5-9.5,6.5-13.6
			c1.9-4.1,3.6-7.6,4.8-10.7c1.3-3,1.9-4.9,1.9-5.8c0.4,0,1,1.3,1.6,3.9c0.6,2.6,1.1,5.5,1.3,8.7c0.2,3.2,0.3,6.4,0.3,9.4
			c0,3-0.2,5-0.6,5.8c-3.5,6.5-6.8,12.9-10,19.4c-3.2,6.5-6.6,13.1-10,20c-3.5,6.9-6.8,13.6-10,20c-3.2,6.5-6.3,12.7-9.4,18.7
			c0,1.3-0.2,2.2-0.6,2.6c-0.9,2.6-1.5,6-1.9,10.3c-0.4,4.3,0.6,7.1,3.2,8.4c1.3,0,3.2-0.4,5.8-1.3c2.6-0.9,5.8-2.8,9.7-5.8
			c3.9-3,8.4-7.2,13.6-12.6c5.2-5.4,11.2-12.6,18.1-21.6c1.7-1.7,3-2.6,3.9-2.6H795z M802.8,447.9c0.4-1.3,1.6-3.2,3.6-5.8
			c1.9-2.6,3.9-5.1,5.8-7.4c1.9-2.4,3.8-4.2,5.5-5.5c1.7-1.3,2.6-1.3,2.6,0c0,0.9-0.1,1.5-0.3,1.9c-0.2,0.4-0.3,1.1-0.3,1.9v3.9
			c-0.9,7.8-3.2,14.3-7.1,19.7c-3.9,5.4-7.8,9.8-11.6,13.2c-3.5,3-5.1,4-4.8,2.9c0.2-1.1,1-3.3,2.3-6.8c0.9-2.1,1.8-4.8,2.9-8.1
			C802.2,454.7,802.8,451.3,802.8,447.9z"/>
		<path class="st1" d="M824.7,521.5l-1.3,1.9c4.3-5.2,8.9-10.2,13.9-15.2c4.9-4.9,10.4-9.4,16.5-13.2c4.7-3,10-5.6,15.8-7.8
			c5.8-2.1,11.9-1.3,18.4,2.6c4.3,4.7,6.2,10.3,5.8,16.8c-0.4,6.5-1.7,12.3-3.9,17.4c0,0.9-0.5,2.2-1.6,3.9
			c-1.1,1.7-2.3,3.7-3.6,5.8c-4.3,6.9-9.9,16.4-16.8,28.4c-6.9,12.1-12.5,23.7-16.8,34.9c-0.9,1.7-1.7,4.3-2.6,7.8
			c-0.4,2.2-0.3,4.3,0.3,6.5c0.6,2.2,1.8,3.7,3.6,4.5c1.7,0,3.9-0.4,6.5-1.3c2.6-0.9,5.8-2.8,9.7-5.8c3.9-3,8.4-7.2,13.6-12.6
			c5.2-5.4,11.2-12.8,18.1-22.3c1.3-1.3,2.1-1.9,2.6-1.9c1.3,1.3,1.7,2.6,1.3,3.9c-1.3,2.2-1.9,3.5-1.9,3.9c-2.2,3-4.5,6.1-7.1,9.4
			c-2.6,3.2-5,6.1-7.1,8.7c-4.7,5.2-10.1,10.1-16.1,14.9c-6,4.7-11.6,7.1-16.8,7.1c-6,0-9.9-2.1-11.6-6.5v0.6
			c-2.2-3.4-2.7-9-1.6-16.8c1.1-7.8,5.7-19.4,13.9-34.9c1.7-3,3.2-5.9,4.5-8.7c1.3-2.8,2.6-5.5,3.9-8.1l13.6-26.5
			c0.9-1.7,1.9-3.8,3.2-6.1c1.3-2.4,2.5-4.6,3.6-6.8c1.1-2.1,1.8-3.8,2.3-4.8c0.4-1.1,0.2-1.2-0.6-0.3c0.9-3-0.2-5.8-3.2-8.4h0.6
			c-4.3-2.1-8.8-2.4-13.6-0.6c-4.7,1.7-9.3,3.9-13.6,6.5c-11.2,7.3-20.5,15.5-27.8,24.5c-7.3,9-14,18.7-20,29.1
			c-0.9,0.9-1.6,2.3-2.3,4.2c-0.6,1.9-1.2,3.3-1.6,4.2c-4.3,8.6-8.5,17.1-12.6,25.5c-4.1,8.4-7.9,17.1-11.3,26.2l-2.6,5.2
			c-2.6,2.6-5.4,3.4-8.4,2.6c-0.4,0-0.6-1.3-0.6-3.9c0.4-1.7,2.3-6.6,5.5-14.5c3.2-8,7.2-17.2,11.9-27.8
			c4.7-10.5,9.6-21.3,14.5-32.3c4.9-11,9.1-20.3,12.6-28.1c2.1-4.3,3.9-8.1,5.2-11.3c1.3-3.2,1.9-4.6,1.9-4.2l1.9-3.9
			c0-0.4,0.1-0.9,0.3-1.3c0.2-0.4,0.3-0.9,0.3-1.3c0-0.4,0.2-0.9,0.6-1.3c0.9-1.7,1.6-1.5,2.3,0.6c0.6,2.2,1.2,5,1.6,8.4
			c0.4,3.5,0.5,7,0.3,10.7c-0.2,3.7-0.5,5.9-1,6.8L824.7,521.5z M885.4,502.1c0-0.4,0.2-0.9,0.6-1.3
			C885.6,501.3,885.4,501.7,885.4,502.1z"/>
		<path class="st1" d="M986.8,519.6c-7.3,7.8-18.3,11.6-32.9,11.6c-3,0-6-0.4-9-1.3c-3-0.9-5.8-2.6-8.4-5.2l-1.9-1.9
			c-0.4-1.3,1.2-1.8,4.8-1.6c3.7,0.2,6.1,0.8,7.4,1.6c1.3,2.2,3.7,3.6,7.1,4.2c3.4,0.6,6.2,1,8.4,1c3.4-0.9,7.2-2,11.3-3.6
			c4.1-1.5,7.4-4,10-7.4c1.7-2.1,3.1-4.6,4.2-7.4c1.1-2.8,1.4-5.4,1-7.8c-0.4-2.4-1.6-4.3-3.6-5.8c-1.9-1.5-5.1-2.3-9.4-2.3
			c-7.3,0.4-16,4.6-26.2,12.6c-10.1,8-19.3,18-27.5,30c-5.2,8.2-9.2,16.9-11.9,26.2c-2.8,9.3-4.2,17.6-4.2,24.9
			c0,12.5,3.4,20.9,10.3,25.2c4.7,3,10.1,4.2,16.1,3.6c6-0.6,12.3-2.8,18.7-6.5c6.5-3.7,13-8.5,19.7-14.5c6.7-6,12.8-13.1,18.4-21.3
			c1.7-2.1,3.2-2.9,4.5-2.3c1.3,0.6,0.9,2.7-1.3,6.1c-6,9.5-13.1,17.7-21.3,24.5c-8.2,6.9-16.4,12.1-24.5,15.5
			c-8.2,3.4-15.9,5.4-23.3,5.8c-7.3,0.4-13.6-1.1-18.7-4.5h0.6c-4.7-3-8.3-7.2-10.7-12.6c-2.4-5.4-3.6-11.7-3.6-19.1
			c0-18.1,6-36.6,18.1-55.6c10.3-16.4,22.5-28.5,36.5-36.5c14-8,26.4-10.2,37.1-6.8c3,0.9,5.4,2.6,7.1,5.2c1.7,2.6,2.7,5.5,2.9,8.7
			c0.2,3.2-0.1,6.5-1,9.7C991.1,515.4,989.4,517.9,986.8,519.6z"/>
		<path class="st1" d="M1023.7,521.5l-1.3,1.9c4.3-5.2,8.9-10.2,13.9-15.2c4.9-4.9,10.4-9.4,16.5-13.2c4.7-3,10-5.6,15.8-7.8
			c5.8-2.1,11.9-1.3,18.4,2.6c4.3,4.7,6.2,10.3,5.8,16.8c-0.4,6.5-1.7,12.3-3.9,17.4c0,0.9-0.5,2.2-1.6,3.9
			c-1.1,1.7-2.3,3.7-3.6,5.8c-4.3,6.9-9.9,16.4-16.8,28.4c-6.9,12.1-12.5,23.7-16.8,34.9c-0.9,1.7-1.7,4.3-2.6,7.8
			c-0.4,2.2-0.3,4.3,0.3,6.5c0.6,2.2,1.8,3.7,3.6,4.5c1.7,0,3.9-0.4,6.5-1.3c2.6-0.9,5.8-2.8,9.7-5.8c3.9-3,8.4-7.2,13.6-12.6
			c5.2-5.4,11.2-12.8,18.1-22.3c1.3-1.3,2.1-1.9,2.6-1.9c1.3,1.3,1.7,2.6,1.3,3.9c-1.3,2.2-1.9,3.5-1.9,3.9c-2.2,3-4.5,6.1-7.1,9.4
			c-2.6,3.2-5,6.1-7.1,8.7c-4.7,5.2-10.1,10.1-16.1,14.9c-6,4.7-11.6,7.1-16.8,7.1c-6,0-9.9-2.1-11.6-6.5v0.6
			c-2.2-3.4-2.7-9-1.6-16.8c1.1-7.8,5.7-19.4,13.9-34.9c1.7-3,3.2-5.9,4.5-8.7c1.3-2.8,2.6-5.5,3.9-8.1l13.6-26.5
			c0.9-1.7,1.9-3.8,3.2-6.1c1.3-2.4,2.5-4.6,3.6-6.8c1.1-2.1,1.8-3.8,2.3-4.8c0.4-1.1,0.2-1.2-0.6-0.3c0.9-3-0.2-5.8-3.2-8.4h0.6
			c-4.3-2.1-8.8-2.4-13.6-0.6c-4.7,1.7-9.3,3.9-13.6,6.5c-11.2,7.3-20.5,15.5-27.8,24.5c-7.3,9-14,18.7-20,29.1
			c-0.9,0.9-1.6,2.3-2.3,4.2c-0.6,1.9-1.2,3.3-1.6,4.2c-4.3,8.6-8.5,17.1-12.6,25.5c-4.1,8.4-7.9,17.1-11.3,26.2l-2.6,5.2
			c-2.6,2.6-5.4,3.4-8.4,2.6c-0.4,0-0.6-1.3-0.6-3.9c0.4-1.7,2.3-6.6,5.5-14.5c3.2-8,7.2-17.2,11.9-27.8
			c4.7-10.5,9.6-21.3,14.5-32.3c4.9-11,9.1-20.3,12.6-28.1c2.1-4.3,3.9-8.1,5.2-11.3c1.3-3.2,1.9-4.6,1.9-4.2l1.9-3.9
			c0-0.4,0.1-0.9,0.3-1.3c0.2-0.4,0.3-0.9,0.3-1.3c0-0.4,0.2-0.9,0.6-1.3c0.9-1.7,1.6-1.5,2.3,0.6c0.6,2.2,1.2,5,1.6,8.4
			c0.4,3.5,0.5,7,0.3,10.7c-0.2,3.7-0.5,5.9-1,6.8L1023.7,521.5z M1084.4,502.1c0-0.4,0.2-0.9,0.6-1.3
			C1084.6,501.3,1084.4,501.7,1084.4,502.1z"/>
	</g>
	<g>
		<path class="st1" d="M480.3,810.5c-7.3,13.3-16.4,26.5-27.1,39.4c-10.8,12.9-24.3,21.5-40.7,25.8c-2.6,0.9-5.6,1.3-9,1.3
			c-3.4,0-6.2-0.2-8.4-0.6c-5.2-0.9-11-2.4-17.4-4.5c-6.5-2.2-12.1-6-16.8-11.6h0.6c-1.3-0.9-2.4-1.9-3.2-3.2v0.6
			c-0.9-0.9-1.7-2.2-2.6-3.9c0-0.4,1.1-0.5,3.2-0.3c2.2,0.2,4.6,0.6,7.4,1.3c2.8,0.6,5.6,1.4,8.4,2.3c2.8,0.9,4.8,1.7,6.1,2.6
			c2.6,4.3,6.7,7.3,12.3,9c5.6,1.7,11,2.6,16.1,2.6c9.5-3,19-9.9,28.4-20.7c9.5-10.8,18.6-23.5,27.5-38.1
			c8.8-14.6,17.2-30.1,25.2-46.5c8-16.4,15.2-31.7,21.6-45.9c3.4-7.3,6.6-14.2,9.4-20.7c2.8-6.5,5.5-12.1,8.1-16.8
			c0.9-1.7,1.6-1.5,2.3,0.6c0.6,2.2,1.2,5,1.6,8.4c0.4,3.5,0.5,7,0.3,10.7c-0.2,3.7-0.5,5.9-1,6.8c-4.7,8.6-9.5,17.2-14.2,25.8
			c-3.9,7.3-7.9,15.3-12,23.9c-4.1,8.6-7.9,16.4-11.3,23.3c1.7-2.1,2-2,1,0.3c-1.1,2.4-2,4.4-2.9,6.1c-0.9,2.2-1.5,3.9-1.9,5.2
			c-0.4,1.3-0.9,2.6-1.3,3.9c-0.9,5.6,0.6,9.3,4.5,11c1.7,0,3.8-0.5,6.1-1.6c2.4-1.1,5.5-3,9.4-5.8c3.9-2.8,8.4-6.9,13.6-12.3
			c5.2-5.4,11.2-12.6,18.1-21.6c1.7-3,3.2-3.9,4.5-2.6c0.9,0.9,0.9,2.2,0,3.9c-1.3,2.2-1.9,3.5-1.9,3.9
			c-5.2,6.5-10.1,12.5-14.9,18.1c-4.7,5.2-10.1,10.1-16.1,14.9c-6,4.7-11.6,7.1-16.8,7.1c-0.9,0.4-3,0-6.5-1.3
			c-1.3-0.9-2.4-1.6-3.2-2.3c-0.9-0.6-1.7-2.3-2.6-4.8c-1.3,3.5-2.6,5.8-3.9,7.1V810.5z M568.8,621.9c0,1.3,0,2.7,0,4.2
			c0,1.5-0.2,2.7-0.6,3.6c-0.9,7.3-3.1,13.8-6.8,19.4c-3.7,5.6-7.4,10.1-11.3,13.6c-3.5,2.2-5.1,2.7-4.8,1.6c0.2-1.1,1-3.1,2.3-6.1
			c0.9-2.1,1.9-4.8,3.2-8.1c1.3-3.2,1.9-6.3,1.9-9.4c0.4-1.3,1.5-3.2,3.2-5.8c1.7-2.6,3.6-5.1,5.5-7.4c1.9-2.4,3.7-4.2,5.2-5.5
			C568.1,620.6,568.8,620.6,568.8,621.9z"/>
		<path class="st1" d="M636,718.8c-3,19-10.6,37-22.6,54.3c5.2,1.3,10,1.1,14.5-0.6c4.5-1.7,8.5-4.3,11.9-7.8l5.2,1.3
			c-11.6,9.5-22.8,12.9-33.6,10.3c-11.2,15.1-22.8,25.7-34.9,32c-12.1,6.2-22.4,6.3-31,0.3c-9-5.6-13.6-16.1-13.6-31.7
			c0-8.6,1.5-18,4.5-28.1c3-10.1,7.5-19.5,13.6-28.1c5.2-8.2,11.1-15.3,17.8-21.3c6.7-6,13.3-10.9,20-14.5c6.7-3.7,12.9-6,18.7-7.1
			c5.8-1.1,10.7-0.7,14.5,1c7.8,3,11.2,9,10.3,18.1c2.1,0,3.6,2.4,4.2,7.1c0.6,4.7,0.7,8.8,0.3,12.3V718.8z M601.8,724
			c-1.7-0.4-1.1-1.7,1.9-3.9c3-2.1,5.6-3.7,7.8-4.5c2.1-2.6,4.4-5.2,6.8-7.8c2.4-2.6,5.5-5.6,9.4-9v0.6c0.9-4.7,0-8.7-2.6-11.9
			c-2.6-3.2-5.2-4.8-7.8-4.8h-2.6c-7.8,0.9-16.4,5.2-25.8,12.9c-9.5,7.8-18.1,17.9-25.8,30.4c-5.6,8.6-9.8,17.4-12.6,26.5
			c-2.8,9-4.2,17.2-4.2,24.5c0,5.6,0.9,10.7,2.6,15.2c1.7,4.5,4.5,7.9,8.4,10c7.3,4.7,15.2,4.1,23.6-1.9c8.4-6,16.7-14.6,24.9-25.8
			c-5.6-4.3-8.4-10.8-8.4-19.4c0-5.6,0.9-11.2,2.6-16.8c1.7-5.6,3.9-10.3,6.5-14.2H601.8z M612.1,723.3c-2.2,3.5-4.4,8.1-6.8,13.9
			c-2.4,5.8-3.6,11.7-3.6,17.8c0,8.2,2.2,13.6,6.5,16.1c5.2-8.6,9.9-17.2,14.2-25.8c4.3-8.6,7.3-18.1,9-28.4
			c0.4-2.1,0.6-5.3,0.6-9.4c0-4.1-0.4-5.9-1.3-5.5c-0.9,6-3.2,10.8-7.1,14.2c-3.9,3.5-8,5.8-12.3,7.1H612.1z M627.6,703.9v0.6V703.9
			h0.6l-0.6,0.6l-1.3,1.3c0.4-0.9,0.6-1.7,0.6-2.6L627.6,703.9z"/>
		<path class="st1" d="M754.2,766.6c1.3-1.3,2.1-1.9,2.6-1.9h0.6c0.4,0.9,0.6,1.7,0.6,2.6c0,0.9-0.4,2.2-1.3,3.9
			c-2.2,3.5-4.5,6.7-7.1,9.7c-2.6,3-5.2,6.2-7.8,9.7c-5.2,5.6-11.2,10.7-18.1,15.2c-6.9,4.5-14.2,7-22,7.4c-5.6,0-9.3-1.3-11-3.9
			c-2.2-2.1-3.5-5.6-3.9-10.3c-0.4-4.7,1.1-11.4,4.5-20c-3,3-6.7,6.5-11,10.3c-4.3,3.9-8.8,7.5-13.6,11c-4.7,3.5-9.5,6.4-14.2,8.7
			c-4.7,2.4-8.8,3.6-12.3,3.6c-6.5,0-10.5-2.1-12.3-6.5v0.6c-5.2-7.3-1.1-24.5,12.3-51.7c7.8-15.5,14-27.9,18.7-37.1
			c4.7-9.3,8.4-16.5,11-21.6c2.6-5.2,4.3-8.6,5.2-10.3c0.9-1.7,1.3-3,1.3-3.9c0.9-1.3,1.5-0.9,1.9,1.3c0.4,2.2,0.9,5.1,1.3,8.7
			c0.4,3.7,0.5,7.2,0.3,10.7c-0.2,3.5-0.5,5.6-1,6.5c-5.6,9.5-11,19-16.1,28.4c-4.7,8.2-9.4,16.7-13.9,25.5
			c-4.5,8.8-8.3,16.7-11.3,23.6c-0.4,0.9-1.1,2.5-1.9,4.8c-0.9,2.4-1.4,4.7-1.6,7.1c-0.2,2.4-0.2,4.5,0,6.5c0.2,1.9,1.4,3.1,3.6,3.6
			c3.4,0.9,11-1.9,22.6-8.4c11.6-6.5,23.9-18.3,36.8-35.5c0.9-0.9,1.4-1.7,1.6-2.6c0.2-0.9,0.7-1.9,1.6-3.2l2.6-5.2l16.8-34.2
			c2.1-4.3,4.2-8.5,6.1-12.6c1.9-4.1,3.8-7.9,5.5-11.3l6.5-12.9c1.7-3.4,2.9-2.9,3.6,1.6s0.7,9.6,0.3,15.2c0,3-0.1,5.4-0.3,7.1
			c-0.2,1.7-0.5,3.2-1,4.5c-2.6,3.9-5.6,8.8-9,14.9c-3.5,6-7,12.5-10.7,19.4c-3.7,6.9-7.3,13.9-11,21c-3.7,7.1-6.8,13.5-9.4,19.1
			c-0.9,1.7-1.8,3.8-2.9,6.1c-1.1,2.4-1.9,4.7-2.6,7.1c-0.6,2.4-0.8,4.5-0.3,6.5c0.4,1.9,1.9,3.1,4.5,3.6c1.3,0,3.6-0.3,6.8-1
			c3.2-0.6,7.2-2.4,11.9-5.2c4.7-2.8,10-6.9,15.8-12.3c5.8-5.4,12.2-12.8,19.1-22.3L754.2,766.6z"/>
		<path class="st1" d="M754.8,812.4c-6.5,0-10.5-2.1-12.3-6.5v0.6c-2.1-3.4-2.5-9.3-1-17.4c1.5-8.2,5.9-19.6,13.2-34.2
			c6-12.5,12.8-25.9,20.3-40.4c7.5-14.4,15-28.7,22.3-43c1.7-3.4,3.8-7.5,6.1-12.3c2.4-4.7,4.4-8.6,6.1-11.6
			c2.6-5.2,5.2-10.2,7.8-15.2c2.6-4.9,3.7-7.4,3.2-7.4c0.9-0.9,1.6-0.1,2.3,2.3c0.6,2.4,1,5.3,1,8.7c0,3.5-0.1,6.8-0.3,10
			c-0.2,3.2-0.5,5.3-1,6.1v-0.6c0-0.4-0.4,0.6-1.3,3.2l-1.3,2.6v0.6l-1.3,1.3c-1.7,3-3.3,5.9-4.8,8.7c-1.5,2.8-2.9,5.5-4.2,8.1
			c-2.2,3.9-4.4,8.2-6.8,12.9c-2.4,4.7-5.3,10.1-8.7,16.1v-0.6c-9.9,17.7-19,34.6-27.1,50.7c-8.2,16.1-14,27.9-17.4,35.2
			c-0.4,0.9-0.7,1.9-1,3.2c-0.2,1.3-0.5,2.6-1,3.9c-0.9,5.6,0.6,9.3,4.5,11c1.3,0,3.3-0.4,6.1-1.3c2.8-0.9,6.1-2.7,10-5.5
			c3.9-2.8,8.3-6.9,13.2-12.3c4.9-5.4,10.7-12.6,17.1-21.6c0.4-0.4,0.6-0.7,0.6-1c0-0.2,0.2-0.5,0.6-1v0.6c0.9-1.7,2.4-2.1,4.5-1.3
			c0,0.9-0.6,2.6-1.9,5.2c-2.6,3.9-5,7.3-7.1,10.3c-2.2,3-4.7,6.2-7.8,9.7c-4.7,5.2-10.1,10.1-16.1,14.9
			C765.6,810.1,760,812.4,754.8,812.4z"/>
		<path class="st1" d="M914.4,766.6c1.3-1.3,2.1-1.9,2.6-1.9h0.6c0.4,0.9,0.6,1.7,0.6,2.6c0,0.9-0.4,2.2-1.3,3.9
			c-2.2,3.5-4.5,6.7-7.1,9.7c-2.6,3-5.2,6.2-7.8,9.7c-5.2,5.6-11.2,10.7-18.1,15.2c-6.9,4.5-14.2,7-22,7.4c-5.6,0-9.3-1.3-11-3.9
			c-2.2-2.1-3.5-5.6-3.9-10.3c-0.4-4.7,1.1-11.4,4.5-20c-3,3-6.7,6.5-11,10.3c-4.3,3.9-8.8,7.5-13.6,11c-4.7,3.5-9.5,6.4-14.2,8.7
			c-4.7,2.4-8.8,3.6-12.3,3.6c-6.5,0-10.5-2.1-12.3-6.5v0.6c-5.2-7.3-1.1-24.5,12.3-51.7c7.8-15.5,14-27.9,18.7-37.1
			c4.7-9.3,8.4-16.5,11-21.6c2.6-5.2,4.3-8.6,5.2-10.3c0.9-1.7,1.3-3,1.3-3.9c0.9-1.3,1.5-0.9,1.9,1.3c0.4,2.2,0.9,5.1,1.3,8.7
			c0.4,3.7,0.5,7.2,0.3,10.7c-0.2,3.5-0.5,5.6-1,6.5c-5.6,9.5-11,19-16.1,28.4c-4.7,8.2-9.4,16.7-13.9,25.5
			c-4.5,8.8-8.3,16.7-11.3,23.6c-0.4,0.9-1.1,2.5-1.9,4.8c-0.9,2.4-1.4,4.7-1.6,7.1c-0.2,2.4-0.2,4.5,0,6.5c0.2,1.9,1.4,3.1,3.6,3.6
			c3.4,0.9,11-1.9,22.6-8.4c11.6-6.5,23.9-18.3,36.8-35.5c0.9-0.9,1.4-1.7,1.6-2.6c0.2-0.9,0.7-1.9,1.6-3.2l2.6-5.2l16.8-34.2
			c2.1-4.3,4.2-8.5,6.1-12.6c1.9-4.1,3.8-7.9,5.5-11.3l6.5-12.9c1.7-3.4,2.9-2.9,3.6,1.6c0.6,4.5,0.7,9.6,0.3,15.2
			c0,3-0.1,5.4-0.3,7.1c-0.2,1.7-0.5,3.2-1,4.5c-2.6,3.9-5.6,8.8-9,14.9c-3.5,6-7,12.5-10.7,19.4c-3.7,6.9-7.3,13.9-11,21
			c-3.7,7.1-6.8,13.5-9.4,19.1c-0.9,1.7-1.8,3.8-2.9,6.1c-1.1,2.4-1.9,4.7-2.6,7.1c-0.6,2.4-0.8,4.5-0.3,6.5
			c0.4,1.9,1.9,3.1,4.5,3.6c1.3,0,3.6-0.3,6.8-1c3.2-0.6,7.2-2.4,11.9-5.2c4.7-2.8,10-6.9,15.8-12.3c5.8-5.4,12.2-12.8,19.1-22.3
			L914.4,766.6z"/>
	</g>
</g>
</svg>
