<?xml version="1.0" encoding="utf-8"?>
<!-- Generator: Adobe Illustrator 22.1.0, SVG Export Plug-In . SVG Version: 6.00 Build 0)  -->
<svg version="1.1" id="Layer_1" xmlns="http://www.w3.org/2000/svg" xmlns:xlink="http://www.w3.org/1999/xlink" x="0px" y="0px"
	 viewBox="0 0 1200 1200" style="enable-background:new 0 0 1200 1200;" xml:space="preserve">
<style type="text/css">
	.st0{fill:#73BDFF;}
	.st1{fill:#FFFFFF;}
</style>
<circle class="st0" cx="603.3" cy="602.4" r="595"/>
<g>
	<path class="st1" d="M163.6,870c4.5,0.5,7.5,5.3,12.5,5.3c6.8,0,11.3-12,12.3-17c8.8-39.5,8.3-80.5,9.8-123.8
		c0.3-11,0-22.8,1.5-33.8c0.8-3.5,0.8-7,4.8-7c4.3,0.5,10,2.3,10,8c-5.3,49.8-3.5,103.3-9.3,142.8c-2.5,18.3-6.3,43.5-28.3,43.5
		c-1,0-2.3,0-3.5-0.3c-6.8-0.8-16.8-3.8-16.8-12v-1.5C157.1,870.5,160.6,869.7,163.6,870z"/>
	<path class="st1" d="M271.6,701.7c55.5,0,63,177.8,8,182.5c-1,0-2,0.3-3,0.3c-21,0-32.5-12.5-38.5-35.5
		C234.9,834,208.9,701.7,271.6,701.7z M250.1,837.5c2,8.3,10.3,32,22.8,33.3c1.3,0.3,2.3,0,3,0c16.8-1.5,22.3-30.8,24.5-42.5
		c4-20,7.3-112.8-28.3-112.8h-2C232.4,719,245.4,819.2,250.1,837.5z"/>
	<path class="st1" d="M340.9,700c1.5-1.5,4-3,6.3-3c9,0,8.5,9.5,8.3,16v1.5c-0.5,25-3.5,49.5-4,74.5c-0.5,17-8.5,85.5,18.3,85.5
		c12.3,0,20.5-24,22.3-31.8c9.3-43.8,15-89.8,15-133.8v-5.5c0-3.8,5-5,8.3-5c4.3,0,7.8,3.8,7.8,7.5l-0.3,3.8
		c-2.5,38.5-5.5,74-12.3,112.3l-0.5,3.3c-0.3,0.5-0.3,1.5-0.8,2.5c-3,18-10.3,59.3-38,59.3c-31.8,0-34.3-34-34.3-55.8v-4.5
		c0-1.5,0.3-33.8,0.5-45.8C338.1,754,338.1,727,340.9,700z"/>
	<path class="st1" d="M452.9,694.5c4,0,7.3,5,8.3,8.8c2,56.5,1.8,113.8,6.8,170.5c7.5-2,20.3-5.3,30-5.3c4.5,0,8.5,1.3,8.5,6.3
		c0,3.3-0.8,5.8-5,7.3c-8.5,3-19.8,2.5-28.5,5c-3.3,0.8-6.8,3.3-10.8,3.3c-3,0-7.3-3.5-7.8-6.8c-3-30-1.8-62.3-3.3-91.8l-3.3-61.8
		v-31.8C449.1,695.5,450.6,694.5,452.9,694.5z"/>
	<path class="st1" d="M524.1,700c1.5-1.5,4-3,6.3-3c9,0,8.5,9.5,8.3,16v1.5c-0.5,25-3.5,49.5-4,74.5c-0.5,17-8.5,85.5,18.3,85.5
		c12.3,0,20.5-24,22.3-31.8c9.3-43.8,15-89.8,15-133.8v-5.5c0-3.8,5-5,8.3-5c4.3,0,7.8,3.8,7.8,7.5l-0.3,3.8
		c-2.5,38.5-5.5,74-12.3,112.3l-0.5,3.3c-0.3,0.5-0.3,1.5-0.8,2.5c-3,18-10.3,59.3-38,59.3c-31.8,0-34.3-34-34.3-55.8v-4.5
		c0-1.5,0.3-33.8,0.5-45.8C521.4,754,521.4,727,524.1,700z"/>
	<path class="st1" d="M634.6,787.5c0-7.8-1.3-53.3-1.8-65c0-2.5-1.5-24.5-1.8-27.3v-1c0-5.8,6.5-7.3,11.5-7.3
		c34.5,0,46.8,24.8,46.8,53.5c0,23-8.8,37-24.8,48.5c28.8,12.8,35.8,53.5,35.8,81.5c0,4.5-2.8,6.3-7.3,6.3c-3,0-4.3,0-5.5-4
		c-1.3-18.8-6-71.8-35-71.8c-0.3,0-2,0.3-2.5,0.3c-2.8,28.3-0.5,56.8-2.3,85.3c-3.3,4.5-10.3,4.8-13.3,0
		C634.9,871.5,634.9,802.5,634.6,787.5z M648.4,781.5c17.8-3.5,27.5-23,27.5-38.8c0-13.3-5.5-40.8-23.5-40.8c-1,0-8.8,0-8.8,2
		L648.4,781.5z"/>
	<path class="st1" d="M737.6,710c1.5-23,16.5-17,20.8,0c6.3,25,11,47.8,38.3,180.3c0,5.5-7.5,9.8-12,1.8l-9-45l-33.8,5
		c-2,11.8-3.8,34-4.3,44.5c-0.5,6-11.3,4.5-11,0L737.6,710z M742.4,826.5c-0.3,1.8-0.5,11.5-0.5,13.5l31.3-4.5l-24.5-111.3
		C747.6,739.5,743.1,811,742.4,826.5z"/>
	<path class="st1" d="M831.6,697.5h1c45,2,51.3,54.8,51.3,91.3c0,3.8-0.3,7.5-0.3,10.8c-1.3,47.5-14.8,85.8-57.3,85.8
		c-3.5,0-7-0.3-10.8-1c0,0,0.3-28,0.5-39.5c0.8-32,2-62.3,3.3-94.8c0.3-4.3,0.8-40.8,1-45.5l0.3-1.5
		C820.9,698.7,827.9,697.5,831.6,697.5z M828.9,874.2c2,0.3,2.5,0.3,2.8,0.3c31.8,0,37-53.5,38-74c1.3-23.5,0.3-86-35-89
		L828.9,874.2z"/>
	<path class="st1" d="M922.4,709.5l11,152.5c0.5,4.8,1.3,8.8,1.3,13.3c-0.3,4-4.3,5.5-8.5,5.5c-5.5,0-6.5-4.8-7.3-9.5l-6.3-109.8
		c-1.3-18-4-36-3.5-54C909.4,701.2,921.9,703.5,922.4,709.5z"/>
	<path class="st1" d="M997.6,701.7c55.5,0,63,177.8,8,182.5c-1,0-2,0.3-3,0.3c-21,0-32.5-12.5-38.5-35.5
		C960.9,834,934.9,701.7,997.6,701.7z M976.1,837.5c2,8.3,10.3,32,22.8,33.3c1.3,0.3,2.3,0,3,0c16.8-1.5,22.3-30.8,24.5-42.5
		c4-20,7.3-112.8-28.3-112.8h-2C958.4,719,971.4,819.2,976.1,837.5z"/>
</g>
<g>
	<path class="st1" d="M1051.1,463.6c-0.3,39.1-0.5,78.1-0.8,117.2c-0.1,14.6-0.3,29.3-0.5,43.9c-0.1,4.7-3.3,8.3-8.1,8.3
		c-13.2-0.1-26.4-0.2-39.6-0.6c-3.8-0.1-7-2.3-8.8-5.6c-2.4-4.3-4.6-8.9-6.1-13.6c-12.2-38.3-24.3-76.7-36.4-115
		c-6.1-19.4-12.4-38.8-18.6-58.2c-0.1-0.3-0.2-0.5-0.9-0.8c-0.1,0.8-0.2,1.6-0.2,2.3c-0.1,16.2-0.1,32.3-0.2,48.5
		c-0.2,44.6-0.4,89.2-0.6,133.9c0,2.4-0.2,4.9-0.7,7.2c-0.8,3.8-4.3,4.5-7.2,4.9c-6.3,0.8-12.6,1.5-18.9,1.2
		c-5.5-0.2-11.1-1.4-16.4-3c-5.6-1.7-7.7-5.5-7.7-11.5c0-71.1,0-142.2,0.1-213.2c0-17.7,0.4-35.3,0.4-53c0-9.3-0.6-18.6-0.4-27.8
		c0.1-4.8,1-9.8,2.4-14.5c1.6-5.3,5.6-7.5,11.1-7.5c12.5,0.2,25,0.3,37.5,0.5c2.3,0,4.7,0.1,6.9,0.6c5.1,1.1,7.6,4.9,9,9.6
		c6.3,20.6,12.4,41.3,18.9,61.9c11.2,35.4,22.6,70.7,33.9,106c0.2,0.6,0.5,1.3,0.8,1.9c0.3,0,0.6,0,1,0c0-6.3,0-12.5,0-18.8
		c0-23.8,0.2-47.7,0-71.5c-0.2-22.3-0.9-44.6-1-66.9c0-4.2,1.6-8.6,3.2-12.6c1.3-3.4,4.5-4.9,8.3-4.9c10.4,0.2,20.8,0.2,31.2,0.6
		c5.1,0.2,7.9,3.5,8,8.6c0.1,8,0.2,15.9,0.3,23.9C1051.3,346.5,1051.1,460.9,1051.1,463.6z"/>
	<path class="st1" d="M148.7,616.9c0.2-15.2,0.4-30.5,0.6-45.7c0.3-18.7,0.8-37.3,1.2-56c0.3-13.8,0.8-27.6,1.2-41.4
		c0.4-15.1,0.9-30.2,1.2-45.4c0.4-18.3,0.8-36.5,1.2-54.8c0.3-16,0.3-32.1,0.7-48.1c0.1-5,0.9-10,1.9-14.9c1.1-5.8,5.3-9.4,11.4-9.5
		c9.2-0.3,18.5-0.3,27.7,0c6.9,0.2,11,4.8,10.9,12.1c-0.1,10.7-0.7,21.4-1.1,32c-0.2,5.8-0.5,11.7-0.6,17.5
		c-0.2,9.1-0.4,18.1-0.6,27.2c-0.6,20-1.2,39.9-1.8,59.8c-0.4,13.4-0.8,26.8-1.2,40.2c-0.5,18.9-0.8,37.7-1.3,56.6
		c-0.2,8.8-0.4,17.5-0.6,26.3c-0.1,2.9-0.1,5.8-0.1,8.7c0.1,6,4.7,9.4,10.3,10.1c5.1,0.6,10.2,0.4,15.3,0.7
		c4.2,0.3,8.4,0.4,12.5,1.2c7.7,1.5,8.8,5.3,9,11.7c0.2,8.1-0.2,16.1-0.5,24.2c-0.1,3.7-1.1,7.1-4.1,9.7c-3,2.6-6.7,1.9-10.1,2.2
		c-5.9,0.5-11.9,0.5-17.8,0.7c-11.3,0.2-22.6,0.4-33.9,0.7c-5.6,0.1-11.3,0.4-16.9,0.6c-9.8,0.3-14.3-3.9-14.8-13.2
		C148.7,629.7,148.7,617.8,148.7,616.9z"/>
	<path class="st1" d="M295.8,634.9c-6,0-11.9,0-17.9,0c-5.4,0-8.2-2.3-9.1-7.6c-0.3-1.9-0.6-3.8-0.6-5.7c-0.3-8.5-0.5-16.9-0.6-25.4
		c-0.3-26.2-0.4-52.5-0.7-78.7c-0.1-14.8-0.3-29.7-0.6-44.5c-0.3-21-1.3-42-1-62.9c0.2-19.4,1.4-38.8,8.4-57.3
		c6.4-16.8,16.4-30.6,33.3-38c5.8-2.5,12.4-3.8,18.7-4.6c7.3-0.9,14.7-0.9,22-0.7c11.5,0.4,21.6,4.6,30.1,12.3
		c12.3,11.2,18.3,25.8,21.7,41.5c2.2,10.2,3.3,20.7,4.3,31.1c0.9,9.2,0.9,18.5,1.3,27.8c0.6,15.4,1.2,30.8,1.8,46.2
		c0.4,10,0.8,19.9,1.2,29.9c0.6,16.5,1.2,33,1.8,49.5c0.4,11.8,0.8,23.6,1.2,35.4c0.4,11.7,0.8,23.4,1.1,35.1
		c0.1,4.9-1.7,7.3-6.6,8.6c-7.8,2.1-15.8,1.1-23.7,1.2c-5.2,0.1-10-1.5-14.6-3.7c-3.7-1.7-5.4-4.4-5.5-8.7
		c-0.2-10.4-1.1-20.7-1.6-31c-0.2-4-0.5-8-0.6-12.1c-0.4-10-0.7-19.9-1.3-29.9c-0.3-5.2-0.8-10.4-1.9-15.4c-1.1-5-3.5-6.5-8.6-6.5
		c-7.6,0-15.1,0-22.7,0c-6.1,0-7.4,1.2-7.3,7.1c0.3,12.7,0.6,25.4,1.1,38.1c0.5,11.9,1.3,23.7,1.8,35.6c0.4,8.9,0.5,17.7,0.6,26.6
		c0.1,4.3-2.2,6.5-6.6,6.5C308.5,634.9,302.1,634.9,295.8,634.9z M314.8,419.7c0.2,0,0.6,34.1,0.6,51.1c0,4.2,2.7,7.1,6.8,7.1
		c8.6,0.1,17.2,0.1,25.7,0c3,0,5.5-1.3,6.4-4.1c1.1-3.3,2.2-6.7,2.2-10.1c0.2-24.6,0.7-49.2-2.4-73.6c-0.9-6.9-2.5-13.9-4.9-20.5
		c-2.8-7.7-8.6-11.7-17.3-11.7c-10.1,0.1-17.1,7.7-17,17C314.9,389.9,314.8,404.8,314.8,419.7z"/>
	<path class="st1" d="M541.4,401.1c-4.2,0-8.5,0-12.7,0c-8.4,0.1-11.2-4.8-12.1-11.1c-0.8-5.6-0.8-11.2-1.3-16.8
		c-0.5-5.9-2.5-10.7-7.3-11.7c-10.2-2.1-20.2-2.3-28.8,4.8c-5.3,4.4-7.5,10.3-8.1,16.8c-1.2,13.4,3.4,25.1,12.1,34.8
		c9.5,10.7,19.8,20.7,30.2,30.5c16.1,15.2,32.8,29.9,45.5,48.4c9.2,13.4,15.6,27.9,18.2,43.9c1.7,10.6,1.5,21.2,0.2,31.9
		c-1.9,14.9-6.1,28.8-14.6,41.3c-10.9,16-26.3,25-44.8,29.4c-11.1,2.7-22.3,3.3-33.5,2.3c-20-1.8-35-11.6-44-29.9
		c-4.7-9.6-7.6-19.7-8.5-30.3c-0.7-8.5-0.8-17-1.3-25.6c-0.3-5.4,3.2-7.2,7.2-7.3c9.6-0.2,19.2-0.3,28.7,0
		c7.9,0.3,12.5,5.2,13.8,13.6c1.1,6.9,1.8,13.9,3.6,20.6c2.2,8.5,6.3,11.1,15,11.2c16.5,0.2,26.1-10.9,28.2-25.4
		c2.9-20.8-4.5-38.7-15.8-55.5c-6.9-10.2-15.9-18.3-25.5-25.9c-19.2-15.3-37-32-49.5-53.5c-6.2-10.6-10.2-21.9-11.7-34.2
		c-2-16.1-1.4-31.8,4.8-46.9c9.8-23.7,27.7-37.9,52.4-43.9c15.4-3.7,30.9-3.7,45.9,1.8c17,6.2,27.1,19,32.8,35.7
		c2.8,8.4,4.3,17,4.9,25.9c0.4,5.9,1.1,11.8-0.7,17.7c-1.7,5.7-3.8,7.4-9.7,7.4C550.3,401.2,545.9,401.1,541.4,401.1
		C541.4,401.1,541.4,401.1,541.4,401.1z"/>
	<path class="st1" d="M789.2,445.3c2.4,0.2,4.4,0.4,6.4,0.5c7.9,0.4,15.9,0.5,23.8,1.3c5.3,0.6,7.1,2.9,7.5,8.1
		c0.7,9,1.2,18.1,1.7,27.2c0.3,4.6,0.3,9.3,0.7,13.9c0.2,3.3-1.3,5.4-4.3,5.9c-4,0.7-8.1,1.2-12.2,1.3c-5.5,0.2-11.1,0.1-16.7-0.2
		c-2.2-0.1-3.5,0.7-3.9,2.7c-0.6,3.2-1.6,6.5-1.7,9.7c-0.2,14.6-0.2,29.3,0,43.9c0,4.4,0.5,8.8,1.1,13.2c0.9,6.8,4.2,8.4,10,8.5
		c8.9,0.1,17.7-0.6,26.6-0.8c4.5-0.1,9.1-0.1,13.5,0.5c4.8,0.6,7.4,4.3,7.4,9.1c0,11,0.1,22-0.1,33c0,2.3-0.7,4.8-1.6,6.9
		c-1.3,3.2-3.7,4.9-7.5,4.9c-30.4-0.1-60.8-0.1-91.2,0c-3,0-4.6-1-5.3-3.7c-0.7-2.9-1.5-5.9-1.5-8.8c-0.5-16.8-0.9-33.7-1.3-50.5
		c-0.6-21.6-1.3-43.2-1.8-64.7c-0.7-33.9-1.4-67.8-1.9-101.7c-0.3-22.7-0.4-45.4-0.4-68.1c0-4.5,0.5-9.1,1.2-13.5
		c1-6.9,5-10.6,11.8-10.6c20.8,0,41.6,0.2,62.4,0.5c9.4,0.1,18.7,1,27.7,3.7c1.4,0.4,2.8,1.1,4.2,1.7c2.5,1.2,3.6,3.1,3.6,6
		c-0.1,10.9-0.1,21.8-0.1,32.7c0,4.6-2.8,7.5-7.4,7.4c-13.9-0.3-27.8-0.8-41.8-1.1c-1.2,0-2.4-0.1-3.6,0c-6.2,0.6-9.1,3.3-8.9,9.5
		c0.3,12.2,1,24.4,1.5,36.6c0.3,6,0.5,12.1,0.9,18.1C788.3,433.9,788.8,439.4,789.2,445.3z"/>
	<path class="st1" d="M670.1,600.1c0,6.2,0.4,12.3,0.3,18.5c-0.1,3.6-0.5,7.2-1.2,10.7c-1.1,5.4-4.3,7.8-11.4,8
		c-9.1,0.3-18.2,0.2-27.3,0c-4.4-0.1-7.9-3.4-7.9-8.4c-0.3-32.2-0.8-64.4-1.2-96.6c-0.4-26.3-0.8-52.7-1.2-79
		c-0.4-27.6-0.9-55.1-1.4-82.7c-0.1-3.1-0.2-6.3-0.3-9.4c-0.1-5.5-2.3-7.9-7.8-8c-8-0.3-15.9-0.4-23.9-0.6c-2.1-0.1-4.2-0.3-6.3-0.7
		c-3.7-0.7-6.2-3.2-6.3-7.1c-0.4-10.3-0.8-20.5-0.5-30.8c0.1-5.1,2.9-9.9,10.7-9.9c27.4,0.1,54.7-0.4,82.1-0.4
		c10.7,0,21.4,0.6,32,1.1c5.7,0.2,8.3,3.2,8.3,8.7c0,10.9,0,21.8,0,32.7c0,3.9-1,5.6-4.6,6.8c-1.8,0.6-3.7,1.1-5.6,1.2
		c-6.3,0.5-12.7,1-19,1.2c-6.6,0.2-8.2,4.3-8.3,8.9c-0.1,3.9,0,7.9,0,11.8c0,38.8,0,77.5,0,116.3C669.6,492.5,670,564.2,670.1,600.1
		z"/>
</g>
</svg>
