<svg id="Layer_1" data-name="Layer 1" xmlns="http://www.w3.org/2000/svg" viewBox="0 0 1190 1190"><defs><style>.cls-1{fill:#3a363d;}.cls-2{fill:#fff;}</style></defs><title>RouheaJoulu</title><circle class="cls-1" cx="595" cy="595" r="595"/><path class="cls-2" d="M552.77,769c.53,1.37,1.75,1,2.79,1.12,1.52.16,3.05.36,4.74.57-1,1.34-1.91,2.3-2.59,3.37a1.7,1.7,0,0,1-1.94.88c-1.64-.21-3.33-.39-5.06.83,1,.76,1.79,1.44,2.65,2a4.92,4.92,0,0,1,2.17,6.06c-.16.53-.25,1.48,0,1.64a3.49,3.49,0,0,0,2.12.46c.75-.1,1.05-.71.79-1.58a6.2,6.2,0,0,1,0-1.82,16.65,16.65,0,0,1,2.27,1c.24.15.15.77.35,1.09a19.13,19.13,0,0,0,1.19,1.67,16.14,16.14,0,0,1,2.37-2.57c2-1.39,2.06-1.31,3.31.86.49.87,1,1.3,2.12.82.84-.34,1.94,0,2.85-.24a6.37,6.37,0,0,0,1.79-1.23l-1.64-1.4h0a8.31,8.31,0,0,1,.7-.95c1-1.1.65-1.48-.69-1.42l0,0c1-.86,2.72-.36,3.43-1.88.1-.21,1.23.08,1.88.14a9.24,9.24,0,0,0-.79,1.53c0,.12.61.64.69.59.38-.25.93-.62.94-1s-.48-.82-.75-1.23c.46-.18.95-.54,1.38-.49s.76.62,1.2.81a2,2,0,0,0,3-2.2,12.72,12.72,0,0,0-.43-1.72,12,12,0,0,1,8.67-1.44c-.59,1.07-.56,2.28-2.27,2.34-.58,0-1.18,1.37-1.58,2.2-.07.12.85.73,1.31,1.12h0a8.51,8.51,0,0,0,0,2.06,12.12,12.12,0,0,0,4,.44c.31,0,.73-1.51.66-2.28a9,9,0,0,0-1.13-2.58c1-.71,2.93-.81,2.58-2.87,0-.19.78-.72,1.22-.74.94,0,1.53-.34,1.59-1.34s-.26-1.58-1.35-1.4-2.26.44-3.63.71c1-4.1,3.17-6.32,7.1-6.67.58,0,1.59-.59,1.59-.89,0-1.65,1.29-1.77,2.28-2.29h0c.89.5,2,1.58,2.62,1.37,1.27-.4,1.63-1.78,1.37-3.28l-3.4,1.31h0c0-.38-.24-1-.07-1.1,1-.8,2-2.07,3.08-2.09,2.06,0,2-1.15,1.92-2.48,0-.4-.12-.8-.1-1.19a2.31,2.31,0,0,1,3-2.26c1,.22,2.08.33,3.12.48,1.41.19,2.49.82,2.61,2.33s.41,2.24,2.15,1.88c.86-.19,1.91.22,1.37,1.52-.47,1.13.25,1.45,1,1.71,1,.34,2.09.61,3.15.87s1.74.85,1.31,2.1a10.88,10.88,0,0,0-.27,1.16c-.53,2.49-.44,2.72,1.68,4.16.73.49,1.49,1,2.23,1.42-1.67,2.76-1.66,2.76-4.75,1.75a3,3,0,0,0-1.16-.13,3.3,3.3,0,0,0-1,.42,5.38,5.38,0,0,0,1.08,1.1c1.1.59,1.29,1.26.63,2.38a4.07,4.07,0,0,0-.25,2c.09,2.56-.3,4.9-2.25,6.83-.49.48-.53,1.42-.74,2.16-.32,1.11-.65,2.22-.88,3.34-.35,1.7-1.13,2.54-3,2.31-.72-.09-2.2.32-1,1.82a1.43,1.43,0,0,1-.13,1.42c-3,2-2.95,5-2.7,8,.15,1.71.06,3.12-2.17,3.74,1.74,1.78,2.1,3.47.41,5.27-.31.33-.17,1.07-.22,1.63s.1,1.25-.19,1.52c-1.4,1.3-.84,2.45.09,3.63.12.16.28.29.4.44.48.59,1.38,1.31.42,2-1.14.76-1-.82-1.53-1.19l-.68-.41c-.85.86-2.09,2.06-1.38,3,.58.81,2.37.72,3.73,1.06.1,1.8.1,1.77-1.81,1.56a8,8,0,0,0-1.61.13c.29.56.57,1.14.9,1.68.09.15.34.19.48.33,2.32,2.22,4.62,2.24,7.46.65A42.62,42.62,0,0,0,629.89,820c2.19-2.29,4.25-4.7,6.56-6.85,1-.9,2.4-1.27,3.63-1.86.52-.25,1.38-.3,1.55-.68.35-.79.33-2.49.47-2.5,1.33,0,1.75-.68,1.85-1.83,0-.28.16-.73.34-.78,2.14-.59,2.87-2.73,4.45-3.9.81-.59,1-1,.68-1.9a2,2,0,0,1,.3-1.74c4-3.11,5.83-7.66,8.09-11.91,2.5-4.71,4.56-9.66,8.63-13.38a6.47,6.47,0,0,0,1.74-3.32c.6-2.72,1-5.44,3.41-7.3.15-.12.33-.31.33-.47-.07-4.34,3-7.68,3.76-11.74.07-.39.19-.77.26-1.16.63-3.37,3.33-4.65,6.31-2.95a15,15,0,0,1,2.15,1.58c1,.88,1.82,1.94,3.52,1.87.74,0,1.55,1.18,2.32,1.84-.27.94-.5,1.89-.81,2.82-.92,2.75-.52,3.62,2.21,4.71.36.14.7.31,1,.46-.1.77-1.6,1.43,0,2.14.31.13.52,1,.45,1.41a3.92,3.92,0,0,1-.76,1.9c-2.24,2.7-2.61,6.09-3.52,9.27-.29,1,.08,2.14-.07,3.19-.53,3.5-.59,3.51-4.22,3.57a7.18,7.18,0,0,1,.81,1.8,1.93,1.93,0,0,1-.43,1.42c-1.21,1.38-1.23,1.49.25,2.2.76.37,1.55.69,2.94,1.31-1.56.27-2.67.14-3.24.64s-.78,1.75-1.28,2.57-1.75,1.73-1.85,2.67,1.25,1.78,1.35,2.75a19.55,19.55,0,0,1-.07,6.39,3.26,3.26,0,0,0,.64,2.92c1.26,1.91,2.47,3.75,1.92,6.3-.16.77.63,1.78,1.09,2.64.68,1.27,1.81,2.36,1.09,4.07-.15.34.28,1.17.66,1.43a4.43,4.43,0,0,1,1.83,3.84,19.79,19.79,0,0,0,.53,2.61c.22,1,.49,1.91,1.75,2.09a1.78,1.78,0,0,1,1.25.71c.94,1.93,2.25,1.39,3.7.76,2.07-.91,4.24-1.52,5.88-3.3.62-.68,2.07-.58,2.7-1.25s.45-1.92.93-2.74a8.94,8.94,0,0,1,1.94-1.7c1-.93,2.8-1.49,1.85-3.5a1,1,0,0,1,.27-.72,1.46,1.46,0,0,1,1,.33,7.34,7.34,0,0,1,.48,1.32c.25.56.65,1.57.87,1.53a3.42,3.42,0,0,0,1.86-1,1.94,1.94,0,0,0,.28-2.84c-1.15-1.65.41-4.14,2.44-4.29.86-.06,1.72-.28,2.8-.47.11.58.22,1.21.33,1.83-2.27-.6-2.27-.6-3.65,1.4,2.58.55,2.58.55,3.67-1.37a2.06,2.06,0,0,0,1.34-2.35,13.1,13.1,0,0,1-.08-3.25c.19-1.85,1.78-2.66,3.13-1.45s2.45,1.71,3.86,0c.51-.64,1.74-.71,2.74-1.08-.28-1.63-1.76-1.43-2.72-1.87-2-.92-2.08-1.7-.4-3.14,1.05-.9,2-1.92,3.08-2.78.58-.45,1.41-1,2-.93,1.64.35,2.1-.66,2.64-1.76.64-1.3,1.1-2.8,3.46-2.56a11.29,11.29,0,0,0-1-1.21c-1.52-1.22-1.54-1.61-.55-3.07.64-.94,2.81-1.48,1-3.24-.06-.06,0-.39.15-.48,2.21-1.72,1.26-3.78.67-5.81a2.11,2.11,0,0,1,0-1.1c2.16-.67.33-3.77,2.64-4.31a5.8,5.8,0,0,0,.76-.33,21,21,0,0,1-1.2-2.81c-.29-1.18.48-2,1.21-2.85s.75-2.47,2.17-3c.1,0,.16-.34.16-.52-.1-2.89.43-3.8,3.13-5.3,0-.78-1.65-1.45-.21-2.41a1.48,1.48,0,0,0-.33-1.2c-1.42-.88-.53-1.7-.41-2.84a4.73,4.73,0,0,1,2.56-3.76,4,4,0,0,0,1.76-3.56h0l.06-1.39-.65.79h0c-.28-1.65.17-2.3,1.5-2,.47.09.87.47,1.34.58a.85.85,0,0,0,.75-.3c.13-.17.07-.53,0-.79a.79.79,0,0,0-.38-.44c-2.86-1.21-2.57-3.68-2.43-6.08.07-1.19.39-2.11,1.92-2a5,5,0,0,0,1.71-.56l-1.59-.94-.62-.41c.65-1.27,1.33-2.56,2-3.87a22.75,22.75,0,0,0,1.26-2.92c.58-1.87,2-3.14,3.14-4.63.28-.37.91-.92.84-1-1.48-2.16,1.24-3.35,1.17-5.17,0-.27.15-.72.34-.79,3-1.07,4-5.28,8-5a2.54,2.54,0,0,0,.12-5c1-1.13,1.72-2.54,2.9-3.26s2.9-.88,4.55-1.33c-.86-.69-1.48-1.85-2.85-.62a1.39,1.39,0,0,1-2.26-.26c-.21-.64.47-1.71,1-2.41.29-.39,1.14-.32,1.62-.64a5.24,5.24,0,0,0,1.6-1.47,3.56,3.56,0,0,1,4.1-1.31c.39.17,1.06.55,1.12.47a3.09,3.09,0,0,1,3.14-1.12c.13,0,.47-.46.43-.66s-.3-.79-.55-.85c-.95-.23-1.93-.33-2.91-.47h0c.9-1.4,1.87-2.76,2.7-4.2,1.74-3.08,5.07-3.3,7.1-.35a4.74,4.74,0,0,0,2.81,2.11c1.57.49,2.19.35,3.15-.82s2.25-1,2.2.38c-.09,2.31,1.29,2.3,2.86,2.29h0c-.2,1.84,1.12,2.32,2.77,2.71-.34.47-.58.74-.76,1-.73,1.29-3.44,1.46-2.42,3.64.65,1.38,2,2.46,3,3.75-.16.21-.39.52-.65.81-1.95,2.24-1.92,2.21.1,4.37a4.32,4.32,0,0,1,.67,1.8,9.31,9.31,0,0,1,.31,2,18.53,18.53,0,0,1-.07,2.47c0,.38-.27.73-.29,1.11-.09,1.53-1.17,7.12-1.78,8.07a25.62,25.62,0,0,1-2.24,2.62L804,723a12.82,12.82,0,0,1-1.17,1.26c-1.94,1.6-1.94,1.59-.69,3.76L799,729.33c0,.19,0,.32,0,.37,2.44,2.48,2.36,2.43.51,5.46-1.44,2.35-2.63,4.84-4,7.27-.89,1.62-1.39,3.51-3.19,4.54-.32.18-.43.94-.43,1.44,0,.87.22,1.74.18,2.61,0,.47-.37,1.3-.64,1.33-1.87.19-1.92,1.8-2.36,3-.88,2.38-1.29,5-3.89,6.34-.52.28-.79,1.08-1.13,1.67-1.82,3.17-3.71,6.3-5.37,9.55-.78,1.53-2.22,1.68-3.44,2.35.7,2-1.14,2.43-2.18,3.31-.6.5-1.32.88-2,1.33-1,.68-2.11,1.2-1,2.78.28.39-.28,1.65-.74,2.31-1.46,2.09-3,4.1-4.6,6.12-.29.36-.78.57-1.12.91-.89.87-1.77,1.75-2.61,2.67-.4.43-.59,1.2-1,1.39-2.07.87-2.24,3-2.53,4.57-.34,1.86-.92,2.85-2.55,3-1,1.63,1.57,2.06.78,3.67a14.24,14.24,0,0,0-.76,3.81,10.18,10.18,0,0,0-3.94,1c3.51,1.7,3.56,1.68,3.94-1a1.52,1.52,0,0,1,.83,2c-.5,1.74-.42,3.3,1.39,4.38a1.56,1.56,0,0,1,.15,1.49c-1,1.17-1.47,2.89-3.46,2.94-.37,0-.72.69-1.09,1.06.4.39.79,1.06,1.21,1.09a6.12,6.12,0,0,0,2.1-.58,9.07,9.07,0,0,1,1.51-.59,1.09,1.09,0,0,1,.93.46,1,1,0,0,1-.34.94c-1.7.92-1.12,1.44-.16,2.8,1.08,1.52,3.51,2.6,2.71,5.19-.06.19.19.6.41.74,2.39,1.56,2.45,4.26,3.35,6.57a6.27,6.27,0,0,0,2,2.76,32.48,32.48,0,0,0,5.17,2.85,2.32,2.32,0,0,0,1.89-.15c3-1.84,5.92-3.85,8.94-5.66,3.27-2,5.8-4.74,8.37-7.47.64-.68,1.13-1.48,2.15-.58-.15.24-.44.5-.42.71a2,2,0,0,0,.51.89c0,.06.33-.06.5-.09-.09-.34-.17-.68-.29-1a2.74,2.74,0,0,0-.29-.49,9.58,9.58,0,0,0,1-1.45,1.74,1.74,0,0,1,1.66-1.24c2.42-.27,3-1.08,3.39-3.49a6.38,6.38,0,0,1,.47-1.67c.78-1.76,1.62-3.5,2.43-5.24h0c2.61,1,3,.83,4.62-1a3.07,3.07,0,0,1,1.41-.69,17.68,17.68,0,0,1,1.9-.38c-1.79-2-3.37-.81-5-.27h0c.41-2.35,2.22-2.74,4.15-3l.64.82.2-.19-.83-.64c.78-.39,1.59-.73,2.33-1.19a2.28,2.28,0,0,0,.31-3.88c-.55-.49-1.63-.65-1.16-1.68s1.21-2.06,2.71-1.66a5.56,5.56,0,0,0,1.16.09h0c-.35.79-.61,1.61.64,1.75.88.09,1.77,0,2.85,0-.17-.92-.32-1.74-.51-2.82l1.75.47c-.13-.74-.18-1.41-.36-2-.27-1-.55-1.8.4-2.7a2.74,2.74,0,0,0,.33-2.18c-1-4.57.33-8.83,1.51-13.13a2.61,2.61,0,0,1,2.24-2.06,2.21,2.21,0,0,0,1.89-2.31,16,16,0,0,1,.62-3.49,4.81,4.81,0,0,1,1.22-2.2,5.28,5.28,0,0,0,2.12-3.79c.06-3.62,1.93-6.61,3.06-9.85.72-2.06,1.69-4,2.31-6.11a23.09,23.09,0,0,0,.79-4.9c.17-2.11,1.29-3,3.36-2.41a12.29,12.29,0,0,0,2.55.39c1.64.08,2.64.69,2.86,2.32.2,1.45.49,2.24,2.19,1.83.83-.2,1.5.34.68,1.16s-.46,1.23.29,1.52c1.29.5,2.62.89,3.95,1.28,2.22.65,2.24.65,1.79,2.83-.08.38-.23.76-.32,1.14a2.67,2.67,0,0,0,1.33,3.28c.94.53,1.82,1.17,2.73,1.76-1.64,2.77-1.63,2.74-4.73,1.76a9.94,9.94,0,0,0-2.38,0c.68.73.94,1.17,1.33,1.38,1.09.59,1.32,1.25.65,2.38a3.85,3.85,0,0,0-.25,2c.08,2.56-.32,4.89-2.25,6.84-.53.54-.55,1.61-.75,2.45a21.22,21.22,0,0,1-.4,2.3c-.8,2.29-2.06,4.05-5.81,3.1,1.7,1.87,2.16,2.89.47,4a4.78,4.78,0,0,0-2,4.41,18.26,18.26,0,0,0,0,2.67c.34,1.84.11,3.32-2.13,4,1.64,1.72,2.12,3.33.46,5.06a1.61,1.61,0,0,0-.4,1.32,2,2,0,0,1-.53,2.56c-.39.39-.13,1.66.12,2.44.2.61,1,1,1.26,1.62.18.4-.06,1-.12,1.5a8.33,8.33,0,0,1-1-.7,11.31,11.31,0,0,1-1-1.11c-.34.3-.65.45-.73.68-.32.87-.56,1.78-.83,2.67.93.17,1.86.29,2.77.51.48.11,1.29.37,1.3.59,0,.8-.21,1.55-1.36,1.47-.78-.06-1.88-1.12-2.25.13-.14.48,1,1.42,1.69,2.07,2,2,4.1,1.81,6.68.6,6.67-3.12,11.51-8.34,16.36-13.56a8.72,8.72,0,0,1,4.08-2.72c2.42-.71,2.41-.75,1.65-3.3,1-.32,2.76.16,2.63-1.82,0-.26.16-.72.34-.77,2.13-.6,3-2.6,4.4-4,.37-.36,1-1.08.86-1.25-1-1.59,0-2.26,1.09-3.08a7.44,7.44,0,0,0,1.93-2.21c2.55-4.46,5.08-8.94,7.53-13.45a31.54,31.54,0,0,1,6-8.43,7.16,7.16,0,0,0,2.25-4.38c.38-2.41.94-4.86,3-6.53.22-.18.55-.45.54-.67-.23-3.77,2.38-6.62,3.23-10,.23-1,.6-1.89.79-2.86.63-3.27,3.37-4.6,6.39-3a11.66,11.66,0,0,1,2.08,1.66c1,.89,1.81,1.94,3.51,1.87.75,0,1.55,1.19,2.33,1.84-.27.94-.51,1.9-.82,2.83-.92,2.74-.51,3.65,2.23,4.71l.86.35c.61.66-1.65,1.63.2,2.25.28.1.5,1,.43,1.41a4,4,0,0,1-.77,1.91c-2.2,2.73-2.56,6.15-3.53,9.32-.41,1.35-.12,2.91-.37,4.33-.41,2.28-.49,2.26-2.9,2.18a2.29,2.29,0,0,0-.58.06c-.09,0-.16.11-.41.31l1.56,2.46a5.16,5.16,0,0,1-.54.5c-.47.3-1,.57-1.45.85a7.64,7.64,0,0,0,1.24,1.45,9,9,0,0,1,2.06,1.43,4.74,4.74,0,0,1-1.12.08c-1.24-.23-1.85.48-2.24,1.48-.5,1.24-.46,2.78-2.12,3.35a2.29,2.29,0,0,0,.14,1.75,3.52,3.52,0,0,1,.91,3.77c-.46,1.84.68,3.66-.21,5.51-.2.42.58,1.38,1,2,1.2,1.84,2.29,3.61,1.83,6-.17.87.67,2,1.18,2.9.65,1.21,1.63,2.24,1,3.83a1.64,1.64,0,0,0,.59,1.45,4.47,4.47,0,0,1,1.87,3.82,18.54,18.54,0,0,0,.59,2.91c.2.91.53,1.69,1.64,1.82.37,0,.9.23,1,.51,1.27,2.57,3.07,1.35,4.74.68a12.85,12.85,0,0,0,5.07-3c.62-.67,2.12-.56,2.71-1.24s.58-2.08,1.09-3c.35-.63,1.18-1,1.77-1.47,1.07-.91,2.84-1.45,1.88-3.48-.08-.18.17-.74.26-.73.35,0,.91.08,1,.29.25.59.12,1.41.47,1.88a2.47,2.47,0,0,0,1.75,1c1.14-.15,2.15-2.66,1.39-3.53-1.11-1.26-.29-2.15.14-3.22a1.92,1.92,0,0,1,2.5-1.39,7.29,7.29,0,0,0,2.49-.52c.12.63.23,1.26.34,1.89-2.27-.61-2.27-.61-3.65,1.4,2.58.54,2.58.54,3.67-1.38a2.06,2.06,0,0,0,1.35-2.35,13.09,13.09,0,0,1-.09-3.25c.17-1.72,1.66-2.64,2.89-1.61,1.75,1.49,3,1.35,4.55-.2.47-.47,1.45-.44,2.27-.67-.16-1.6-1.5-1.48-2.39-1.86-2.39-1-2.51-1.73-.47-3.39.23-.18.54-.32.68-.56,2.21-3.79,5.83-2.83,9.17-2.69.45,0,1.3.66,1.26.82-.47,1.73.71,2,1.88,2.39.49.18.83.75,1.43,1.32a29.28,29.28,0,0,1-4.38,2.42c-1.43.49-1.83,1.23-1.11,2.37s.36,1.91-.42,2.86a13.42,13.42,0,0,0-1.64,3.09c-.57,1.28-1.22,2.16-2.87,2a5.5,5.5,0,0,0-2.55.61c-2.06.9-2.32,2.17-.67,3.79a2.12,2.12,0,0,1,.52,2.86,19,19,0,0,0-1.11,3,3.77,3.77,0,0,1-5.47,2.59c-1.26-.57-2.42-1.46-3.7,0-.81.93-1,1.68.19,2.39.34.2.72.35,1,.57,1.68,1.14,1.69,1.93.08,3.1s-3.48,2-4,4.11l0,0c-.53.56-1.48,1.09-1.53,1.68-.19,2.66-2,2.51-3.81,2.47h0c.68-1.33.1-1.77-1.22-1.82a8,8,0,0,0-7.58,5.76c-.69,2.18-1.47,2.43-3.19,1-2.62-2.17-2.81-2.28-5.59-.55-1.55,1-1.71-.67-3-1,.87-.32,1.45-.37,1.69-.67a1.62,1.62,0,0,0,.27-1.39c-1.14-1.73-2.65-1.75-5.35-.05-.44-1.47-1.24-2.18-3-1.68a5,5,0,0,1-3.09-.58,23.56,23.56,0,0,1-3.75-2.35,3.25,3.25,0,0,1-.86-1.38c-1-2.33-1.24-2.49-3.29-2-1.55-2.2-2.92-4.36-4.53-6.32-.93-1.13-1.67-2.18-1.52-3.69a.71.71,0,0,0,0-.29c-.54-2.06-.92-4.06,0-6.18.29-.7-.15-1.73-.33-2.6a2,2,0,0,0-2.41-1.65c-1.17.09-2.34.21-3.51.19-1.85,0-1.84-.09-1.09,1.68a1.22,1.22,0,0,1,0,1c-.33.48-.79,1.19-1.23,1.22-2.41.16-3.17,2.55-5,3.52a3.8,3.8,0,0,0-2.29,3.22c-.08,1.52-1.58,1.82-2.81,2.2-.82.24-2.1.28-2.35.8a7.38,7.38,0,0,0-.41,3.45c.06.73.86,1.56-.21,2-.43.18-1.24-.23-1.71-.6-.7-.54-1.08-.6-1.68.15a14.59,14.59,0,0,1-2.17,1.81c.51.44.89.83,1.33,1.14s.86.5,1.87,1.07l-6.46,2.56.71,2.44-5.5-1.22c-.6,1.72-1.22,3.53-1.92,5.55a2.89,2.89,0,0,1-.85-.37c-1-.81-1.57-.65-1.94.55-.11.38-.29.74-.4,1.12-.42,1.43-1.52,2.08-2.71,1.35-1.9-1.15-3.85-.37-5.76-.57-.25,0-.79.37-.78.56,0,.78-.07,1.49-1,1.4a6.87,6.87,0,0,1-2.11-.69c-.5-.22-.94-.83-1.4-.81-1.63,0-2.36-.37-1.49-2.08a.82.82,0,0,0-.18-.78c-2.52-2-4-4.83-6.25-7.06s-3.77-5.73-5.55-8.68a2.14,2.14,0,0,1-.43-1.39c.62-2.15-.91-3.58-1.66-5.24-.62-1.38-2.88-2.41-4.53-2.25s-2.17,1.47-2.42,2.91l0,0c-2.21.29-.81,2.76-2.16,3.57.26,2.14-1.35,2.47-3,3.28l3.61,1.85L811.22,830l1.12,1.44a4.64,4.64,0,0,1-1.21.17c-1.07-.18-2.12-.44-1.58,1.31.07.2,0,.61-.16.68-2.14,1.08-3.79,2.88-5.72,4.24a25,25,0,0,1-6.68,3.25.92.92,0,0,0-.49.31c-.23.4-.4.83-.6,1.25.42.16.88.51,1.26.43,1.45-.28,2.87-.69,4.3-1.06h0c-.32.65-.74,1.9-.94,1.87-1.64-.29-2.17.74-3,1.81a3.84,3.84,0,0,1-4.25,1.41c-.9-.26-2-.61-1.31,1.11.06.16-.37.58-.64.79a18.45,18.45,0,0,1-2.38,1.57c-.44.23-1.25.4-1.49.18-1-1-1.86-.54-2.57.21-1,1-2,.9-3.24.69a61.78,61.78,0,0,0-7.06-.68c-1.6-.09-3.15,0-4.29-1.49-.23-.3-.91-.3-1.4-.34-1.32-.09-2.72.82-4-.29-1.86,1.66-3.56-.1-5.33-.26a3,3,0,0,1-2.91-2.46c-.52-1.9-1.59-3.36-4.06-2.51-.5.17-1.27-.33-1.87-.61-1.15-.55-2.25-1.19-3.39-1.76-1.76-.88-1.78-1.4.06-2.76a11.63,11.63,0,0,0-1.7-.63c-1.27-.25-1.94-.81-1.72-2.24a2,2,0,0,0-.58-1.48,7.84,7.84,0,0,1-2.84-6.1c0-2-1.26-4-1.91-6.08a7.75,7.75,0,0,1-.35-1.91c-.09-1.53-.56-2.71-2.25-3h0a1.76,1.76,0,0,0-.11-.58c-.56-.91,0-2.43-1.66-2.79a5.55,5.55,0,0,0-4.45,1.05,1.7,1.7,0,0,0-.09,2.95c1.6,1.22,1.37,2.37.53,3.81a8.14,8.14,0,0,0-.72,1.93q-1.35,4.89-5.88,2.89c-2-.9-2.56-.81-3.59.46-.62.77-.61,1.42.23,2,.49.32,1.06.54,1.53.88,1.3.95,1.32,1.85,0,2.78-1.66,1.18-3.64,2-4.22,4.26l0,0c-.53.56-1.49,1.09-1.53,1.68-.2,2.65-2,2.51-3.81,2.47h0c.67-1.33.1-1.77-1.22-1.82a8.05,8.05,0,0,0-7.59,5.76c-.68,2.18-1.46,2.43-3.18,1-2.62-2.17-2.75-2.19-5.61-.59-.86.48-.86.48-2.61-1.07.48-.18,1.06-.22,1.3-.53s.46-1.09.26-1.38c-1.13-1.73-2.64-1.75-5.34-.05-.44-1.47-1.24-2.19-3-1.69a4.88,4.88,0,0,1-3.09-.58,22.81,22.81,0,0,1-3.75-2.34,3.25,3.25,0,0,1-.86-1.38c-1-2.34-1.24-2.49-3.29-2-1.55-2.19-2.92-4.36-4.53-6.31a4.84,4.84,0,0,1-1.52-3.69,1.51,1.51,0,0,0,0-.3,9.42,9.42,0,0,1,0-6.18c.31-.78-.2-1.92-.43-2.87a1.76,1.76,0,0,0-2-1.37c-1.56.05-3.13,0-4.68.17a1.45,1.45,0,0,0-.86,1.13c.3,2.45.18,2.7-2.08,3.37a3.15,3.15,0,0,0-1.16.61c-.7.62-1.31,1.36-2,2-1.14,1-2.45,1.78-2.7,3.67-.11.78-1.63,1.46-2.6,2-.81.46-2.16.4-2.55,1-.51.83-.36,2.09-.43,3.16,0,.71.32,1.75,0,2.07-.95.86-1.52-.26-2.17-.79a2,2,0,0,0-.57-.2l-3,2.58c1,.67,1.83,1.26,3.11,2.12l-6.28,2.47.68,2.52-5.49-1.3-1.9,5.56c-.66-.27-1.51-.94-2-.74s-.83,1.21-1.14,1.9c-.84,1.81-1.45,2.31-3.17,1.32-1.89-1.08-3.71.05-5.5-.41-.16,0-.52.43-.67.72-.69,1.41-1.62,1.75-2.82.92-.3-.22-.45-.84-.73-.88-1.7-.26-3.65-.19-2.49-2.91,0-.07-1.26-.46-1.37-.85-1.14-4.21-5.64-5.67-7.47-9.33-1.53-3-3.85-5.62-3.56-9.5.11-1.34-1.43-3.3-2.75-4.17-2.62-1.73-3.08-4.24-3.39-6.9-.34-3-.5-6.08-.73-9.11,0-.2-.13-.5,0-.58,2.12-1.82.59-4.06.7-6.1.07-1.37,0-2.75,0-4.48-1.8,0-3.83-.49-5.41.14s-4.07.77-4.66,3.21c-.3,1.29-1.21,1.6-2.46,1.5-1.77-.13-3.55-.1-5.32-.14h0c.37-.72,1.94-.89,1.21-2-.27-.4-1.66-.26-2.44,0a7.72,7.72,0,0,0-2,1.32l3,4.08-.48.67-4.49-1.58c-.08.12-.29.36-.26.39.64.75,1.51,1.66.59,2.51a3.9,3.9,0,0,1-2.68.65,37.75,37.75,0,0,1-5.27-.83c-3.23-.68-6.22-.69-8.66,2.09-.52.6-1.6.66-2.33,1.12s-2.09,1.09-.76,2.41a1.24,1.24,0,0,1,.28,1c-.41,2.21-1.46,4.34-.69,6.66-1.21.83-.48,1.73-.24,2.73a1.45,1.45,0,0,1-1.58,1.74c-3.73-.15-4.58,3-6,5.27-.48.77-.25,2-.37,3.3-1.55.41-3.44.81-5.26,1.43a10.63,10.63,0,0,0-2.35,1.64,15.33,15.33,0,0,0-2.08-1.79,2.11,2.11,0,0,0-1.8-.27,2.64,2.64,0,0,0-1,1.86c0,.4.78.94,1.31,1.24,2.36,1.3,4.74,2.41,7.17,0,.15-.15,1.1.2,1.39.56,1.27,1.56,1.22,2.39.07,4.24s-2.26,3.45-4.71,3.61a3.41,3.41,0,0,0-2.21,1.31c-2,2.69-5.54,2.88-8,4.88-.72.58-2.3.13-3.48.12s-2.33-.14-3.48,0c-.5.05-1,.53-1.43.82.36.37.73.73,1.06,1.12.09.12,0,.36.07.54-2.49.21-5,.44-7.49.63-.72.05-1.26,0-1.38-1.06a4.69,4.69,0,0,0-1.16-2.25,1.4,1.4,0,0,0-2.29-.12c-1.81,1.65-3.93,1.55-6.05.73-1.9-.73-3.59-2.36-6.14-.75.09-1.46,1.45-3-.71-3.27a.31.31,0,0,1-.18-.23c-.13-.91.39-2.18-1-2.41a16.87,16.87,0,0,0-3.12.11c-.33-4.26-3.49-3.6-6.72-3.23.32-.61.46-.93.64-1.23.47-.8,1.55-1.92,1.33-2.31a4.51,4.51,0,0,0-2.6-2.19c-1.86-.34-2.22-1.28-2.13-2.87s.09-3.07-2.15-3.53c.56-.66.9-1.12,1.29-1.53.61-.66.63-1.42-.21-1.66-3.87-1.09-4.15-4.66-5.43-7.55a1.32,1.32,0,0,1,.73-1.94c.7-.35,1.45-.59,2.49-1-.55-.48-.92-1.06-1.33-1.09-1.71-.12-2.09-1.06-1.93-2.57s0-2.79.29-4.13c.43-2.11,1.21-2.37,3.11-1.29.31.18.61.39,1,.61.27-1,.49-1.8.75-2.72l-1.05-.57c-1-.52-2.95-1-2.94-1.56a9.17,9.17,0,0,1,1.26-5c1.11-1.57,2.34-2.65.5-4.43a3,3,0,0,1,1.14-1.61c2.72-1.11,3.32-3.65,4.16-6,.32-.89-.41-1.46-1.38-1.43-1.33,0-.78.7-.74,1.55a4.81,4.81,0,0,1-1.23,2.78c-.25.31-1.76.17-1.8,0-.53-2.08-1.85-1.24-3.05-.95-.82.2-1.66.35-2.42.51,0,.48-.08.75,0,.85,1.92,1.9,1.91,1.89.05,3.84a18,18,0,0,1-2.59,2.82,7.24,7.24,0,0,1-3.89,1.49c-1.12-.05-1.85.09-2,1-.09.49.68,1.18,1.13,1.72a6.55,6.55,0,0,0,1.24.86c-1.14,1.14-2.22,2.13-3.17,3.22q-2.33,2.67-4.51,5.45a3.63,3.63,0,0,1-3.47,1.73c-3.24-.26-4.13.88-3,3.77.65,1.7.35,2.85-1.09,3.82.05-1.41-.65-2-2-1.69-.26.06-.67.56-.62.77.32,1.28,1.27,1.27,2.3,1,.1,0,.2,0,.29-.05-.37.46-.64,1.13-1.12,1.35-3.45,1.63-4.67,5.25-7,7.84-1.35,1.47-2.13,3.46-3.23,5.18-.42.66-1.05,1.19-1.51,1.83a1.73,1.73,0,0,1-2.43.72c-.87-.34-2.05.14-3.18.27-.12,2,2,3.4.72,5.28-1,1.45-1.93,2.79-4.28,2.25,1.14,3,.36,5-1.53,7-1.32,1.38-2.66,3.11-.66,5.15a2.23,2.23,0,0,1,.3,1.68c-.45,2.92-.78,5.9-2.9,8.26a6,6,0,0,0-.9,1.53c-1.05,2.19-1.43,4.32.59,6.26.29.28.3.84.45,1.27a5.59,5.59,0,0,1-1.34.37,14.71,14.71,0,0,1-2.16-.29c1.12,2.26.14,4.63,1.76,6.5a1.61,1.61,0,0,1-.07,1.33,18.83,18.83,0,0,1-1.47,2.58c-.53.8-.85,1.41,0,2.32a4.05,4.05,0,0,1,.81,2.4,13.68,13.68,0,0,1-2.53,9.53c-.47.63-1,1.89-.66,2.33,1.12,1.68.25,2.6-1,3.45s-1.34,1.62-.44,2.7,1.5,2.28.08,3.47c.58,2.34-1.54,2.55-3,3.53.47.49.83.88,1.2,1.25,1.15,1.13,1.07,1.8-.3,2.38-.27.12-.58.12-.86.22-3.14,1.09-3.3,1.58-1.57,3.87-.85,1.41-1.65,2.68-2.37,4-1,1.76.47,2.72,1.62,4.09-2.21.36-2.66,2-3.11,3.68-.69,2.57-1.52,5.1-2.25,7.67-.16.55-.08,1.18-.21,1.75-.31,1.36,2.45,2.7-.28,4.27-1.12.64-1.93,2.23-3.86,2.56.58.81.87,1.28,1.23,1.68,1.38,1.54,1.43,2.73.16,4.44-2.22,3-2.14,4.21.51,6.83-.21,1-1.5,1.6-.69,3.13.6,1.15-.91,2-2,2.38-2.77.86-2.78.8-2.39,3.71a7.2,7.2,0,0,0-1.75.58c-1.05.67-1.85,1.51-1.11,2.94a31.66,31.66,0,0,0,1.57,3.44c.63.93.24,1.45-.28,2.07a36.59,36.59,0,0,0-2.44,2.89,1.89,1.89,0,0,1-2.3.76c-.45-.08-1,.31-1.5.49.35.52.69,1.49,1.07,1.5,2.07.08,2,1.81,2.7,3s.1,2-1.08,2.46c-.31-.85-.84-1.31-1.77-.89-.12,0-.13.32-.2.49l1.56.51a1.36,1.36,0,0,0,.29,0c-.83,1.24,0,2.43,0,3.64,0,1.06-1.18,2.1-1.69,3.22a7,7,0,0,0-.14,2.1c-1.34-.83-2.59-1.2-3.2,1.33-.38-1.11-.4-1.66-.68-1.91a3.52,3.52,0,0,0-1.87-1.07c-.47,0-1.21.75-1.38,1.31a24.45,24.45,0,0,0-.61,3.55l5.36.31c-.22,1-2.06,2.37.52,2.69,1.1.14,1.47,1,1.05,2s.16,2.81-1.81,2.93a5.8,5.8,0,0,1-1.18-.05c-.78-.14-1.33,0-1.6.87s-.28,1.56.55,2.07c.5.31,1,.6,1.74,1-1.46,1.23-2.48,2.49-2,4.41.08.34-.59.88-.94,1.3s-.8,1-1.2,1.44l1.89.63c-.27.44-.8,1-.85,1.52s.43,1,.78,1.49a1.9,1.9,0,0,1-.07,2.67c-.63.76-1.2,1.57-1.77,2.38a2.92,2.92,0,0,0-.43,3.32c.47.88,1,1.93,0,2.68s-2.38,1.85-4.06,1.29c-1.29-.43-2.61-.78-4-1.19a2.62,2.62,0,0,1,3.41-.07c.25.17.83-.14,1.26-.23a2.6,2.6,0,0,0-.34-1c-1.65-1.88-3.28-3.71-6.27-3-.95.22-2.07-.3-3.11-.53-.75-.16-1.6-.72-2.2-.51-1.75.62-2.79-.17-3.89-1.31a28.73,28.73,0,0,0-3.13-2.7,5.75,5.75,0,0,1-2.56-5.07,4,4,0,0,0-.07-1.77c-.89-1.78-1.73-3.44.31-5.07.21-.16-.07-1.13-.31-1.63-1.34-2.86-2.74-5.7-4.11-8.55-.33-.68-.65-1.36-1-2.23l3.38-.75a7.14,7.14,0,0,0-1.17-1.44,1.15,1.15,0,0,1-.42-1.74,1.43,1.43,0,0,0-.08-1.33c-1.48-1.44-1.1-3.27-1.26-5s-.57-3.42-.93-5.5l3.56-3.34c-1.18-1.07-2.37-2.22-1.91-4.14.06-.23-.77-.76-1.26-1a2.24,2.24,0,0,1-1.19-3,1.72,1.72,0,0,1,2.66-1,1.67,1.67,0,0,0,1.13.17c.43-.14,1-.45,1.12-.81s-.34-.81-.63-1.16a1.09,1.09,0,0,0-.78-.39c-2.69.17-3.56-2.4-5.67-3.32,1.38-1.44,3.82-1.79,3.1-4.16-.17-.54-1.27-.79-2.11-1.28.38-.44.9-1.08,1.48-1.68,2-2,3.16-4.35,2.48-7.24-.32-1.33.28-1.83,1.37-2.13a7.88,7.88,0,0,0,.87-.2c1.62-.65,1.78-1.38.53-2.54-.51-.47-1.57-1.17-1.5-1.29.78-1.46-.23-2.83-.08-4.12s1.56-1.85,3-1.82a4.37,4.37,0,0,0,2.14-.49c1.67-1,1.64-1.08.4-2.61-.29-.35-.77-.79-.72-1.12.3-1.88-1.05-2.36-2.79-2.92l2.22-1.45a3.45,3.45,0,0,0,1.88-3.87c-.26-1.86.88-3.7,2.45-5l.84-.68a31.68,31.68,0,0,1-3.14-3.44c-.19-.26.63-1.24,1-1.89l.67,1.3.74-.7-1.41-.6c.17-2.53.15-5.15,3.36-6.24a19.17,19.17,0,0,1-1.51-2.08c1-1,.61-2.92,2.46-3.41,1-.27,2.34-.9,1.64-2.55h0c.83-.31,1.7-.55,2.5-.93,2.19-1,2.32-2.81.31-4.18a7.39,7.39,0,0,0-1-.5c.41-2.42,1.36-4.18,3.82-5.16,1.89-.76,2.51-2.83,2.08-5.14,2.14.14,3.12-1.12,3.73-3a11.75,11.75,0,0,1,1.57-2.44c.4-.62.8-1.25,1.16-1.9.26-.48.34-1.14.72-1.46,1.09-.92,1.9-1.75.7-3.18-.62-.73,0-1.22.58-1.69,2.67-2.21,3.86-4.91,2.9-8.4a1.68,1.68,0,0,1,.51-1.46,16.8,16.8,0,0,1,3.35-1.78c1.56-.61,3.26-1,4.28-2.47.65-1,1.45-.71,2.37-.48,2.06.51,2.58.25,3.3-1.33.82-1.81.49-3.43-1.07-4.38-.6-.37-1.45-.49-1-1.4.34-.75.79-1.73,1.45-2,2.22-1,2.26-.86,2.3-3.51l2.14,3.34c1.33-2.78,2.48-5.15,3.59-7.54.12-.25.24-.66.12-.85a3.56,3.56,0,0,1,0-4.1c1.38-2.16,2.51-4.5,4.91-5.79a6.87,6.87,0,0,0,.67-.59c-1.47-.24-1.65-.93-1.52-2.25.16-1.69.17-3,1.78-4.25s1.19-2.62-.61-3.66c-.5-.29-1-.56-1.61-.89,2.47-1,2.46-1,1.38-3.59a2.25,2.25,0,0,1,0-1.06,11.35,11.35,0,0,0,.39-2.9c-.66-4.86,1.06-9.09,3.39-13.13.74-1.27.31-2.25,0-3.36a22.39,22.39,0,0,1-1.11-3.67c-.24-1.66.85-2.79,2.28-2.39.91.25,1.58.25,2-.56.55-1-.41-1.35-1-1.83-.3-.25-.61-.48-1.13-.88,1.14-1,1.65-2.12.9-3.48,2-1.49.22-5,4.05-5.67-1.68-.65-3.05-.8-3.21-1.32A4.52,4.52,0,0,1,420,775c1.32-1.86.64-4.47,2.63-6,.83-.65.08-1.33-.67-1.82-2-1.35-2.14-1.7-.84-3.7.8-1.24,1.28-2.15.2-3.64-.61-.87-.29-2.46-.26-3.72,0-1.67.36-3.34.27-5s-1.1-2.21-2.47-1.62a22.2,22.2,0,0,0-4.86,2.81c-2.17,1.7-4.11,3.7-6.22,5.49-5.46,4.63-4.36,4.08-9.63.44a18,18,0,0,1-5.74-7.45,2.23,2.23,0,0,1,.38-2.92c1.72-1.77,3.35-3.63,4.93-5.52a2,2,0,0,1,2.86-.56c1.14.56,2.42.44,2.39-1.08-.07-3.64,3.13-4.59,5-6.7.57.75,1,1.83,1.55,1.9a3.07,3.07,0,0,0,2.22-1.08,5.58,5.58,0,0,1,5.19-2.21,4,4,0,0,1,2.65,1.33,10.9,10.9,0,0,0,5.13,2.68,6.82,6.82,0,0,1,5.55,5.45,37.14,37.14,0,0,1,.65,6.76,10.48,10.48,0,0,0,1.16,3.85,62.65,62.65,0,0,1,2.81,9c.41,1.58-1.39.51-1.82,1.21,0,.2-.09.45,0,.57,3.1,3.92,1.83,8.52,2,12.88,0,.61-.54,1.23-.78,1.87-.56,1.44-1.3,2.83.63,4,.55.34.7,1.57.74,2.41.11,2.08,0,4.16.07,6.24.06,1.83-.05,3.54-1.48,4.93a3.49,3.49,0,0,0-.75,1.6,57.92,57.92,0,0,0-1.58,7.18,34,34,0,0,0,.2,6.45c0,.24,1.05.71,1.38.56a29.39,29.39,0,0,0,3.31-1.89c.83-.51,1.64-1,2.46-1.55-.29,2.6-.14,2.71,2.89,1.65l-2.82-1.73a6.2,6.2,0,0,1,1-1c1-.62,1.33-1.24.67-2.4-.53-.95-1.57-2.16-.42-3.18s2.2.16,3.23.62,1.88,1.6,3.19.67h0c.19.75.56,1.31,1.42.91.28-.13.42-.56.62-.86l-1.45-.65h0a12.27,12.27,0,0,0-1-1.09c-.87-.83-.52-1.4.41-1.71,1.56-.51,3.19-.82,4.71-1.41a20.85,20.85,0,0,0,3-1.74h0c1,.94,2,.58,3.07-.21l-1.69-1.61,7.05-6.24c-.47-.39-1.55-1-1.47-1.26.31-1,.37-2.42,2.15-2.26,1.61.14,2.55-1.1,3.74-2,1-.69,2.69-.21,3.89-.7,1.54-.63,2.9-2.89,3.66-5.14,1,.33,1.92.64,2.87,1a14,14,0,0,1,1.42.77,14.19,14.19,0,0,1-1.29.9c-.58.3-1.23.47-1.79.8-.14.08-.14.57-.05.81s.48.18.68.11.63-.54.66-.52c2.38,2.12,4.3-.39,6.43-.63a6,6,0,0,0,4.74-3c-.61-.94-2.45-1.44-1.7-3.19.05-.12-.44-.66-.73-.7a1.15,1.15,0,0,0-1,.42,17.74,17.74,0,0,0-.6,2.48c-1.61-.82-3-.29-4.23,1.19.74-1.92-.92-2.52-1.45-3.7.85-1.2,1.74-2.41,2.8-3.84-2.8,1.27-3,1.51-2.8,3.84-1.19.16-2.45,1.15-3.55-.18,3.81-5.21,8.76-6.39,14.63-4.15.35-.72.5-1.68,1-2,1.52-.83,2-1.94,1.27-3.42-.5-1.07.44-.76.79-1.06s1-.89,1-1.22a2.07,2.07,0,0,0-1.18-1.16c-1.43-.65-3.1.11-4.39,1.88l0,0a9.63,9.63,0,0,1-1.74-1.09,1.3,1.3,0,0,1,0-2.07,15.6,15.6,0,0,1,2.76-2.2,2.9,2.9,0,0,1,2.17-.08,9,9,0,0,1,2.09,1.48,3.59,3.59,0,0,0,.44-.36c-1.26-2.27-.49-4.28.73-6.26a15.05,15.05,0,0,0,.82-1.76c2.08-.2,4.09-.33,6.06-.67.3,0,.75-1.18.57-1.57a13.92,13.92,0,0,0-1.83-2.53c1.52-.94,2.91-1.83,4.31-2.69.68-.42,1.47-.74.79-1.79-.11-.16,0-.72.11-.74,1.69-.39,2.61-2.56,4.69-2.06l-.92,1.61c1.56-.85,1.56-.85.93-1.62,1.17-.69,2.33-1.38,2.37-3h0c.87,1.18,1.67,2.43,2.65,3.52.34.38,1.12.36,1.69.52a6.17,6.17,0,0,0,0-1.92c-.16-.51-.81-.85-1.07-1.36a1.17,1.17,0,0,1,1.11-1.83c1.05,0,2.1.29,3.34.34-1-.68-.47-2-.74-2.3-.71-.68-1.9-.84-3-1.25,1.7-1.12,3.22-2.2,4.82-3.13a5.73,5.73,0,0,1,1.9-.33h0c.37.62.61,1.62,1.11,1.77,1.93.58,3.61,1.35,4.27,3.43l2.94-2.84,0,0a1.56,1.56,0,0,0,.32,2.35c1.46,1,2.94,1.95,4.89,1.74,2.71-.28,5.39-.28,6.54,3,2.75,1.48,2.06,4,1.65,6.21a3.45,3.45,0,0,0,1.11,3.41,33.57,33.57,0,0,1,2.46,3.25,12.09,12.09,0,0,0,1-.71c.93-.81,1.12-1.61-.1-2.34a1.55,1.55,0,0,1-.47-.36,16,16,0,0,1-1-1.6s.49-.52.62-.46a3.81,3.81,0,0,1,1.63,1,8.37,8.37,0,0,1,1.29,2.65c.43,1.54.76,3,2.35,3.91a2.67,2.67,0,0,1,.92,2c0,2.85,1.6,5,2.91,7.22.92,1.6.61,3.11-.83,4.55a1.68,1.68,0,0,0-.22,1.39,9.11,9.11,0,0,0,1.18,1.9l-5.34.09c-1.23-1.11-1.23-1.11-3-.19Zm-44.52-22.12a3.35,3.35,0,0,0-2.84,2,3.41,3.41,0,0,0,2.86-1.94l.14-.16Zm267,8.28-1.14.8,1.66.69-.38-1.37,1.17-.7c-.17-.18-.34-.48-.53-.5C775.16,753.94,775,754.42,775.21,755.12Zm-51.64,67.23-.19-.13.14.19-.18.56c-.14.51-.27,1-.41,1.53l1.12.08c0-.6,0-1.21-.08-1.8C724,822.62,723.71,822.49,723.57,822.35ZM765.2,723c-.12-.26-.2-.7-.37-.74a9,9,0,0,0-1.56,0,14.61,14.61,0,0,0,.71,1.29c.08.13.35.14.53.2-.44,1.15.43,1.55,1.15,1.38.51-.12.82-1,1.23-1.59Zm24.92,6.54c-2.28.61-2.28.61-1.88,3.79,2.46-.32,1.88-2.2,2-3.73a12.73,12.73,0,0,0,2.47,0c.22,0,.29-.88.43-1.36a6.94,6.94,0,0,0-1.89-.26C790.42,728.12,789.7,728.52,790.12,729.58ZM585.57,783.72l1.14.77.34-.74-1.48,0a10.85,10.85,0,0,0-1.6-1.21,2.4,2.4,0,0,0-1.67-.4c-.62.27-1.07,1-1.59,1.47a4.84,4.84,0,0,0,1.66.62A23.35,23.35,0,0,0,585.57,783.72Zm191.48-14.89c-2.06.5-4.28.8-4.64,3.64a19.13,19.13,0,0,0,2.17-.24,3.35,3.35,0,0,0,2.52-3.35c.27,0,.61,0,.8-.12s.31-.49.45-.75c-.25,0-.61-.19-.73-.08A3.45,3.45,0,0,0,777.05,768.83Zm38.71,41.69a9.4,9.4,0,0,0,1.72.36c1.68,0,2.29-.92,1.58-2.44a2.08,2.08,0,0,0-3.15-1c-1.34.67-1.36,1-.21,3l-.68.4.34.34ZM792,715.91c-.69-.59-1.36-.85-2.37.4l2.34-.36c-.16,1.73-1.59,2.17-3.44,2.73,1,.39,1.5.8,1.85.69,2.07-.65,4.11-1.42,6.14-2.2.16-.06.29-.53.22-.75a.84.84,0,0,0-.63-.45C794.69,715.91,793.32,715.92,792,715.91Zm-48.82,58.93c.24.9.32,2.46.76,2.57a8.17,8.17,0,0,0,4-.09c1-.3,1.35-1.28.59-2.37-1-1.45-1.52-1.59-4.07-.74l-1.1-.78C743.22,773.9,743.17,774.37,743.13,774.84ZM783,738.53h0c.44-.64,1.71-1.27-.07-1.86-1.15-.37-1.89-.93-.44-1.95a.62.62,0,0,0,.21-.51c-1.14-1.87.39-2.7,1.49-3.56a1.73,1.73,0,0,0,.7-2.28c-.28-.69-.83-1.79-.58-2.07a6.39,6.39,0,0,1,2.31-1c.55-.22,1.1-.46,1.64-.71a1.57,1.57,0,0,0,.85-2.41c-.94-1.82-2.11-3.6-.81-5.75.08-.13,0-.39-.07-.58-.51-1.44.15-2.37,1.21-3.17l.83,1.27c.34-.39.84-.73,1-1.17.16-.6-.33-1.4.74-1.65.22,0,.35-.5.53-.77-.33-.19-.68-.57-1-.53-.56.09-1.08.49-1.65.6-.29,0-.88-.16-.94-.37a1.28,1.28,0,0,1,.33-1.05c.23-.25.7-.26,1-.46.52-.32,1-.7,1.52-1.06l-1.46-1.33,1.57-1.49c-.33-1.42-.59-2.51-.84-3.61s-1.14-1.36-1.68-.54a91,91,0,0,0-5.38,8.79c-1.35,2.67-2.15,5.6-3.29,8.38a5.85,5.85,0,0,1-1.36,1.56,14.62,14.62,0,0,0-2,2.13,3.15,3.15,0,0,0-.58,2.37c.9,1.91-.15,3.49-1.1,4.57-1.31,1.5-2.3,2.8-1.88,4.87.07.36-.48.82-.66,1.27-1,2.37-3.32,4.31-2.19,7.33a1.19,1.19,0,0,1-.32,1.08c-.6.44-1.49.57-1.94,1.09s-.22,1.31-.48,1.91c-.1.23-.7.23-1.08.34l-1.51.43a3.5,3.5,0,0,0,1.57.9,14.22,14.22,0,0,1,1.45.87c-.87.55-2.5.26-1.4,1.93.25.38,0,1.13-.11,1.7-.24,2.12.3,2.69,2.41,2.52a3.26,3.26,0,0,0,3.07-3.34c-.27-2.55.33-4.11,3.13-4.23a.89.89,0,0,0,.54-.24,4.47,4.47,0,0,0,.45-.73l-2.16-.78c1.54-2.39,3.34-3.51,6.1-3S784.07,741.57,783,738.53ZM378,957.37c.74.28,1.48.54,2.22.83,1.07.4,1.66-.06,2.1-1.06a4.6,4.6,0,0,0-.87-.38,2.72,2.72,0,0,1-2.13-2.56c-.23-1.22.37-1.76,1.6-2,.31-.06.54-1.13.64-1.76.44-3-.44-6.33,2-9,.17-.19-.18-.87-.32-1.32-.54-1.72,0-4.28,1.1-5.2,1.94-1.64,3.89-3.26,5.79-5,.31-.27.4-.81.59-1.23a8.51,8.51,0,0,0-1.28-.55c-.37-.1-.79,0-1.18-.09-1.22-.27-1.55-.94-.61-1.84,1.25-1.19.94-1.79-.2-2.8-1.36-1.2-1.26-2,0-3.21a4.67,4.67,0,0,1,1.44-1,6.18,6.18,0,0,0,3.24-3.62c.87-1.9.47-3.29-.5-5-1.19-2-.86-2.83,1-4.36,3.61-3,3.75-3.39,2.47-8.18a4.5,4.5,0,0,1-3.6,3c-.51.09-.86,1.2-1.24,1.87a59,59,0,0,1-3.32,5.93c-.94,1.3-2.42,2.22-3.9,3.53,1,.15,1.6.22,2.24.37.18.05.31.33.6.65l-2.92.83c1.39,1,1.54,1.86.81,3a19.36,19.36,0,0,0-1.73,3.11c-.82,2-1.9,4-2.12,6.12-.23,2.29-.91,3.76-3.1,4.19-.27,1,1.74,1.79.2,2.67s-1,2.09-.68,3.34c.24.91.7,2,.38,2.77-1.59,3.82-1.73,7.88-2.3,11.87-.45,3.13-.47,6.37-1.37,9.36a21.77,21.77,0,0,0-1,7.56,10.59,10.59,0,0,1-1.51,6.23c-1.74,2.9-.26,5.35,3.12,5.3.35,0,1-.89,1-1-1.17-1.72.61-2.65,1-3.5-.69-.9-1.68-1.66-1.55-2.13.34-1.33,1.51-1.12,2.55-.92.36,4.79.36,4.79,3.39,3.44-2.06-4.51-3.39-6.41-4.67-6.87a15.15,15.15,0,0,1,1.26-2.06c1.36-1.64,2.81-3.2,4.23-4.79,1.18.54,1.72-.1,1.74-1.15a1.6,1.6,0,0,0-2.06-1.58c-1.71.3-1.94-1-2.54-1.93ZM517.79,768.28c2.82.32,3.16.69,3.36,3.38a18.45,18.45,0,0,0,.4,2.32c.44,2.46,2.52,3.71,4,5.36a14.57,14.57,0,0,0,11,4.9c2.19,0,3.07-1,2.88-3.27a6,6,0,0,1,.42-3.39,5,5,0,0,0,.48-5c-.73-1.6-1.17-3.43-2.26-4.72a2.34,2.34,0,0,1-.57-2.81,7.37,7.37,0,0,0-.18-6.32c-.63-1.17-1.16-2.05-.48-3.53s-.27-2.38-2-2.32c-.46,0-1.14,0-1.34-.22-2.11-2.71-4.2-1.16-6.3-.06-.77.41-1.66,1.4-2.24,1.23-2.15-.63-2.49.83-3.11,2.17a5,5,0,0,1-1.27,2c-2.79,2-3.12,4.84-2.83,7.93a23.39,23.39,0,0,1,0,2.37,3.63,3.63,0,0,0-.84-.15,8.09,8.09,0,0,0-1.18.28c.31.3.71.92.9.85C517.07,769.08,517.41,768.62,517.79,768.28Zm-25,44.79-.36.55a28.63,28.63,0,0,0-3.14-.54,1.46,1.46,0,0,0-1.06.73c-.14.22.16.7.26,1.06,1.39-.57,1.91,2.36,3.59.91.09-.08,1.17.62,1.13.84a7.14,7.14,0,0,1-1,3.21c-1,1.25-1.72,2.06-.09,3.4a3,3,0,0,1,.79,2.64c-.92,2.09,0,3.1,1.62,4a7.18,7.18,0,0,1,1.73,1.62,5.24,5.24,0,0,0,4,1.63c4.18.34,8-.81,11.85-2.21a29.45,29.45,0,0,0,13-9.39c1.13-1.41,2.29-2.77,4.11-3.26s2.54-1.26,2.15-3.19c-.13-.65.4-1.49.75-2.18,1.66-3.15,3.37-6.28,5-9.43.7-1.34.51-1.71-1-1.91-1.16-.16-2.74.18-3.42-.46a3.55,3.55,0,0,0-3.15-.86c-1.35.08-3.46-2.62-3-3.64.73-1.57.75-1.81-.62-1.91a14.72,14.72,0,0,1-7.85-3.11,4.6,4.6,0,0,0-1.22-.39c.12.69.21,1.19.33,1.86l-6.33-1.89a.84.84,0,0,1,0-.44c1-2.61,1-2.6-1.68-2.9-.1,0-.21,0-.29,0-.56-.3-1.46-.52-1.58-1a2.11,2.11,0,0,1,.71-1.73,38.44,38.44,0,0,1,3.48-2.38c-1.83-1.78-3.56-3.31-6.05-3.71a6.78,6.78,0,0,1-1.91-.77c-1.78-.88-2.42-.63-3,1.16-.27.8-.46,1.87-1,2.28-1.91,1.32-2.31,3.38-2.35,5.24-.07,3.51-1.68,6.38-2.82,9.43-.88-.06-.59-1.79-1.81-.91a1.58,1.58,0,0,0-.52,2.31,1.43,1.43,0,0,0,.66.58c1.46.54,1.52,1.81,1.3,3a43.25,43.25,0,0,1-1.33,4.4l-3.22.45c.09.45.06.75.17.8,1.36.73,2.73,1.39,1.47,3.32-.11.18.36.78.61,1.16C492,812,492.38,812.54,492.76,813.07Zm18.08,32.22a28.86,28.86,0,0,0,12.07-1.49c-.62-1.41-1.55-2.74-3-2.83a29.54,29.54,0,0,0-5.5.63C514.22,843.57,512.26,843.91,510.84,845.29Zm13.33-17c-.23,1.17.17,1.83-.81,2.66-.77.65-1.56,2.09-1.34,2.92.38,1.47,1.62.12,2.48.1,2.58,0,2.58-.07,3.47-2.49Zm253.88-80c.11.13.58,1.06.8,1a14,14,0,0,0,3.54-1.42c.28-.17.3-1.31,0-1.76a2.09,2.09,0,0,0-2.6-.84C778.53,745.62,778.21,746.61,778.05,748.29ZM598.29,774c.62.83,1.53,1.51,1.49,2.13,0,.82-.47,1.64.62,1.84a3.24,3.24,0,0,0,2.17-.46c.7-.48,1.61-1.39-.23-1.71-1-.17-1.11-.87-1.21-1.74a1.38,1.38,0,0,0-1-.88A6,6,0,0,0,598.29,774Zm194.25-39-1.47.9c.36.5.69,1,1.09,1.49a4.28,4.28,0,0,0,1.06,1c.45.27,1.1.68,1.46.53a1.88,1.88,0,0,0,.79-1.37C795.67,735.79,794.83,735,792.54,735Zm-405,205.66c.82,1.13,2.1,2.1,2.15,3.12.11,2.73,1.47,1.66,2.7,1.45a24.16,24.16,0,0,1-1.26-3C390.58,940.25,390.45,940.13,387.53,940.62Zm96-144.16,1.83-1.72c-.6-.38-1.18-.79-1.8-1.12a2,2,0,0,0-1.13-.29,10.71,10.71,0,0,0-1.76.59,6.16,6.16,0,0,0,.87,1.76C481.87,796.05,482.55,796.11,483.5,796.46Zm-46.36,27.8-.62-.54a25.29,25.29,0,0,0-2.64,2c-.4.4-.8,1.35-.6,1.66a2.33,2.33,0,0,0,1.73.78,1.73,1.73,0,0,0,1.21-1A22.59,22.59,0,0,0,437.14,824.26ZM791.4,726.13a14.35,14.35,0,0,0,2.41.86c1.11.16,2.17,2.41,3.15.69.79-1.39-1.47-1.4-2.13-2.23C793.36,723.62,792.63,725,791.4,726.13ZM368.23,909.19c-1.51,0-2.62,0-2.58,1.41,0,1,.74,1.52,1.75,1.57,1.17.06,2.34-.89,2-1.89C369.27,909.73,368.46,909.38,368.23,909.19ZM767.91,714.32c-.63-1-.87-1.73-1.38-2a2.74,2.74,0,0,0-2-.21c-.71.25-.8.9-.26,1.66a7.53,7.53,0,0,1,.59,2.29ZM563.09,799.41a11.58,11.58,0,0,0-1.21,1.76c-.21.47-.38,1.24-.14,1.54a1.73,1.73,0,0,0,1.54.37,20.69,20.69,0,0,0,2.89-1.3Zm-12.55-21c-.43-2.22-2.22-2.67-3.8-3.3-.37-.15-1,.25-1.46.4.27.54.61,1.58.8,1.55C547.78,776.87,549.06,777.85,550.54,778.45Zm206.75-39.92c.18-.17,1.11-.7,1.06-1.1-.2-1.55-1.72-1.27-2.78-1.49-.27-.05-.94.61-1,1C754.41,738.1,755.15,738.6,757.29,738.53ZM603.11,765.45l1.25,4.82c1.37-1.14.15-3.16,1.79-3.87-.16-.32-.28-.88-.48-.91A19.47,19.47,0,0,0,603.11,765.45Zm167.31-8.32c-1.23-.84-1.78-1.46-2.42-1.56a1.73,1.73,0,0,0-1.42.94c-.1.42.49,1.46.8,1.47A12.18,12.18,0,0,0,770.42,757.13Zm-42.55,63.39a7.37,7.37,0,0,0-1.78,1c-.33.33-.31,1-.44,1.54.55.14,1.17.5,1.63.35a1.76,1.76,0,0,0,.94-1.27A5.15,5.15,0,0,0,727.87,820.52ZM957.45,794a16.1,16.1,0,0,0,1.59,1.2c1,.58,1.69.22,1.76-.95a7.43,7.43,0,0,0-.29-1.65,15.55,15.55,0,0,0-1.77.51A8.44,8.44,0,0,0,957.45,794Zm-4.3,21.3a10.09,10.09,0,0,0-1.66,1.5,4.73,4.73,0,0,0-.44,1.55c.55.14,1.18.5,1.63.35a1.72,1.72,0,0,0,.94-1.27A7.82,7.82,0,0,0,953.15,815.28ZM732,798.77c1.25.75,2,2.09,3.06,1.1.8-.72.63-1.88-.25-2.92Zm79.13,18.76c1.45.8,2.12.47,2.44-.36a14.91,14.91,0,0,0,.79-3.09c0-.29-.47-.67-.72-1-.24.36-.75.81-.67,1C813.49,815.73,812.67,816.69,811.09,817.53Zm-275.25,8.32-4.2-.49C533.73,828.3,534.52,828.37,535.84,825.85ZM522,840l.38-.63a6.65,6.65,0,0,0-1.64-1.06,2.29,2.29,0,0,0-1.52.32,1.47,1.47,0,0,0-.45.92,3.34,3.34,0,0,0,1.41.67A7.67,7.67,0,0,0,522,840ZM380.31,981.92l-.12.77c.89.23,1.77.52,2.67.66a1,1,0,0,0,.78-.58c0-.25-.32-.79-.55-.81C382.17,981.87,381.24,981.92,380.31,981.92ZM599.46,780.63a10.54,10.54,0,0,0-1.51,1.86c-.07.14.7.71,1.09,1.08a18.32,18.32,0,0,0,1.22-1.84C600.32,781.59,599.89,781.2,599.46,780.63Zm198-55.16c.75-.77,1.4-1.41,2-2.09,0,0-.42-.68-.69-.73a2,2,0,0,0-1.91,1.84C796.87,724.71,797.12,724.93,797.47,725.47ZM784.35,751c-2.57-1.46-2.61-1.44-3.31.93Zm-18.06,14.53,1.48-.93c-.51-.35-1-.91-1.53-1s-.88.56-1.32.88Zm-4-39.83c-.44-.67-.65-1.39-1-1.51s-1,.34-1.51.55a5.37,5.37,0,0,0,1,1.62C760.81,726.51,761.55,726,762.24,725.7Zm43.93-13.91a11.84,11.84,0,0,0-1.45-.46c-1-.18-1.44.44-1.41,1.33,0,.38.39.75.61,1.12Zm-35,3.29-1.37,1.19c.38.39.72,1,1.16,1.09s1-.51,1.12-.91S771.56,715.66,771.15,715.08ZM519.59,787.9l-.18.68A7.81,7.81,0,0,0,521,789.7c.32.13.81-.17,1.22-.27-.15-.41-.2-1.07-.47-1.17A9.22,9.22,0,0,0,519.59,787.9Zm237.22-25.26.12-.72c-1.21-.92-2.49-1-4.55-.12ZM402,896.9l-1-1.11c-.32.41-.87.82-.87,1.23s.54.84.84,1.26Zm141.49-71.58c-.11-.18-.21-.36-.31-.54a8.55,8.55,0,0,0-2,.15c-.23.08-.47.81-.36,1.14a1.18,1.18,0,0,0,1.09.37A8.11,8.11,0,0,0,543.48,825.32ZM445,812c.56.12,1,.37,1.23.24a5.48,5.48,0,0,0,1.3-1.2c.08-.1-.27-.71-.31-.7a6.21,6.21,0,0,0-1.48.6C445.41,811.12,445.27,811.52,445,812Zm68.52-27.29c1.31,1.46,1.31,1.46,2.72,1.5C515.07,784.62,515.07,784.62,513.47,784.71Zm448.16,16.12c-.55.67-1,1-1.14,1.47-.07.23.49.85.81.89s1.07-.39,1.07-.62C962.37,802.1,962,801.63,961.63,800.83ZM562.89,797l1-1.34a9.27,9.27,0,0,0-1.33-.88c-.08,0-.67.58-.61.76A6.72,6.72,0,0,0,562.89,797Zm-84.16,12.45-2.69-.64C477.14,810.3,477.14,810.3,478.73,809.45Zm186.17.69c.58-.64,1.05-1,1.23-1.44.07-.17-.56-.87-.84-.85a1.38,1.38,0,0,0-1,.84C664.23,809,664.6,809.45,664.9,810.14Zm226.78-5.86.48-.77c-.45-.16-1-.55-1.34-.44a2.47,2.47,0,0,0-1.13,1c-.07.1.42.81.56.79A6.23,6.23,0,0,0,891.68,804.28Zm-129.29-75.7a3.8,3.8,0,0,0-1.23.4,7.82,7.82,0,0,0-.95,1.24c.21.16.5.49.63.44a4.06,4.06,0,0,0,1.31-.83C762.35,729.61,762.29,729.16,762.39,728.58ZM754.14,751c-.49-.43-.92-.91-1-.86a9.87,9.87,0,0,0-1.23,1.11c.26.25.61.77.77.72A7.12,7.12,0,0,0,754.14,751ZM598.73,786.34c-1.31-1-2.33-.86-3,.69Zm-5.92-2.29c-.86-1.07-1.71-1-2.57,0Zm-96.22-14.68c-.9-.36-1.34-.71-1.61-.61a5.38,5.38,0,0,0-1.27,1c.23.26.51.77.68.74A13.57,13.57,0,0,0,496.59,769.37Zm452.54,47.72a9.2,9.2,0,0,0-.81,1.83c-.05.3.32.68.5,1,.34-.26,1-.54,1-.78A8,8,0,0,0,949.13,817.09ZM522.85,837.66l.59.87c.58-.46,1.17-.92,1.72-1.41a3.37,3.37,0,0,0-.4-.63C524.11,836.85,523.48,837.26,522.85,837.66Zm-.49-107.12c-.45.73-.87,1.11-.84,1.44s.51.64.8,1c.23-.27.66-.53.66-.81S522.69,731.34,522.36,730.54Zm240.24,5.67-1.17.95c.43.24.84.64,1.28.67s.63-.48.95-.75ZM462,791.93,465.4,793C464.71,790.69,463.65,791,462,791.93ZM393,874a6.9,6.9,0,0,0-.89,1.59,3.82,3.82,0,0,0,.23,1.26c.36-.35.86-.63,1-1.06S393.25,875,393,874ZM376,983.37l.14.87a2,2,0,0,0,2.49-1.22Zm433.1-163.18a4.86,4.86,0,0,0-1.51-.54c-.24,0-.69.61-.63.76.17.37.6.89.88.86S808.56,820.73,809.14,820.19Zm-262.56,1.75.55-.94c-.62-.27-1.22-.56-1.85-.77-.06,0-.28.41-.42.63Zm418.76-26.11A2.69,2.69,0,0,0,963,798C964.44,797.74,965.19,797.31,965.34,795.83ZM493.72,841.22c2.57,1.43,2.57,1.43,3.16,0ZM392.24,948.13c-.62-.37-1-.77-1.21-.69a5.69,5.69,0,0,0-1.22.94c.26.21.56.63.77.58A7.63,7.63,0,0,0,392.24,948.13Zm-35.45,6.25a5.08,5.08,0,0,0,.88.5,11,11,0,0,0,1.11-1.44,2.16,2.16,0,0,0-.54-.46C357.77,953.38,357.35,953.82,356.79,954.38ZM548.63,757.32c.64.53,1,.93,1.34,1s.62-.23.94-.37c-.2-.39-.32-1-.63-1.12S549.45,757.08,548.63,757.32ZM378.22,1013.47c1.5,1,1.5,1,2.84,0ZM482.93,813.54c-.19-1.15-.69-1.69-1.75-1.56-.14,0-.35.38-.34.39.46.44.94.86,1.44,1.27C482.33,813.68,482.46,813.62,482.93,813.54Zm270.82-33.1.11.67c.72.21,1.48.57,2.18-.85Zm49.31-60.76c-1.32-.44-2,.15-2.14,1.45Zm-32.63-.31c-.47-.41-.79-.85-1-.8a1.92,1.92,0,0,0-1,.75c-.09.15.27.59.42.9ZM584.56,788.08h2.38c0-.27,0-.64-.11-.78C586.1,786.6,585.49,786.91,584.56,788.08Zm-72.89-47.86c.83.48,1.07.72,1.32.73a7.58,7.58,0,0,0,1.33-.13,5.21,5.21,0,0,0-1.11-1C513,739.7,512.56,740,511.67,740.22Zm251,14.15c-.42-1.39-1-1.69-2-1.21-.13.06-.17.31-.34.66ZM658.81,816.91c-1.53-1.36-1.53-1.36-3.06-.8Zm153.92,4.38a6.4,6.4,0,0,0,.71-1.59c0-.26-.33-.55-.52-.83-.3.26-.8.51-.84.81S812.37,820.47,812.73,821.29Zm-398.5-5.41c1.25.59,2,.84,2.94-.27a8.63,8.63,0,0,0-1.6-.3C415.27,815.31,415,815.55,414.23,815.88Zm469.41-3.81.25-.76-2.18-.74c-.09.26-.17.52-.26.78Zm-521.86,214,0,.6a15,15,0,0,0,1.77.1c.11,0,.2-.42.43-1Zm391-271,.67.49,1.12-1.78-.59-.37Zm45.75-50.65c.72.39,1,.71,1.33.68a3.12,3.12,0,0,0,1.09-.55,3.71,3.71,0,0,0-1-.47A6,6,0,0,0,798.57,704.4ZM545.92,763.14l-.39-.71c-.63.33-1.27.65-1.91,1l.35.69Zm-32.23,26.17-.77,1c.3.15.66.49.91.42s.66-.49,1-.76Zm231.16,2.41-.17.65,2.11.6.18-.68Zm196.8,39.64a6.31,6.31,0,0,0-1.54-.72c-.17,0-.42.46-.63.71a3.33,3.33,0,0,0,1,.62C940.75,832,941.07,831.68,941.65,831.36Zm-227,3.72c-.25.43-.61.84-.54,1a1.64,1.64,0,0,0,.95.68c.23,0,.53-.37.8-.58Zm-92.2,8.65-.24-.86c-.53.18-1.06.34-1.58.56-.07,0,0,.35,0,.53ZM756.61,744.3l.89-.95c-.24-.2-.49-.58-.71-.56a1.1,1.1,0,0,0-.78.59C755.94,743.56,756.33,743.89,756.61,744.3ZM399.67,873.36l.27.55,1.62-.8-.27-.55Zm-6.34,90.69c-.46-.34-.69-.64-.87-.62a3.24,3.24,0,0,0-.9.47c.19.19.37.51.56.52A4.3,4.3,0,0,0,393.33,964.05ZM742,829l0,.84c.51,0,1,0,1.54,0,.09,0,.16-.32.23-.49ZM386.25,977.65a4.38,4.38,0,0,0,.45-1.08c0-.14-.39-.31-.6-.47a3.72,3.72,0,0,0-.58.88C385.48,977.07,385.87,977.32,386.25,977.65Zm3.62-103.45c-.7-.11-1.07-.29-1.31-.19s-.45.51-.66.77c.3.13.64.38.92.33S389.32,874.7,389.87,874.2Zm403.6-175.77-.74.47a5.22,5.22,0,0,0,.9.86c.13.08.47-.17.71-.27ZM848.4,838.6a6.31,6.31,0,0,0-1.84-.43c-.25,0-.41.57-.61.88a3.36,3.36,0,0,0,1,.17A7.4,7.4,0,0,0,848.4,838.6ZM400.31,900.1l-.18-.76-1.65.75.2.52Zm418.58-87.66c-.21.53-.46.89-.38,1a3.72,3.72,0,0,0,1,.88s.51-.36.5-.39C819.76,813.58,819.49,813.24,818.89,812.44ZM604,773.11a4.06,4.06,0,0,0-1-.45c-.13,0-.46.53-.42.58a2.23,2.23,0,0,0,.82.61C603.46,773.88,603.71,773.49,604,773.11Zm57.55,37.64c.41.29.68.59.82.54a1,1,0,0,0,.55-.61c0-.17-.24-.42-.37-.63ZM548.18,821a18.65,18.65,0,0,0,.6-1.77c0-.07-.39-.31-.42-.28a2.45,2.45,0,0,0-.66.79C547.64,820,547.88,820.28,548.18,821ZM386.93,946.67l-.62.84c.24.11.53.35.7.28s.48-.42.71-.65ZM555,760.41l.46-.5c-.43-.28-.84-.58-1.28-.83,0,0-.22.22-.33.33Zm222,2.66c-.43-.31-.65-.59-.84-.58a.89.89,0,0,0-.64.47c-.06.14.24.63.3.61A6.12,6.12,0,0,0,777,763.07ZM353.65,977.21l.36-.56a2.38,2.38,0,0,0-.81-.16,4.56,4.56,0,0,0-1,.36c.14.2.27.56.42.57A3.31,3.31,0,0,0,353.65,977.21ZM786.29,747l.46-.84c-.25-.13-.49-.36-.74-.37s-.42.26-.63.4Zm-298,23c.35.41.54.81.82.9s.54-.29.81-.45a4.19,4.19,0,0,0-.8-.67C489,769.69,488.69,769.87,488.28,770Zm69.27,3c-.43-.31-.66-.6-.93-.64s-.54.36-.52.53a2.6,2.6,0,0,0,.44.88ZM393.43,920.18a3.94,3.94,0,0,0-1.09-.43c-.21,0-.43.27-.65.42a7.66,7.66,0,0,0,1.06.64C392.84,920.85,393.08,920.51,393.43,920.18ZM887,806c.41.29.68.59.83.54a1,1,0,0,0,.54-.61c0-.17-.23-.41-.37-.62Zm-221.75-1.74-.63.32a9.56,9.56,0,0,0,.9.9c.07.06.31-.11.48-.17ZM793.5,708.81a4.14,4.14,0,0,0,.41-.73c0-.05-.29-.3-.39-.27a2.2,2.2,0,0,0-.59.38ZM379.67,1024.38c.38-.46.63-.62.65-.82s-.13-.49-.2-.74c-.22.09-.59.16-.61.29A5.44,5.44,0,0,0,379.67,1024.38ZM510.53,764.51a3,3,0,0,0,.53-.72c0-.11-.19-.44-.23-.43-.22.06-.54.16-.59.31S510.38,764.11,510.53,764.51ZM528,745.11a2.7,2.7,0,0,0-.25.75c0,.09.34.28.43.24a2.39,2.39,0,0,0,.52-.49Zm363.4,55c-.39-.16-.8-.32-1.21-.45a1.75,1.75,0,0,0-.2.44c.39.24.8.44,1.2.64Zm-342.77-27a4.1,4.1,0,0,0-.34-.81.62.62,0,0,0-.44.08,1.14,1.14,0,0,0,0,.71C547.9,773.17,548.27,773.1,548.62,773.1Zm200.7,50a3.28,3.28,0,0,0-.37.65s.37.32.44.27a2.71,2.71,0,0,0,.51-.55Zm22.22-50a3,3,0,0,0-.73-.47c-.13,0-.3.15-.45.23.12.2.2.52.37.56S771.15,773.24,771.54,773.07ZM573.45,792l-.25-.65c-.33.18-.65.34-1,.54a1.2,1.2,0,0,0,.19.45A10,10,0,0,0,573.45,792Zm204.74-97.84c.33.24.55.52.73.49s.44-.31.66-.48c-.2-.19-.38-.5-.59-.52S778.55,693.9,778.19,694.14Zm107.5,114a3.54,3.54,0,0,0,.42-.75c0-.06-.29-.32-.39-.29a2.3,2.3,0,0,0-.62.39ZM589.75,792.78l-.64.49c.16.18.36.52.47.5a2.8,2.8,0,0,0,.79-.47ZM661,812.39a3.84,3.84,0,0,0-.72-.56.64.64,0,0,0-.46.21c.05.22.13.56.28.61S660.52,812.53,661,812.39Zm-109.54-9a4.11,4.11,0,0,0,.45-.7c0-.06-.27-.33-.37-.31a2.4,2.4,0,0,0-.62.35C551,802.91,551.17,803.1,551.42,803.39Zm208.94-38-.61-.38c-.09.15-.28.37-.24.43a2.84,2.84,0,0,0,.54.49Zm-28.45,36.4c-.07-.17-.1-.4-.22-.48s-.36,0-.54,0a2.87,2.87,0,0,0,.27.65S731.74,801.88,731.91,801.82ZM536.83,785.38c-.26-.21-.39-.41-.51-.4a5,5,0,0,0-.83.21,3.23,3.23,0,0,0,.12.44C536,785.58,536.34,785.49,536.83,785.38ZM770.27,736a3.12,3.12,0,0,0-.61-.55c-.07,0-.37.22-.38.35a2,2,0,0,0,.19.68Zm32.13-19.52c-.24-.13-.46-.32-.53-.28a3.62,3.62,0,0,0-.49.54c.15.08.34.26.44.22A2.46,2.46,0,0,0,802.4,716.49Zm2.16,114.76.41-.08c-.07-.4-.13-.8-.23-1.19a3.37,3.37,0,0,0-.44.06C804.39,830.44,804.47,830.85,804.56,831.25ZM750,831.07l.53-.27a2.43,2.43,0,0,0-.46-.54c-.06,0-.28.13-.44.2Zm-2.37-65.53-.83.42c.13.17.26.46.41.48a2.18,2.18,0,0,0,.74-.23Zm11.26-4.2-.54.31a2.29,2.29,0,0,0,.48.54c.07,0,.3-.14.45-.22Zm22.18-2.06c-.1.13-.3.27-.3.4s.18.31.28.47l.45-.52C781.38,759.51,781.24,759.39,781.09,759.28Zm-19.72-11.86c-.25-.14-.47-.33-.53-.29a3.56,3.56,0,0,0-.48.54c.15.09.34.27.43.23A2.73,2.73,0,0,0,761.37,747.42Zm-1.29,47.29-.16-.57a4.33,4.33,0,0,0-.71.27.9.9,0,0,0,.13.43A3.83,3.83,0,0,0,760.08,794.71Zm1.51-36.21-.43.39.49.47c.09-.16.25-.32.25-.48S761.7,758.62,761.59,758.5Zm195.72,38.56c-.07-.17-.1-.4-.22-.48s-.35,0-.54,0a3.32,3.32,0,0,0,.27.64S957.14,797.12,957.31,797.06ZM749.43,783.79a2.08,2.08,0,0,0,.38.22s.16-.14.15-.17a2.82,2.82,0,0,0-.24-.36Zm2.89,54.31-.29.35a1.65,1.65,0,0,0,.45.31s.18-.21.28-.32C752.62,838.32,752.47,838.21,752.32,838.1Zm6.7-56.05c-.15.06-.37.09-.44.2s.09.29.15.44l.6-.3Zm5.52-11.69a3.61,3.61,0,0,0-.24.41s.14.16.17.15a2.25,2.25,0,0,0,.36-.24Zm17.57-72.23-.37-.31c0,.08-.16.2-.15.22s.24.21.36.32Zm-9.52,35a2.78,2.78,0,0,0-.34-.26s-.19.11-.19.14a3.72,3.72,0,0,0,.21.39Zm-4.17-1.07a1.28,1.28,0,0,0,0-.27,2.58,2.58,0,0,0-.48,0c0,.09,0,.26,0,.26A4.1,4.1,0,0,0,768.42,732.1Zm20.57,106c-.12.09-.26.18-.37.28s.08.15.12.22a3.47,3.47,0,0,0,.38-.29A1,1,0,0,0,789,838.07Zm-35.18-52.68-.23.07a1.81,1.81,0,0,0,.18.4s.14-.05.22-.07S753.87,785.52,753.81,785.39Zm2-20-.32-.3c0,.07-.14.17-.12.19a2.94,2.94,0,0,0,.31.3Zm47.2-59a3.24,3.24,0,0,0-.27-.35s-.13.07-.2.1a3.24,3.24,0,0,0,.27.35S802.92,706.47,803,706.44ZM765.88,766.8l-.17-.12,0,.19Zm-4.32,20.88.17-.08-.16-.09Zm25.9-35.95.12-.17-.19,0Z" transform="translate(-8.33 -7.36)"/><path class="cls-2" d="M263.23,407.86c-1.37,3.89-1.6,8.14-3.78,11.78-.19.31-.34.91-.18,1.11,1.35,1.65.1,3-.49,4.35-2.24,5.28-4.47,10.57-6.78,15.83-1.37,3.13-3.09,6-6.74,7a1.92,1.92,0,0,0-1,1c-1.13,2.5-2.64,4.77-3.17,7.61-.49,2.56-1.88,5-3,7.37-.23.5-1.16.63-1.67,1.05-.72.59-1.87,1.25-1.93,2-.21,2.39-1.73,3.64-3.43,4.86a10.74,10.74,0,0,0-.81.75c.25.26.45.62.72.7,1.33.41,1,1,.2,1.61a3.32,3.32,0,0,1-1.37.56c-2.93.59-5.18,2.41-7.45,4.16a5.68,5.68,0,0,0-1.92,2.2c-1.69,4.55-5.1,7.71-8.42,11-3.18,3.12-3.16,3.15-.42,6.57,3.95,4.94,8,9.82,11.8,14.86a16.59,16.59,0,0,1,2.26,5.07,16.81,16.81,0,0,0,2.59,5.87c1.06,1.36,1.33,3.46,1.61,5.29.25,1.64.91,2.29,2.74,1.84-.12,1.28-.18,2.33-.32,3.38-.21,1.57-1.24,3.32,1.31,4.13.37.11.51,1.41.51,2.16a13.23,13.23,0,0,0,1.36,6.57c.76,1.41.38,3.47.45,5.24a7.06,7.06,0,0,0,1.23,4.4c.9,1.22.94,3.17,1.07,4.82.17,2.17,0,4.36.1,6.54a6.12,6.12,0,0,0,.68,2.79c.53.87.84,1.44.08,2.33a1.73,1.73,0,0,0,.11,1.52,6.78,6.78,0,0,1,.72,6.2,3.77,3.77,0,0,0,.33,3.11,10.63,10.63,0,0,1,1,3.91A10.45,10.45,0,0,0,242.6,595a10.85,10.85,0,0,1,1.58,6.81,33.78,33.78,0,0,0,1,9.1A67.45,67.45,0,0,1,246,620c.08,1.48-.21,3,2,3.32.38,0,.86,1,.91,1.6.33,3.42.28,6.89,1.7,10.13a1.19,1.19,0,0,1,0,.87c-.76,2-1.26,3.93,1,5.42.28.18.29.93.26,1.41-.15,2.35.75,4.43,1.46,6.6a51.2,51.2,0,0,1,1.5,7.53,12.82,12.82,0,0,0,.47,3.07l1.19-1.81A35.92,35.92,0,0,1,258,662a3.85,3.85,0,0,1-.15,2.2c-.82,2.22-.8,2.52,1.42,3a1.69,1.69,0,0,1,1.55,2.07c-.2,2.08.74,3.8,1.49,5.65a22.82,22.82,0,0,1,1.78,6.47c.14,1.57,1.88,1,2,2.21.09.92,0,2.36.46,2.66,2.06,1.21,2.53,2.92,2.87,5.11.22,1.4,1.65,2.63,2.6,3.89,1.13,1.48,2.32,2.92,3.72,4.67a12,12,0,0,1-5.24,1c-4.13-.1-6.6-2.88-9.3-5.25-1.5-1.31-2.76-2.15-4.72-1.05a2.42,2.42,0,0,1-1.95.21c-2.25-1.19-4.64-.93-7-.87a5.85,5.85,0,0,1-4.21-1.71c-4.12-3.53-6.66-8-8.65-12.94-1-2.48-2.27-4.84-3.39-7.28-.32-.69-.59-1-1.28-.35-.09.09-.93-.36-1.1-.72-1.08-2.33-2-4.74-3.12-7.06-5-10.44-7.49-21.67-10.54-32.73a39.38,39.38,0,0,1-1.34-10.84,26.09,26.09,0,0,0-.76-6.15c-1.63-6.84-3.36-13.65-5.14-20.45a31.77,31.77,0,0,1-1.2-10,34.2,34.2,0,0,0-1.7-13.15,75.37,75.37,0,0,1-3.31-15.63c-.36-3.3-1.7-6.49-2.68-9.71-.43-1.38-.83-2.62.45-3.8.83-.77.68-1.76.32-2.76-2-5.5-3.79-11.06-5.92-16.5-.92-2.36-2.48-4.48-3.68-6.74a12.6,12.6,0,0,1-1.38-3.24,9.23,9.23,0,0,0-3.37-5.1c-1.08-.95-2.07-.73-2.37.66a4.37,4.37,0,0,0,.2,2.85,3.13,3.13,0,0,1,0,3.59,3.11,3.11,0,0,0,0,3.85,3.51,3.51,0,0,1,.3,2.2c-.15,1.47-.47,2.93-.72,4.39-.32,1.83-1,3.66.59,5.34.28.3.11,1.13,0,1.67-.76,2.81-1.17,5.59.39,8.3a3.43,3.43,0,0,1,.23,1.45c0,.6-.17,1.28,0,1.77,2.1,4.59-.46,8.84-.92,13.23-.25,2.42-.47,4.68.63,6.95a5.38,5.38,0,0,1,.12,4.8,11.32,11.32,0,0,0-.25,5.54c.32,2.48.77,4.88-.42,7.26a2,2,0,0,0-.09,1.42c1.46,3.66,1.5,7.51,1.5,11.35a4.81,4.81,0,0,1-.15,2.06c-1.16,2.14-.53,4.21-.06,6.33a49.66,49.66,0,0,1,.91,5,16.81,16.81,0,0,1,0,4.07c-.24,1.69-.22,3.23,1.33,4.23s1.67,2.34,1.42,3.89c-.22,1.37-.44,2.74-.69,4.1-.62,3.37-.63,3.36,1.45,5.62-3.33,1.66-3.33,1.66-2.77,5.6l1.94-.82a6.71,6.71,0,0,1-1.16,5.19c-.33.46-.65,1.37-.43,1.71,1.72,2.57,1.34,5.56,1.63,8.34a48.51,48.51,0,0,1-.13,10.15c-.12,1.09-1.49,2.25-2.56,3-1.57,1.07-1.71,1.12-.52,2.66a3.51,3.51,0,0,1,.85,1.45,8.05,8.05,0,0,1-.11,2.94c-.34,1.29-1.62.78-2.53,1-1.33.29-2.22,1.69-2.49,3.64-.19,1.46.74,1.94,1.83,2.28,2.53.78,2.11,1.43,1.3,3.54-.54,1.38-1.37,2.66-1.84,4-.64,1.91-.22,2.73,1.73,3.15,1.28.28,1.53,1,1.61,2.06a12.88,12.88,0,0,0,1,4.46l1.47-2.58c1.33,2,2.19,3.88,1.1,6.3a28.2,28.2,0,0,0-1.19,4.83l-2.7-1.27c-.12,1.27-.19,2.31-.32,3.34-.11.79-.72,1.59-1.33.85-1.66-2-2.26-.07-3.13.68-.9-.59-1.72-1.52-2.57-1.56s-2,.7-3.13,1.18L173,701l-1.22,4.2c-2.92-.89-5.59.25-8.66.81A4.38,4.38,0,0,0,159,703.9c-1.19.05-1.93-.91-2.12-2.12a10.6,10.6,0,0,1-.07-1.78,146.81,146.81,0,0,0-1.1-18.63c-.4-3.63-.43-7.3-.71-11s-.72-7.46-1.05-11.2c-.26-3-.49-5.91-.68-8.86-.25-3.85-.37-7.7-.67-11.54-.26-3.35-.72-6.68-1-10-.25-2.65-.45-5.31-.63-8-.24-3.65-.4-7.3-.68-10.94-.3-3.94-.7-7.87-1-11.8q-.12-1.49-.12-3c0-6.64.19-13.29-.07-19.92-.23-5.71-1-11.4-1.5-17.1-.19-2-.54-3.92-.62-5.89a4.63,4.63,0,0,1,.77-2.18c1.25-2.32,1.3-4.44-.56-6.54a6.18,6.18,0,0,1-1-2.67,9.62,9.62,0,0,1,0-2.08q0-84.44,0-168.88a39.26,39.26,0,0,1,.77-4.88,10,10,0,0,0-1.53-6.41c-.19-.34-.39-.9-.24-1.18,1.47-2.83,1.06-6,1.56-9,.19-1.14.26-2.3.41-3.79,1.26,2,1.27,2,1.35,5.18,0,1.29,0,2.58,1.16,3.51,1.46,1.15,2.27,1,2.72-.84.58-2.29,1-4.62,1.48-7,.74.19,1.31,1.36,1.87,0s1.16-2.48,1.78-3.78c2.84,2.67,3,2.78,4.79-.4,1.88-3.41,3.9-5.08,8.19-3.85,2.93.85,6.3.14,9.46.26a36,36,0,0,1,5.87.68A98.81,98.81,0,0,1,196.43,341c4.5,1.47,8.89,3.31,13.3,5.07,6,2.37,11.93,4.82,17.9,7.24a9.43,9.43,0,0,1,1.09.47c4.49,2.45,9,4.9,13.46,7.4.67.37,1.53.92,1.71,1.56.37,1.35.79,2.3,2.36,2.58.4.08.8,1.25.85,1.94.1,1.34.64,2,2,2s2.06.83,2.87,1.78c4.24,5,6.55,11.05,9.48,16.76a6.58,6.58,0,0,1,.52,2.59,34,34,0,0,0,.91,7.56c.62,2.18-.36,4.83-.67,7.27-.14,1.09-.52,2.23,1,2.66Zm-54.82,37.92c-2.49-2.31-1.59-4.32-.09-6.46,2.1-3,3.93-6.19,6.05-9.17a10.49,10.49,0,0,1,3.21-2.94,4,4,0,0,0,2.39-3.38c.15-1.61.48-3.59,1.5-4.64,1.95-2,2.15-4.35,2.51-6.77.15-1,.24-2,.36-2.94.61-5.1,1.69-10.13,1.5-15.32-.15-4.16-.1-8.33,0-12.49a14.41,14.41,0,0,0-3.08-9.11,87.63,87.63,0,0,0-7.63-8.28,5.81,5.81,0,0,0-2.34-1.13c-3.11-1-6.23-2-9.37-2.89-3.61-1-7.19-2.42-10.89-2.87-4.2-.5-8.5-.1-12.76-.14-1.44,0-2.28.49-2.2,2.06.07,1.29,0,2.58.16,3.86.51,5.3,1.12,10.6,1.6,15.9s.84,10.83,1.28,16.24c.55,6.69,1.21,13.37,1.67,20.07.33,4.73.43,9.47.62,14.21.2,4.94.41,9.88.59,14.82.23,6.32.36,12.65.66,19,.12,2.59.56,5.16.92,8.25.74-.82,1.09-1.15,1.37-1.52,1.29-1.67,2-3.95,4.57-4.3.33-.05.55-.77.87-1.13,1.9-2.19,2.47-5.66,6.08-6.22.41-.07.75-.61,1.1-1,1.9-1.89,3.84-3.73,5.66-5.7a4.42,4.42,0,0,0,1.34-2.49A3.37,3.37,0,0,1,208.41,445.78Z" transform="translate(-8.33 -7.36)"/><path class="cls-2" d="M677.75,679.65c0,1.23-1,2.75,1.16,3.37.31.08.54,1.66.28,2.36a22.33,22.33,0,0,1-2.16,4.21,5.83,5.83,0,0,0-.72,5.07,16.47,16.47,0,0,1,.21,3.46c.05.62-.73,1.8.92,1.44,0,0,.32.42.26.57-.67,1.94-1.44,3.86-2.08,5.82s-1.1,3.78-1.8,5.71c-.21-2.23-2.38-3.76-2-6.18,0-.18,0-.51-.09-.56-2.2-1-1.15-3.17-1.67-4.76-.19-.56-.15-1.26-.47-1.69a9.16,9.16,0,0,0-1.69-1.38,5.35,5.35,0,0,0-.78,1.74,59.93,59.93,0,0,1-.55,8.69c-.24-.66-.47-1.33-.72-2-.47-1.25-.57-2.55-1.68-3.67-.69-.7-.5-2.38-.48-3.61a34.63,34.63,0,0,1,.6-4.16l-2,2c-.23-1.42,0-3.1-.7-3.62-.86-.66-2.44-.37-3.71-.52-.16,0-.3-.22-.47-.35.57-2.05,1.16-4.11,1.72-6.18.32-1.21.46-2.28-1.09-2.93a2.59,2.59,0,0,1-1-1.88c-.28-3.23-.41-6.48-.61-9.73-.05-.74.17-1.77-1.21-1.34,2.1-3.38-.61-5.85-1.52-8.67-.28,3-.29,5.91-.28,8.84,0,.81.21,1.39,1.21,1h0a11.34,11.34,0,0,1-.58,1.67,1.86,1.86,0,0,0,.42,2.64c1.22,1,1.38,2.3,1.35,3.75,0,2.37,0,4.74,0,7.56l-3.61-3.26a16.17,16.17,0,0,0-.54,2c-.19,1.62,0,3.3-2.14,4-.72.24-1.07,1.55-1.78,2.67-1.09-4.22-3.42-7.75-3.23-12a2.8,2.8,0,0,0-.35-1.71c-2.69-3.7-1.25-7.87-1.19-11.8,0-1.6,1.49-3.17,2.3-4.75.64-1.23,1.29-2.45,2-3.73-.2-.21-.35-.5-.58-.61-2.32-1.08-2.39-1.21-1.34-3.47s2.59-4.29,2.18-7c0-.35-.17-.68-.37-1.43-.82,1.19-1.41,2-2.1,3.07a3.12,3.12,0,0,1-2.26-3.08c0-.3,0-.6,0-.89a61.54,61.54,0,0,0-1.77-17.36,36.38,36.38,0,0,1-.49-8c0-3.26.39-6.51.45-9.77.08-4.85,0-9.71,0-14.56,0-2.07-.17-4.11.93-6.08a6.55,6.55,0,0,0,.24-3.21,36.05,36.05,0,0,1,1.3-11.46,3.85,3.85,0,0,0-.33-3.37,6.83,6.83,0,0,1-.9-3.35c-.09-5.55-.07-11.1,0-16.65,0-2.84.25-3,3.3-2.88,1,.06,1.25-.41,1.36-1.16s.06-1.59.21-2.36c.23-1.17.48-2.27,1.95-2.69a2.45,2.45,0,0,0,1.38-1.65c.43-2.21.64-4.46,1-7l-3.51.74c-.29-2.19-1.09-3.87-3.38-4.13-.21,3.65-.41,7.24-.63,11-1.45-.32-1.6-1.29-1.61-2.26,0-3.07-.12-6.15,0-9.22a5.56,5.56,0,0,1,1.17-2.59c1.15-1.65,1.17-2.49-.55-2.8-2.09-.39-1.92-1.39-1.59-2.89.39-1.74.63-3.51.91-5.26a4.67,4.67,0,0,1,3.89-4.21c.67-.16,1.73-.62,1.77-1a2.4,2.4,0,0,0-1.7-2.49c-1.3-.51-2.55-1.15-4-1.83l-.92,1.71a6.34,6.34,0,0,1,1.27-5.74c1.48-2,2.89-4,4.31-6a2.58,2.58,0,0,0,.17-3.29,3.6,3.6,0,0,0-3.62-1.5c-1.15.32-1.09,1.25-1.15,2.14-.14,2.15-.29,4.3-.43,6.45H641c0-2.75,0-5.51,0-8.26a1.49,1.49,0,0,1,.29-.83c2.71-3.72,1.11-7.06-.88-10.38-.5-.84-1-1.67-1.46-2.55-1-2-1.1-3.94.6-5.71s.65-4,.67-6a28.71,28.71,0,0,0-.53-4.4,5.35,5.35,0,0,0-.46-1.7c-1.18-2.2-1.24-2.24.81-3.72a18.89,18.89,0,0,0,6.54-7.89,4.2,4.2,0,0,0,.27-3.41c-.62-1.62-1.13-3.29-1.69-4.94l-.7.12c0,2,0,4.05,0,6.08a3.33,3.33,0,0,1-2.11,3.46c-.69-4.8-1.37-9.45-2-14.1-.25-1.76-.34-3.55-.73-5.28a3.83,3.83,0,0,0-1.4-2.45c-3.28-1.59-3.08-4.45-3.24-7.32.31,0,.42,0,.5,0,.91.42,1.13,2.48,2.3,1.64.83-.58.92-2.27,1.22-3.49a1.13,1.13,0,0,0-.44-1c-2.14-.58-1.52-2-1.34-3.52a93.41,93.41,0,0,0,.71-9.75c.1-8.12.08-16.25,0-24.38a10.2,10.2,0,0,0-.92-4.26c-1-2-.8-4.05-.79-6.11a1.38,1.38,0,0,1,.38-1c2.76-1.81.87-4.46,1.22-6.7,0-.16-.69-.65-1-.63a7.7,7.7,0,0,0-1.82.48c-.64-1.52-1.24-2.85-1.74-4.22-.14-.39-.18-1.13,0-1.29,2.75-2,2-4.93,1.46-7.39a67.54,67.54,0,0,1-.89-13.89c0-2.38.19-2.64,2.53-2.55a46,46,0,0,1,7.32.8,5.51,5.51,0,0,0,3.7-.5c1.79-.86,3.48-1.14,5.28.22a5.49,5.49,0,0,0,2.83.59c3.07.17,4.72,1.48,5.41,4.43a6.79,6.79,0,0,1,.19,1.17c.22,4.55.38,9.09.66,13.63.31,5.22.74,10.44,1.08,15.66.25,3.94.38,7.89.7,11.83q.71,8.72,1.62,17.39c.57,5.5,1.27,11,1.93,16.48.53,4.41,1.1,8.81,1.59,13.23a31.35,31.35,0,0,1,.18,4.44A45.17,45.17,0,0,0,670,445c1.26,4.55,1.23,9.19,1.18,13.85,0,3,.09,3.13,3.21,3.13q29.6,0,59.17,0c1.23,0,3,.46,3.35-1.12.46-2,2-4.2-.11-6.13a4.68,4.68,0,0,1-1.27-4.35c.38-3.33.7-6.67,1.11-10,.15-1.26.49-2.49.73-3.74a16.31,16.31,0,0,0,.46-2.91c0-8.51.17-17-.08-25.53-.06-2.26.71-4,1.24-6.05.9-3.43,1.24-7,1.88-10.5.49-2.63,1-5.24-.11-7.85a1.09,1.09,0,0,1,0-.85c1.18-2.17.3-4.27-.23-6.36a61.15,61.15,0,0,1-2.07-19.95c.25-3.26,0-6.82,2.48-9.58a2,2,0,0,0,.35-1.11c.24-2.65.43-5.31.66-8,.14-1.57.36-3.14.47-4.71s.25-2.7,2.16-2.94c.57-.07,1.18-1,1.51-1.65A2.77,2.77,0,0,1,749,327c3.76,0,7.53,0,11.29,0a2.88,2.88,0,0,1,2.84,1.72,16.23,16.23,0,0,1,2.14,7.88c-.1,28.05,0,56.1-.09,84.15a56,56,0,0,1-.75,10c-.5,2.67.21,5.6-1.63,8.06-.32.42.19,1.48.33,2.24a31.1,31.1,0,0,1,.83,4.91c.08,9.11.05,18.23,0,27.35,0,1.59.14,2.93,1.94,3.57.41.14.73,1,.78,1.6.21,2.14.24,4.3.43,6.45A2.19,2.19,0,0,0,768.9,487a25,25,0,0,1,2.62.91,4,4,0,0,1-3.26,2.88c-3.13.42-3.55,2.81-4.22,5a45.22,45.22,0,0,0-1,5.18,2.29,2.29,0,0,0,0,1.44c1.64,2.68.81,5.61.92,8.43s.24,5.9-1.1,8.75a5.08,5.08,0,0,0,.11,3.43c1.33,4,1,8,1,12.08a4.78,4.78,0,0,1-.53,2.28c-1.88,3.14-1.06,6.57-1.07,9.89,0,.65.89,1.3,1.62,2.3-.32,1-1.85,2.42-.36,4.12.17.19-.05,1-.34,1.26-1.38,1.07-.84,2,0,3,.49.58.41.63-.45,1.46a1,1,0,0,0-.31.66q.51,6,1.06,12.1c.13,1.37.35,2.75.36,4.12,0,8.43,0,16.85,0,25.28a9.4,9.4,0,0,0,.1,2.66,3,3,0,0,1-1.13,3.64c-.91.74-1.62,1.75-.64,2.79,2.37,2.51,1.76,5.75,2.23,8.69.44,2.79.81,5.66-.44,8.44a6.08,6.08,0,0,0-.12,2.35c0,9-.05,18,0,27.06a27.08,27.08,0,0,0,1,4.86,13.71,13.71,0,0,1,.67,3.72c-.22,2.56-.76,5.08-1.21,7.61a1.3,1.3,0,0,1-.62.9c-.46.17-1.35-.08-1.48.16a54.93,54.93,0,0,0-2.47,5.34,10.52,10.52,0,0,0-.31,2.53c-1.92-.58-3.06-1.66-3.22-3.47s0-3.34,0-5.32a3.15,3.15,0,0,0-2.51,2.79c-.57,2.61-1.16,5.21-1.75,7.82a1.53,1.53,0,0,1-.86,1c-.87-3-1.75-6-2.62-9a16.75,16.75,0,0,0-.6-2c-.13-.29-.63-.68-.82-.62-2.4.85-2-.91-2.21-2.23-.09-.67-.16-1.6-.59-1.91-1.57-1.13-.47-2,.13-2.9-.17-.25-.23-.5-.37-.55-2.41-.84-2.77-.46-2.72-4.07,0-2.47-.18-5,.87-7.32a2,2,0,0,0,0-1.43c-1.46-3.41-1.1-6.92-.63-10.44a1.86,1.86,0,0,0,0-.87c-1.65-3.92-.56-8-.88-12-.07-.86-.12-1.72-.18-2.64-2,.18-2.91,1-2.86,2.89s.1,3.77,0,5.64q-.45,7.25-1.07,14.47c-.34,3.92-.2,7.73,1.83,11.23a3.6,3.6,0,0,1,.24,3.66c-1.74,3.47-1.53,7.32-2.15,11-.23,1.35-.43,2.71-.66,4.21-1.89-1.93-1.93-2-4.22-.55-1.17.75-1.84.69-2.69-.43a8.09,8.09,0,0,1-1.94-5.41c.17-5,.09-10.1,0-15.16a9.1,9.1,0,0,1,1.1-5.14,3.43,3.43,0,0,0,0-3.92,5.64,5.64,0,0,1-.62-4.83,10.28,10.28,0,0,0,.13-2.67c0-5.15,0-10.3,0-15.46a25.79,25.79,0,0,1,.64-3.75,19.58,19.58,0,0,0,.5-3.19c.06-4.86.2-9.73,0-14.57a31.6,31.6,0,0,0-1.59-6.88c-.4-1.45-.83-2.81-.3-4.35a11.49,11.49,0,0,0,.21-2.65c.23-3-1-6-.15-9.13.24-.91-.46-2.08-.78-3.12-.43-1.35-.38-2.53,1-3.39a6.54,6.54,0,0,0,.88-.79c3.43-3.27,3.75-7.16.81-11a8.27,8.27,0,0,1-1.78-5.19c0-3.75-.35-7.5-.58-11.25a3.9,3.9,0,0,0-.39-1.71c-1.27-2.15.34-3.77,1-5.55a1.32,1.32,0,0,1,.89-.7c1.13-.21,2-.5,2.27-1.9.3-1.75,1-3.56-.25-5.13a5.65,5.65,0,0,1-1.09-3.88c0-6.74,0-13.48,0-20.22,0-2.51,0-4.95-1.49-7.14a1.4,1.4,0,0,1,.4-2.23c1.12-.82,1.59-5.13.74-6a2.36,2.36,0,0,0-1.85-.4c-4.58.74-9.14,1.66-13.74,2.3a38.47,38.47,0,0,1-6.17.06c-1,0-2-.27-3-.28q-14.42,0-28.84,0c-.67,0-1.34.11-2.26.19.31,1.73.48,3.29.89,4.79,1.5,5.57,1.49,11.35,2.4,17a25.76,25.76,0,0,1-.79,10.82,6.9,6.9,0,0,0,.21,2.8c.29,1.54.84,3,1,4.6.31,2.74.51,5.51.57,8.27,0,1.56-.45,3.13-.5,4.7a39.23,39.23,0,0,0,.24,5c.25,2.45.85,4.88.87,7.33.08,13,.05,26,0,38.95,0,1.92.1,3.73,1.33,5.34a3.93,3.93,0,0,1,.41,4.46,15.69,15.69,0,0,0,0,14.79,6.06,6.06,0,0,1-.19,5.44c-.36.81-.63,1.66-1,2.47a3.47,3.47,0,0,0,.62,4.14c1.39,1.38,1.09,2.56,0,3.89-.84,1.08-1.44,2.21-.12,3.4.15.13.19.69.09.75-2,1.25-.66,2.8-.11,3.91a16.77,16.77,0,0,1,1,13.49,2.63,2.63,0,0,0-.15,1.46c.87,3.45-.38,6.87-.06,10.3a10.19,10.19,0,0,1-1.73,6.76v-3.93l-.77.1C677.25,677.09,677.5,678.37,677.75,679.65Zm60.72-53.51.81.23a10.88,10.88,0,0,0,1.48-2.7c.77-3.59-.71-6.95-1.37-10.39-.07-.36-1.09-.53-1.66-.79-.14.37-.28.73-.4,1.11a7.12,7.12,0,0,0-.48,1.64c-.17,2.4-1.12,5,1,7C739.13,623.41,739.5,624.55,738.47,626.14ZM737,601.25l.75.14c.62-1.08,1.67-2.12,1.78-3.25a68.82,68.82,0,0,0,.07-8c0-1.11-.75-1.7-1.77-1.37a2.08,2.08,0,0,0-1.13,1.42c-.37,2.16.59,4.58-1.35,6.44-.13.12,0,.58.09.84C735.91,598.73,736.45,600,737,601.25ZM652.88,629c-2.18,3.3-1.2,6.74-1,10.06,0,.3,1.11.78,1.67.73a2,2,0,0,0,1.45-1.06,4.75,4.75,0,0,0-.17-2.29C654.25,634.05,653.61,631.73,652.88,629Zm-5.36-130.71a40.64,40.64,0,0,1-2.07,3.78c-1.05,1.53-.35,2.27,1.13,3.05C647.74,502.89,647.71,500.62,647.52,498.24Zm5.84,155.34,1.28,1.4a18,18,0,0,0,1.52-3c.09-.3-.7-1.17-1.22-1.31C654,650.44,653.31,651.51,653.36,653.58ZM654.47,585l-2-4.38C651.25,582.92,652.63,584.06,654.47,585ZM654,531.14l-.5.1c0,1.37-.06,2.73,0,4.09,0,.27.66.48,1,.72.15-.32.49-.69.43-1C654.68,533.75,654.29,532.45,654,531.14Zm81.41,101.19-.6-.07-.84,5.12C735.65,635.94,735.57,634.15,735.36,632.33ZM647,485l-.5,3.56C649.05,487,649.09,486.79,647,485Zm2.39,42.16c.23.1.48.25.52.21,1.56-1.69,1.73-2.31,1-4.6C650.28,524.49,649.83,525.83,649.38,527.16Zm81.67,91.06-1,.23c.15.79.31,1.58.47,2.37l1.32-.48Zm7.6-40.64-.79.7c.61.6,1.21,1.22,1.86,1.79a4,4,0,0,0,.61-.5ZM652.86,592.8l.53-.3-1.31-3.29C651.31,591.16,652.21,591.93,652.86,592.8Zm1.66,50.38.69.18.74-2.51-.83-.22Z" transform="translate(-8.33 -7.36)"/><path class="cls-2" d="M423.2,428.09l-.2,1.58,2.18-.51a5.61,5.61,0,0,1,.37.81,12.66,12.66,0,0,0,.65,2.58,14.17,14.17,0,0,1,1.2,6.64,18.76,18.76,0,0,0,.56,3.46c.07.38.41.81.3,1.11-.89,2.48.51,4.64.85,6.95.51,3.41.94,6.85,1.17,10.29.2,3.15-.21,6.34,1.09,9.37a6,6,0,0,1,.44,2.33c-.1,8,1.66,15.95.43,24a17.34,17.34,0,0,0-.12,1.78c-.21,4.44-.29,8.89-.69,13.32a10.25,10.25,0,0,1-1.72,4c-1.12,1.82-1.31,2,.33,3.07a4.31,4.31,0,0,1,2.06,4.54c-.35,4.13-1,8.26-1,12.39,0,5.32-1.6,10.61-.32,16a4.15,4.15,0,0,1,0,2.07c-1.67,5.4-1.17,11.22-3.22,16.54a11.21,11.21,0,0,0-.51,1.71c-.05.25.06.78.14.79,2.89.23.79,1.9.75,2.85-.08,1.76-.43,3.52-.66,5.27a13.21,13.21,0,0,1-.5,3.19,4,4,0,0,0,0,3.68,2.6,2.6,0,0,1,.08,1.7c-.83,2.94-1.75,5.86-2.72,9l-1.79-1.44c-.13.12-.36.25-.35.36.55,6.23-1.92,11.87-3.47,17.67s-3.31,11.82-5,17.73a21.49,21.49,0,0,1-3.43,7.49A29.71,29.71,0,0,0,404.78,654c-.49,3-1.15,6-1.8,9-.16.72-.43,1.78-1,2-1.63.72-1.86,2.19-2.42,3.54-1.75,4.19-2.71,8.7-5.34,12.54-.94,1.36-1.33,3.09-2.09,4.59-.86,1.71-1.3,3.74-3.59,4.42-.57.18-.92,1.22-1.31,1.9-1.5,2.68-2.89,5.42-4.48,8a5.59,5.59,0,0,1-8.09,2c-.91-.53-1.49-.78-2.31,0a2,2,0,0,1-1.3.63c-3.7-.24-7.51.07-10.92-1.94a17.69,17.69,0,0,0-2.43-.93c-.61-.25-1.4-.39-1.78-.85-.75-.91-1.35-.79-2.47-.64a4.13,4.13,0,0,1-4.44-2.3,6.37,6.37,0,0,0-6.09-4c-.85,0-1.63-.21-1.73-1.22a1.75,1.75,0,0,0-2.29-1.68c-2.92.49-4.78-1.29-6.87-2.82-3.59-2.64-5.85-6.38-8.47-9.84q-1.53-2-3-4.06c-.46-.64-1.13-1.32-1.18-2-.2-3.16-2.33-5.41-3.59-8.07-.25-.52-.62-1.3-1-1.37-2.26-.4-2.41-2.31-3.12-3.89s-1.13-3.22-2.81-4.07c-.23-.11-.54-.51-.49-.64,1.09-2.65-1.05-4.47-1.79-6.6A76.47,76.47,0,0,0,303,638a4,4,0,0,0-.83-1.21c-1.45-1.31-2.5-2.6-.57-4.38.25-.22.16-.94.05-1.39a3.79,3.79,0,0,0-.67-1.31c-4.92-6.49-6.48-14.11-7.35-22-.65-5.88-1.18-11.78-1.76-17.67-.05-.5,0-1.13-.23-1.45-2.41-2.91-1.21-6.51-1.85-9.74a3.88,3.88,0,0,1,.76-2.48c1.37-2.08,1.2-4-.09-6-1.82-2.92-3.54-5.92-5.18-9a6.44,6.44,0,0,1-.55-2.84c-.06-4,0-7.93-.05-11.9a11.1,11.1,0,0,0,0-2.08,44.65,44.65,0,0,1-1.28-6.05c-.1-1.92.67-3.89.62-5.82a9.75,9.75,0,0,0-1.3-3.88,6.63,6.63,0,0,1-.61-4.85,55.09,55.09,0,0,0,1.16-7,8.41,8.41,0,0,0-.33-2.89c-.44-1.72-1-3.41-1.49-5.13a3.27,3.27,0,0,1-.21-1.74,4.42,4.42,0,0,1,1.41-2.07c.87-.6,1.37.28,1.83.95a9.51,9.51,0,0,0,1.08,1,9.47,9.47,0,0,0-.05-5.55c-1.44-3.75-.77-7.58-.71-11.65,1,0,2,0,2.92,0,2.15-.07,3-1.41,2-3.34-.22-.43-.69-.74-.89-1.17-.31-.65-.82-1.46-.64-2,.3-.94,1.21-1.2,2.21-.73a5.36,5.36,0,0,0,1.14.22c0-3.68,0-7.21,0-10.75a17.7,17.7,0,0,0-.24-1.76c-.36-3.67-.09-7.15,3.35-9.66l-1.83-1c3.23-1.83,5.52-4.13,4.09-8.27-.48-.07-1.51.06-1.77-.32a3.09,3.09,0,0,1-.23-2.27c.27-1,.86-1.9-.11-3-.21-.24.47-1.29.75-2a9,9,0,0,1,1.46.62,3.9,3.9,0,0,1,.79.95c2.39-1.43,1.69-3.54,1.26-5.81a8.09,8.09,0,0,0,1.82.28c.36,0,.93-.36,1-.65.31-1.31.48-2.66.76-4.37l-2.49,1c-.12-.2-.3-.37-.28-.5.31-1.75.55-3.53,1-5.25s-.06-2.24-1.68-2.19a6.54,6.54,0,0,1-1.52-.49l7.78-12c-1.82,0-3.09,0-4.35,0a8.08,8.08,0,0,1-2.61-.37c-.87-.34-1.47-.5-1.89.54a1.35,1.35,0,0,1-.58.47c-2.16-2.23-2,1-3.18,1.41a4.17,4.17,0,0,1-.35-1.05c-.23-6.43-.35-12.86-.67-19.28a5.73,5.73,0,0,1,2.64-5.26,12.6,12.6,0,0,0,2.39-2.55c.44-.6.89-1.34-.15-2-.26-.17-.22-1.05-.08-1.53.39-1.33.93-2.61,1.36-3.93.18-.55.5-1.33.27-1.7-1.44-2.34.13-4.14,1.06-6.8v3.43c2.24-2.72,4.29-5,3.85-8.41-.23-1.83,0-3.5,1.84-4.64.59-.37.76-1.37,1.25-2s1.05-1.35,1.68-1.46c1.61-.28,1.74-1.27,1.79-2.57.12-3.32,1.47-4.87,4.64-5.83a14.83,14.83,0,0,0,3.07-1.57c.9-.53,1.48-2.52,2.86-.56l3.31-1.54a2.48,2.48,0,0,1-.5,2.93c-.47.51-1,1-1.45,1.49-2.27,2.34-2.27,2.34-.27,5.41a12.44,12.44,0,0,0,1.17-1.63,1.85,1.85,0,0,1,2.12-1.11,7.3,7.3,0,0,0,6.57-2.7c.63-.76,1.45-1.36,2.08-2.12,3.61-4.36,8.52-6.6,13.63-8.64a47,47,0,0,0,6.41-3.66c.94-.57,1.78-1.14,3-.79,2.06.59,2.39.91,2.47,2.93a25.72,25.72,0,0,1,5-1.2c3.84-.16,7.69,0,11.53,0,3,.05,5.93.2,8.9.24,4.06.05,5.55,1.34,6.3,5.4a4.55,4.55,0,0,0,1.21,1.81c.51.58,1.21,1,1.68,1.62,3.22,4.1,3.21,4.11,3.88,8.89,1.89-.85,1.9-.86,2.9.66a26.14,26.14,0,0,0,1.35,2.3c1.5,1.85,1.84,3.67.21,5.62-.21.26-.19.71-.4,1.55l3.74-1.51c-.07,4.73,3.19,7.79,5.1,11.5a14.74,14.74,0,0,1,1.22,2.69c1.09,4,2.78,7.81,3,12a10.33,10.33,0,0,0,2,4.89,7.11,7.11,0,0,1,1.45,4.37,4.31,4.31,0,0,0,.57,2.27,12.14,12.14,0,0,1,1.73,7.67c-.11,1.88-.05,3.56,2.09,4.36a2,2,0,0,1,1,1.05c1.41,3.79,2,7.6-.06,11.37l-2.78-6.88-.77.12a12.69,12.69,0,0,0-.14,2.3,15,15,0,0,0,.64,1.93C420.76,427.84,420.74,427.85,423.2,428.09Zm-35.67-66.62h0a14.77,14.77,0,0,1-2.41-1c-.38-.24-.81-1.06-.67-1.32a1.88,1.88,0,0,0-.54-2.64,8.62,8.62,0,0,0-2.74-.71,1.66,1.66,0,0,1,.07-.5.88.88,0,0,1,.31-.5c2.6-1.31,1.93-3.2.93-5.15a8.17,8.17,0,0,0-.67-1.32c-.2-.27-.62-.62-.88-.57-1.45.28-3-.32-4.37.91a11.34,11.34,0,0,1-4,1.8c-1.59.53-3.29.75-4.87,1.32a3.8,3.8,0,0,0-2.23,1.67c-1,2.64-3.11,3.68-5.35,4.8a27.52,27.52,0,0,0-5.58,3.3c-1.86,1.59-4.35,2.75-4.93,5.56-.07.38-.69.67-1.08,1-1.55,1.23-3.16,2.39-4.65,3.68a3.82,3.82,0,0,0-1.46,2.08c-.15,1.68-1.19,2.64-2.18,3.75a12,12,0,0,0-2,2.88c-2.25,4.85-4.79,9.61-6.51,14.64-2.72,7.95-4.87,16.1-7.24,24.16-.92,3.13-2,6.22-1.82,9.58a3.65,3.65,0,0,1-.6,1.93c-.87,1.49-2.33,2.81-.78,4.74.21.25-.13.93-.2,1.42-.66,4.69-1.29,9.39-2,14.08-.9,6.16-1.88,12.31-2.72,18.47-.72,5.28-1.73,10.53-1.46,15.92a44.16,44.16,0,0,1-.37,5.61c-.45,5.61-1.2,11.21-1.3,16.82-.12,6.32.33,12.65.53,19a51.69,51.69,0,0,0,.16,6.23,28,28,0,0,1-.15,10.6,8.65,8.65,0,0,0,0,2.64c.38,4.62.76,9.24,1.22,13.85a24.57,24.57,0,0,0,.89,5.22c1.21,3.68,2.48,7.31,2.1,11.29a7.32,7.32,0,0,0,.31,2c.91,4.86,1.79,9.72,2.76,14.57,1.08,5.43,1.89,11,3.43,16.25,3.35,11.61,7.12,23.09,10.65,34.64,1,3.2,1.67,6.49,2.51,9.74.1.37.23,1,.47,1,1.67.46,1.63,1.93,2.19,3.16a9.39,9.39,0,0,0,2.71,3.39,5.46,5.46,0,0,1,2.27,3c1.13,4.31,4.37,7.22,7,10.52,1.08,1.36,1.69,1.24,2.84-.16,1.56-1.91,3.13-3.82,4.61-5.8a12.49,12.49,0,0,0,1.75-3.07q7.59-20.79,15.09-41.61c3-8.19,6-16.34,8.93-24.56a115,115,0,0,0,4.41-14.14c2.06-9.67,3.63-19.44,5.45-29.15,1-5.14,2.5-10.22,1.17-15.53a2.66,2.66,0,0,1,0-.89q.72-6.33,1.45-12.65c.28-2.45,1.2-5,.66-7.31-.74-3.1-.28-6.08-.34-9.11q-.16-7.43,0-14.86a20.3,20.3,0,0,1,1-5.79,38.49,38.49,0,0,0,1.92-10.16c.07-1.23.68-2.9-1.42-3.35-.21,0-.37-.66-.42-1-.19-1.27-.4-2.54-.47-3.81-.23-3.85-.29-7.7-.62-11.54-.21-2.44-.9-4.84-1.15-7.28-.34-3.34-.38-6.71-.72-10.05a47.88,47.88,0,0,0-1.31-8.47,38.78,38.78,0,0,1-1.29-15.77c-1.41.29-2.45-.2-2.52-1.63,0-.68.26-1.84.69-2,2.05-.74,1.51-2.11,1-3.37-2.26-5.13-2.69-10.5-2.4-16a21.27,21.27,0,0,0,0-3.57,3,3,0,0,0-.82-2c-.36-.24-1.28.37-2.05.63-.13-.33-.28-.79-.47-1.24-.66-1.55-.57-3.4-2.62-4.33-1.12-.51-.26-2,.24-2.92.13-.25,1-.3,1.5-.15,3.36,1.14,3.35,1.16,4.95-2,.18-.35.36-.7.53-1.06,1.17-2.38,1.22-2.43-.59-4.32a3.52,3.52,0,0,1-.95-4.22,15.27,15.27,0,0,0,.77-5.83,7.19,7.19,0,0,0-1.6-3.37C389.16,361.2,388.16,361.46,387.53,361.47Zm21.9,138.63,4.37-6.19-3.88-.77c.77-3.38,2.8-6.29,2.42-9.83-4.16,1.75-4.14,1.75-3.87,5.68a17.77,17.77,0,0,1-.11,2.06A22.47,22.47,0,0,0,409.43,500.1Zm-.73,52.32-.69-.19c-1,2.41-2.41,4.75-3,7.26-.48,2,0,4.28.09,6.43,0,.35.63,1,.92.94a2.48,2.48,0,0,0,1.42-.79,1.86,1.86,0,0,0,.29-1.11C408.07,560.78,408.38,556.6,408.7,552.42Zm-118-29.49-.4-.63c-1.91,1.28-3.22.7-4-1.19-1.86,2.15-1.68,6.07.4,10.07Zm118.38,22.19.34-.07c0-2.66.11-5.32-.07-8a2.46,2.46,0,0,0-1.58-1.73c-1.23-.18-1.28,1-1.2,1.89.13,1.32.44,2.63.68,3.94,1.07-.29,1,.45,1.13,1.15C408.54,543.28,408.84,544.19,409.08,545.12ZM396.55,412.93q-1.28-5.39-2.56-10.77C393.13,406.16,393.32,409.92,396.55,412.93Zm9.38,23.49c0-2.78,0-4.91,0-7,0-.37-.51-.72-.78-1.07-.3.32-.76.59-.87,1-.23.83-.25,1.73-.44,2.58C403.41,433.59,404.05,434.85,405.93,436.42ZM290.39,544.55c1.88-2.6,1.61-4.82.77-7.71C289.27,539.55,288.75,541.73,290.39,544.55ZM404.69,440c.36,1.61.48,2.49.76,3.31.14.39.65,1,.88.93a2.59,2.59,0,0,0,1.46-.87,1.27,1.27,0,0,0-.14-1.26A31.72,31.72,0,0,0,404.69,440Zm-9.56-43.64-1-.07c-.25.77-.51,1.55-.77,2.32l1.92.07C395.24,397.87,395.18,397.1,395.13,396.32ZM408.19,469c0,1.46.2,2.67,2.34,2.23Zm23.72,15.62-1.44-1-1,1.48c.22.1.49.34.67.28A14.66,14.66,0,0,0,431.91,484.66Z" transform="translate(-8.33 -7.36)"/><path class="cls-2" d="M573.08,360.28a15.64,15.64,0,0,1,1-2.46c1-1.65,2.34-1.78,3.78-.42.73.68,2.4.8,1.59,2.53-.06.13.67.64,1,1a7.69,7.69,0,0,1,2.2,3.37c2.19,6.74,4.16,16.48,4,22,0,1.13-.59,2.25-.68,3.39a38.44,38.44,0,0,0-.24,7c.21,2.09,1.1,2.16,2.74.49h0c-.33,1.85-.72,3.69-.93,5.55-.11.93-.24,2.31.28,2.78,2,1.83,1.91,4.27,2.32,6.55.49,2.66-.68,5.6,1.35,8-1,2.51.85,5.1-.36,7.68a4.64,4.64,0,0,0,.65,4.79c1.14,1.57.91,3.39.67,5.17-.13,1-.26,2-.44,2.93a10.68,10.68,0,0,0,.75,6.64c.82,1.69.25,3.34-.19,4.94a6.08,6.08,0,0,0,.66,5.09c1,1.62,1.74,3.31,1.22,5.34a5,5,0,0,0,.3,2c.06.28.38.66.28.79-1.23,1.75-.68,3.76-1,5.62a9,9,0,0,0,.18,3.56,12.48,12.48,0,0,1-.21,4.67c-.22,1.05-.54,1.9.44,2.65,1.21.94,1,2,.35,3.15a15.18,15.18,0,0,0-1.1,2.75c-.11.41,0,1.18.19,1.32,1.47.85,1.07,2.23,1.11,3.46q.08,3,0,5.95a6.8,6.8,0,0,1-.34,2.61,6.32,6.32,0,0,0-.41,4.89,2.36,2.36,0,0,1,0,1.46c-1.7,4.56.06,9,.45,13.45.11,1.28.2,2.56.26,3.84,0,.39,0,1.05-.17,1.13-2.54,1-1.1,2.89-1.1,4.49,0,2.07-.27,4.14-.26,6.2a17.49,17.49,0,0,0,.46,5.24,9.32,9.32,0,0,1-.77,7.68,3.35,3.35,0,0,0-.39.81c-.14.72-.23,1.46-.33,2.19l2-.16h0a15.47,15.47,0,0,1-.39,2,9.53,9.53,0,0,0,.14,7.21,5.4,5.4,0,0,1,.26,2.88c-.72,4.26-1.56,8.51-2.41,13l-2.86-2.38c0,1.54-.13,2.68-.07,3.8.1,1.9.22,1.95,2.65,1.3-.33,2.88-.63,5.68-1,8.47-.06.49-.13,1.22-.43,1.38-2.42,1.23-1.17,3-.8,4.66a4.75,4.75,0,0,1,.25,1.94,63.44,63.44,0,0,0-1.27,16.49c0,.49.26,1.09,0,1.45-2.16,3.8-1.63,8-1.92,12.09q-.59,8.28-1.24,16.54a3.53,3.53,0,0,1-.62,2c-2.32,2.55-1.8,6-2.81,8.9a2.64,2.64,0,0,0,.1,1.75c1.31,3.09-.37,5.18-2.2,7.35a10,10,0,0,0-1.77,3.33c-.85,2.74-1.49,5.54-2.27,8.3-.47,1.69-.6,3.52-2.2,4.74a2.15,2.15,0,0,0-.45,1.88c.47,1.55-.36,2.16-1.53,2.73-2,1-3.7,2.24-4.27,4.63-.13.55-.9,1.34-1.37,1.33-2.49,0-2.88,1.62-3.16,3.49a10.21,10.21,0,0,1-.29,1.06c-.73-.06-1.47-.15-2.22-.17-1.68,0-3,.25-3.61,2.26a4.29,4.29,0,0,1-4.15,3.18c-1.92.15-4.26-.12-5.56,2.12a1.6,1.6,0,0,1-1.54.27c-3-1.87-6.57-1.15-9.8-1.92-.74-.18-1.77-.27-2.12-.78-1-1.47-2.34-1.47-3.86-1.66a20.61,20.61,0,0,1-4.8-1.41c-3.93-1.52-7.83-3.11-11.72-4.74-1.7-.71-4.13-1.15-4.84-2.46-1.37-2.54-3.73-3.81-5.53-5.74a5,5,0,0,0-.41-.36l-1,1.06c-2.31-3.05-4.63-6.06-6.89-9.11a2.66,2.66,0,0,1-.56-1.6c.09-2-1.05-3.36-2.2-4.72-.57-.69-1.26-1.26-1.84-1.94-1.56-1.83-2.91-3.7-2.62-6.35a2.68,2.68,0,0,0-.91-2.23,2.28,2.28,0,0,1-1.37-2.65,11.65,11.65,0,0,0-1.82-7.06,12.29,12.29,0,0,1-1.78-7.1,4,4,0,0,0-1.65-3.58,5.93,5.93,0,0,1-1.72-3c-.77-3-1.4-6-1.92-9a96.88,96.88,0,0,1-1.28-16.84,29.1,29.1,0,0,0-.56-5,2.73,2.73,0,0,0-1-1.71c-1.63-1.1-1.84-2.74-2-4.43-.44-6.2-.8-12.42-1.27-18.62-.55-7.29-.93-14.6-1.81-21.84-2.63-21.61-1.43-43.31-1.7-65,0-1-.33-2.08,1.16-2.69.95-.39,1-2.43.05-3.39-1.15-1.12-1.2-2.38-1.26-3.78-.15-3.85-.44-7.7-.53-11.55a40.8,40.8,0,0,1,1.57-13.45,9,9,0,0,0,.18-2.66c0-4.56.1-9.12,0-13.68a56.93,56.93,0,0,1,1.39-14.42,26.89,26.89,0,0,0,.27-6.48c0-1.87-.35-3.74-.43-5.61-.23-5.73-.45-11.46-.59-17.19a32,32,0,0,1,.42-4.12c.45-4.42.94-8.83,1.34-13.25.45-5.12.66-10.26,1.33-15.34.22-1.65,1.52-3.17,2.41-4.7.63-1.09,1.08-1.93,0-3.15-.58-.66-.54-2-.54-3,0-1.37.33-2.74.38-4.12s0-2.74,2-3c.52-.08,1-1.1,1.31-1.78.69-1.75,1.2-3.57,1.89-5.32.18-.48.94-1.23,1.09-1.16,2.21,1.07,2.19-.74,2.57-1.94.26-.82.55-1.63,1.55-1.41,1.36.3,2-.42,2.59-1.42a3.12,3.12,0,0,1,.59-.67c.77-.73,1.5-1.93,2.7-1.31.8.41,1.28,1.43,2,2.36.81-.15,2-.31,3.13-.61a4.68,4.68,0,0,1,4.72,1c1.29,1.23,2.67,1.91,4.27,1.08.54,2.58,1.12,5,1.51,7.38a17.68,17.68,0,0,1,.07,3.85q-.53,8.58-1.14,17.15c-.31,4.13-.72,8.26-1,12.39a35.19,35.19,0,0,0-.09,3.56A10.58,10.58,0,0,1,502.4,385a19.56,19.56,0,0,0-1.19,5.44c-.33,2.24-.33,4.54-.74,6.77-.88,4.74.44,9.45,0,14.17-.37,4.43-.7,8.86-1.06,13.28-.21,2.56-.5,5.12-.66,7.68-.27,4.14-.51,8.28-.68,12.43-.23,5.53-.51,11.07-.53,16.6,0,4.34.38,8.69.54,13a6.19,6.19,0,0,1-.27,2.63c-.58,1.25-1.15,2.22.4,3.26.43.28.46,1.48.35,2.21-1.3,8.36-1.17,16.76-1,25.17a15.34,15.34,0,0,1-.31,2,3.22,3.22,0,0,0,0,1.69c1,1.85.82,3.84.82,5.81,0,2.77.07,5.55,0,8.32-.26,7.74,0,15.42,2,23a16.74,16.74,0,0,1,.39,3.82c.23,6.72.37,13.45.66,20.17.08,1.84.82,3.68-.84,5.24-.19.18,0,.75,0,1.14.27,2.84.56,5.69.81,8.53.12,1.43.26,2.73,2,3.28.45.14.85,1,.92,1.64.77,6,1.43,12,2.22,17.93a2.77,2.77,0,0,1-1,2.6c-1,.9-1.12,1.77-.12,2.78a5.93,5.93,0,0,1,1.41,4.1,26.72,26.72,0,0,0,.8,5c1,3.72,1,3.71,0,7.1,1.68-.23,2.41.65,2.87,2.15.56,1.79,1.43,3.47,2.16,5.21.19.45.56.94.51,1.38-.52,4.43,2.1,8,3.14,12,.3,1.2-.59,1.55-.87,2.31a2.63,2.63,0,0,0-.21,1.85,1.83,1.83,0,0,0,1.69.53c1.1-.5,1.15.26,1.42.87l5.91,13c.46,1,.93,2,1.42,3,1.8,3.64,3.92,4,7.45,1.73,3.91-2.53,6.61-6.1,9.44-9.69,3.72-4.72,4.58-10.45,6.41-15.84.93-2.71,1.63-5.5,2.45-8.25.2-.67.28-1.55.74-1.92,2-1.64,1.75-3.86,1.63-6-.3-5.32,1.13-10.41,2.11-15.54.92-4.85,2.18-9.64,3.26-14.46.24-1.08.87-2.06-.45-3.19-1-.83.48-4.08,1.8-5.11a3.13,3.13,0,0,0,.89-1.74c.85-4.16,2.26-8.22,1.93-12.57a21,21,0,0,1,.28-2.34,6.16,6.16,0,0,0-.23-1.34c-.52.21-1.27.27-1.51.65a16.45,16.45,0,0,0-1.12,2.73l-.65,1.74a4.56,4.56,0,0,1,.31-3.83c.71-1.42,1.38-2.85,2.14-4.25s1-2.38-.55-3.28-1.34-1.9-.46-3.19c.72-1.06,1.09-2.35,1.8-3.42,1.66-2.51,1.21-5.13.47-7.73-.14-.52-1.11-.81-1.7-1.21h0c.43-5.09.85-10.17,1.31-15.66l2.08,5h.48c.3-1.75.61-3.5.89-5.26.14-.87.15-1.78.36-2.63.32-1.31.05-2.13-1.41-2.33-.36,0-.93-.3-1-.55-.45-2.19-.86-4.39-1.14-6.61-.07-.54.25-1.61,1.15-.4a2.41,2.41,0,0,0,1.1-.59A5.13,5.13,0,0,0,567,522c-.46-1.72-.08-3.79-2.26-4.83-.41-.19-.44-1.63-.32-2.45.5-3.32,1.42-6.6,1.64-9.93.34-5,.34-10.06.23-15.08a5.05,5.05,0,0,1,.88-3.58c.49-.62.93-1.27,1.42-1.89,1.06-1.35,1-2.5,0-4a26.07,26.07,0,0,1-2-5.15c.79.87,1.59,1.73,2.39,2.6l.47-.41-2.29-4.63-.57.15v2.29c-1.74-2.43-1-5.34-1.5-8a2.21,2.21,0,0,1,.7-1.87c1.84-1,1.38-2.22.92-3.72a12.1,12.1,0,0,1-.13-2.9c-.07-1.42.47-3-1.18-4-.21-.12,0-1.58.22-1.63,3.16-.71,2-3.09,2.25-5.17a4.59,4.59,0,0,0-1,.19c-.53.3-1.4,1-1.48.94-.8-.84.24-1.1.61-1.58.06-.08.14-.14.2-.22,1.94-2.66,1.46-3.82-1.89-4.31.08-3-1.25-6.39,2.89-8.48l1.74,4.9c.71-.49,1.25-.83,1.75-1.22s.89-1.07,1.36-1.09c1.66-.07,2.63-.62,2.26-2.45-.23-1.12.77-2.71-1.18-3.2-.09-2-1.09-3.93-.12-5.93a5.64,5.64,0,0,0,.62-1.32c.14-.86,0-1.55-1.2-1.49-2.35.12-2.82.56-2.89,3.07a5.67,5.67,0,0,1-.4,2.43c-.33-.88-.66-1.76-1-2.64-.45-1.15-.51-2.68-2.43-2.33a.87.87,0,0,1-.69-.42,29.15,29.15,0,0,1-1.39-4c-.5-2.21-.88-4.46-1.2-6.7a66.67,66.67,0,0,1-.11-18.61,3.73,3.73,0,0,0,0-1.76c-1.37-3.59-1-7.41-1.65-11.1-.12-.75-.12-1.43-1.2-1.08-.12,0-.54-.35-.53-.52.13-1.8-1-3.61.41-5.42.74-1,.86-2.38,1.35-3.56.27-.67.73-1.82,1.08-1.81a4.08,4.08,0,0,1,2.26,1.06,8.33,8.33,0,0,1,1.34,1.92c-.1.37-.18.75-.3,1.12-.74,2.26-.5,2.56,2.64,2.62-.86-1.38-1.59-2.57-2.32-3.75q.89-3.24,1.77-6.51c.77.24.36,1.94,1.77.8s2.21-.83,2.37,1.05c.08,1.07,0,2.17.12,3.23.07.47.62,1.24.93,1.23.57,0,1.62-.5,1.62-.8.08-3.11,0-6.21-.1-9.32C573.83,360.53,573.35,360.41,573.08,360.28Zm-4.76,142.14c.07,1.51-.38,3.2,1.72,4Zm6.65-2.95c.24,1.3.47,2.61.75,4.13a17.39,17.39,0,0,0,.83-8.51c-.42-3.12-1.11-6.21-1.71-9.3a9.8,9.8,0,0,0-2.58-4.83,7.3,7.3,0,0,0-.14,2.26,23.56,23.56,0,0,1,.06,4.67,5.16,5.16,0,0,0,.72,3.92,3.5,3.5,0,0,1,.73,2.1c-.23,1.43-.87,2.79-1.19,4.22-.21.95-1.56,2-.36,2.78C572.49,501.19,573.81,500.09,575,499.47Zm-4.85,50h0c0,1.28,0,2.56,0,3.84,0,.91.09,1.83,1.29,1.95s1.61-.53,1.69-1.56c.11-1.5,1.78-3-.09-4.54-.16-.14.19-.89.28-1.36a14,14,0,0,0,.38-2,1.44,1.44,0,0,0-1.53-1.73c-1.13-.06-2,.28-2,1.57S570.12,548.22,570.12,549.5ZM572,579.65c-.07-1.23-.05-2.33-.22-3.4s-.71-1.88-2-1.83-1.53,1.09-1.45,2.12c.13,1.87.3,3.75.6,5.6.09.56.64,1,1,1.56.61-.41,1.54-.69,1.77-1.26A9.22,9.22,0,0,0,572,579.65Zm-3.91,36.19c.76-2.28,1.75-4.1.4-6a1.94,1.94,0,0,0-1.43-.67,1.36,1.36,0,0,0-.88,1C566.33,612,566,614.09,568.05,615.84Zm11-65.9c-1.29,1.9-1,5.88.67,7.09A1.4,1.4,0,0,0,581,557a1.32,1.32,0,0,0,.41-1.19C580.67,553.79,579.83,551.86,579,549.94Zm-3.15-17.34c-4.51.41-5.61,1.56-2.78,4.64Zm-4.21-129.12-1,.14c0,1.43-.08,2.87,0,4.29,0,.49.65,1.31,1,1.31a1.18,1.18,0,0,0,1.13-1.64C572.51,406.21,572.08,404.85,571.67,403.48Zm9,83.58c-1.89,3.72-1.84,4.11.72,6.33C581.15,491.22,581,489.47,580.67,487.06Zm-7.12-13.87c-1.68,2.69-1.63,2.88.81,4.43C574.1,476.16,573.88,475,573.55,473.19Zm-3.28,17c-2.85,1.27-2.91,1.76-.8,3.3C569.7,492.55,569.93,491.63,570.27,490.22ZM566,406.91v5.2C567.2,409.8,567.2,409.8,566,406.91Zm-.89,212.17c-.44,1.43-.66,2.33.51,2.66.3.09.77-.43,1.16-.67ZM578.68,426a9.06,9.06,0,0,0-.2,1.59c0,.18.34.35.52.52a6,6,0,0,0,.44-1.25C579.46,426.64,579.1,426.42,578.68,426Z" transform="translate(-8.33 -7.36)"/><path class="cls-2" d="M987.55,497.27c0,1.75,0,3.11,0,4.47,0,.3-.4.58-.62.87-.28-.23-.69-.41-.83-.7-2-4.43-2-4.43-2-9.73,0-3.17-.05-6.35,0-9.52.08-4.56.35-9.09,2.46-13.29a4.36,4.36,0,0,0,.43-2c-.11-4.05-.29-8.09-.45-12.14-.08-2.09-.34-4,1.17-6.05,1.17-1.62,1-4.36,1-6.61s-.39-4.72-.49-7.08c-.19-4.15-.29-8.31-.4-12.46,0-.37,0-.95.24-1.08,1.77-1,1.38-2.74,1.32-4.26-.25-6.36.79-12.61,1.62-18.88a29.39,29.39,0,0,0,.15-5.93,23.59,23.59,0,0,1,2.3-11.53,15.74,15.74,0,0,0,1.28-6.63c-.06-6.94,0-13.88,0-20.82,0-1.9,0-3.73,1.25-5.38.69-.92.94-2.15-.15-2.92-1.47-1-1.05-2.45-1-3.78.13-2.76.52-5.52.47-8.27a20.11,20.11,0,0,1,1.46-6.93,2.7,2.7,0,0,1,2.92-2,44.27,44.27,0,0,0,4.75,0c.74-.05,1.81-.21,2.12-.71,1.21-2,3-1.33,4.1-.55a12,12,0,0,0,6.45,1.84c2.11.15,3.91.56,5,2.5.73,1.26,2,1.07,3.17,1.14,2.76.17,5.69,2.84,5.62,5.47-.16,5.33,1.27,10.39,2.39,15.5s2.07,10.26,1.83,15.57a101.2,101.2,0,0,0,1.08,16.85c.4,3.23.44,6.5.72,9.75s.75,6.48.93,9.72c.21,3.66.1,7.33.27,11,.08,1.86.48,3.7.73,5.55a29.43,29.43,0,0,1,.38,3.22c.06,2.78-.34,5.61.11,8.31.6,3.66-.07,7.41.74,10.89a10.91,10.91,0,0,1,.16,5.94c-.33,1.18.58,2.67.73,4,.3,2.75.46,5.51.69,8.26.19,2.37.41,4.73.62,7.09,0,.29,0,.67.18.86,2.76,3.07,1.3,7,2.11,10.45a42,42,0,0,1,.78,6.15c.22,2.66.25,5.33.5,8,.2,2.14.55,4.28.91,6.41.59,3.5,1.23,7,1.85,10.49,0,.1.07.22,0,.29-1.67,3.23.45,6.39.2,9.6-.06.89.58,1.83.81,2.77a16.41,16.41,0,0,1,.82,4,48,48,0,0,1-.6,9.15c-.63,3.11.26,5.58,1.83,8.05a5.86,5.86,0,0,1,.79,4.79,27.45,27.45,0,0,0-.54,5.59,2.22,2.22,0,0,0,.77,1.73c1.26.72,1.3,1.6.79,2.73-1.78,4-1,8.19-1.1,12.33a2.58,2.58,0,0,0,.5,1.66c2.94,3.27,3.08,7.41,3.52,11.42a7.12,7.12,0,0,0,1.41,4.11,4.43,4.43,0,0,1,.78,4.48c-1.6,4.65-1.06,9.33-.45,14.06.41,3.13.46,6.3.76,9.45.08.86-.73,2.42,1.33,2.21a3.59,3.59,0,0,1,.42,1.52c0,3,0,5.95,0,8.92,0,.91,0,1.87,1.39,1.74.14,0,.55.85.5,1.26-.23,1.87-.67,3.71-.84,5.57a4.25,4.25,0,0,0,.46,2.76c3.28,4,3.25,8.51,2.49,13.22-.61,3.8-1.09,7.62-1.72,11.41a2.37,2.37,0,0,1-1,1.59c-1.87.92-.72,1.78-.15,3.08l3.17-3.74c2,.62.38,4.38,3.79,3.39-1,2.39-1,4.78-3,6.66-.21-1.14-.35-2-.55-3.1-1,.89-1.72,1.71-1.12,2.7.72,1.2-.05,1.61-.64,2.44a14.21,14.21,0,0,0-2.81,8c0,1.47,0,2.94,0,4.76-3-2.27-2-5.37-2.45-8.13-2.44.77-1.13,3.13-2.43,4.53-.46-1.24-.84-2.28-1.41-3.84L1052,684.6l-1.21-3.25a11.28,11.28,0,0,0-.77,2.35c-.09,1.58,0,3.17-.06,4.75,0,1,0,1.87-1.37,2.24-.66.16-1.1,1.42-1.51,2.24-.85,1.71-1.48,1.83-2.76.4-.2-.22-.31-.59-.55-.69-2.49-1-2.56-3.2-2.89-5.45-1.42-9.68-3-19.34-4.52-29-1.49-9.37-3-18.73-4.5-28.1-1.71-10.93-3.34-21.88-5.05-32.82-1-6.43-2.07-12.85-3.14-19.46-.38.29-.76.44-.77.6-.11,2.63-1.68,4.42-3.09,6.5a35.76,35.76,0,0,1-8.57,9.13,33.83,33.83,0,0,0-7.61,8.25,30.09,30.09,0,0,0-4,8.9c-1.88,6.76-3.28,13.65-5,20.45a50.23,50.23,0,0,1-2.23,6.11c-.43,1.07-.69,1.92.89,2.08,1,.1,1.34.74,1.37,1.64,0,2,.34,3.95-1.8,5.25a4.14,4.14,0,0,0-1.82,4.12,34,34,0,0,1,0,5,15.2,15.2,0,0,1-.88,4.62,10.57,10.57,0,0,0-.58,6.39c.24,1.14.37,2.05-.8,2.85-.44.3-.56,1.2-.65,1.84-.55,4.21-1.12,8.42-1.56,12.64a44.63,44.63,0,0,0-.18,6.23,9.59,9.59,0,0,1-2.16,6.61l-1.71-5.58h-.47l-1.32,4.29c-.75-1.83-.57-4-2.83-4.71-.21-.07-.38-1-.24-1.34a22.92,22.92,0,0,1,2.1-4.83c1.85-2.71,1.81-4.41-.49-6.75a10.34,10.34,0,0,1-1.25-2.6c-1.25,2.53-2.44,4.63-1.16,7.22a1.61,1.61,0,0,1-.23,1.49c-1.34.93-1.39,2.32-1.57,3.68-.24,1.86-.42,3.73-.7,5.58a4.08,4.08,0,0,1-1.2,2.28,11,11,0,0,1-.54-2.34,4,4,0,0,0-2.95-3.65c-1.78-.62-1.88-1.74-1.35-2.73.92-1.71.78-3.44.8-5.2,0-2.82,0-2.82,2.87-4l1.41,2.78c1.67-2.34,1.83-4.85,2.43-7.17.13-.52-.4-1.29-.78-1.84s-1.24-1.08-1.57-1.76c-1.17-2.41-.51-5.54-3-7.44-.37-2.68-.43-5.32.89-7.82A4.05,4.05,0,0,0,972,653c.07-2.6.38-5.05,2.13-7.19.48-.58.38-1.71.4-2.59,0-2,.06-4,0-5.94a4.82,4.82,0,0,1,1.55-4.24c.84-.74,1.17-2.25,1.38-3.48.86-5,1.58-9.94,2.34-14.91a3.18,3.18,0,0,0-1.24-3.57l-1.21,2c-.17-.2-.33-.31-.38-.46-.62-1.91-.62-4.25-3.46-4.55-.3,0-.62-.91-.75-1.45A71.61,71.61,0,0,1,971,586.19a4.48,4.48,0,0,1,.56-2,5,5,0,0,0,.47-3.23c-.18-1.69.92-3.52,1.46-5.3a16,16,0,0,0,1-3.31,58.83,58.83,0,0,0,0-5.94c0-2.69-.13-5.34,1.78-7.6a2,2,0,0,0-.33-2.92,2.75,2.75,0,0,1-.89-2.92c1-5.22,1.11-10.58,2.87-15.71a22.2,22.2,0,0,0,.71-7,9.56,9.56,0,0,1,1.73-6.13,2.82,2.82,0,0,0,.36-2.45c-1.4-2.6.2-4,1.89-5.69.48,1.4.91,2.66,1.47,4.27a20.72,20.72,0,0,0,1.38-1.61,9.76,9.76,0,0,1,3.78-3.59c2.14-1.05,2.81-3.22,2.46-5.6-.4-2.64-.76-5.29-1.24-7.91A5.11,5.11,0,0,0,987.55,497.27Zm26.16-9.14-.53-.05a6,6,0,0,0-.58.9c-1.88,4-1.78,8.46-2.37,12.74-.64,4.59-1,9.21-1.53,13.82-.07.68-.06,1.37-.07,2.05a33.72,33.72,0,0,1-.09,3.77c-.28,2-1,3.88-1.07,5.83-.15,5.35-1.39,10.57-1.84,15.83a179.64,179.64,0,0,1-2.63,20.83c-.87,4.23-.83,4.43,3.48,4.95,3.66.44,7.42,1.29,11-.84a4.79,4.79,0,0,1,6,.39Q1018.55,528.24,1013.71,488.13ZM976.84,634.05c-.39,2.17-.71,3.94-1,5.76a18,18,0,0,0,2.58-.87c1.48-.75,2.65-4.47,1.5-5.18l-1.45,2Zm7.2.6h-.57c-.38,1.22-.82,2.42-1.09,3.66-.07.35.36.8.56,1.21.37-.36,1-.68,1-1.07A37,37,0,0,0,984,634.65Zm-3.14-76.8c-1.16.93-2.25,1.45-2,2.73a1.69,1.69,0,0,0,2,1.29Zm78.76,118.87c1.31-2,1.31-2,0-4.64Zm-78.88-5.22c1.39-.9,1.19-1.8,0-3.32Z" transform="translate(-8.33 -7.36)"/><path class="cls-2" d="M906.13,509.56c-.79.88-1.54,1.8-2.38,2.63-1.21,1.21-2.76,1.08-4.19.67s-1-1.73-1.16-2.78a10.09,10.09,0,0,0-.23-1.46c-.6-2.24-1.62-2.67-3.31-1.09a5.08,5.08,0,0,1-4.33,1.41,4.54,4.54,0,0,0-4.95,2.39c-1.32,2.28-3.37,3.8-5.47,5.34a68.53,68.53,0,0,0-6.3,5.65,4.35,4.35,0,0,1-5.71-.29c-.31-.37-1-.87-1.26-.75-2.17,1.1-4.48.7-6.73.73-1.52,0-2.81.11-2.81,2.12,0,1.15-.83,1.45-1.83,1.46a4,4,0,0,1-.6,0c-3.28-.48-6,.74-8.48,2.74-.95.76-2,1.76-3.44.68-.16-.12-1.09.39-1.27.78a6.38,6.38,0,0,0-.4,2.31,57.94,57.94,0,0,1-.89,9.7c-.59,3-1.08,6.39.16,9.57a5.77,5.77,0,0,1,.06,2.35c-.14,2.17-.53,4.33-.47,6.49a40,40,0,0,1-1.34,11.16,6.08,6.08,0,0,0-.11,3l1.93-2.11a13.51,13.51,0,0,1,.6,2.46,51.69,51.69,0,0,1-.73,12.42c-.23,1.06-.26,2.17-.53,3.22a2.3,2.3,0,0,0,.69,2.67,2.38,2.38,0,0,1,.59,3.19c-1.16,2.5-1.19,5.16-1.16,7.86.06,4.16.18,8.33,0,12.48a17.32,17.32,0,0,0,2.11,9.42,5.38,5.38,0,0,1,0,5,58.84,58.84,0,0,0-2.42,8.52,2.18,2.18,0,0,0,.91,1.89c1.69.8,1.67,2.15,1.84,3.69a44.17,44.17,0,0,0,1.31,6.63,1.9,1.9,0,0,0,1.49,1.06,9,9,0,0,0,3.41-.73c2.06-1,4-2.09,6-3.25,5.11-3,10.86-4.24,16.43-6,.56-.18,1.31-.14,1.69-.5,2.61-2.49,5.85-2,9-1.92,1.81,0,3.33-.29,4.27-2,1.75,2,1.67,1.81,3.94.86a20.47,20.47,0,0,1,6.51-1.73,16.19,16.19,0,0,0,7-2.15c1.24-.68,2.4-1.23,3.85-.23s2.46-.24,3.54-.83c2.88-1.59,3-1.74,5.3.46,1.58,1.49,3.59,1.58,5.41,2.26,3,1.12,3.74,2.46,2.37,5.39a12.12,12.12,0,0,0-1.24,6,3,3,0,0,1-1.4,2.75c-2,1.5-3.71,3.28-5.69,4.75a16.23,16.23,0,0,1-4.14,2.23c-4.29,1.54-8.63,2.93-13,4.36-1.26.41-2.43.8-2.65,2.4-.17,1.23-1.15,1.54-2.22,1.5-2.22-.09-4.34-.07-5.73,2.15a2.17,2.17,0,0,1-1.58.71c-5.27,0-9.21,3.18-13.49,5.61-3.16,1.8-6,4-9.64,5.17-2.33.74-4.3,2.76-6.28,4.4-2.68,2.22-5.33,4.4-8.91,5.08A3.6,3.6,0,0,0,845.9,691c-.94,1.51-2.22,1.78-3.8,1.72-2.65-.09-5.27.11-7.89-.93-1.47-.58-3.33-.28-5-.24a7.71,7.71,0,0,1-5.3-1.49c-.92-.73-2-1.22-3-1.86a9.35,9.35,0,0,0-5.34-1.5c-3,.07-2.91,0-3.43-2.93a30.33,30.33,0,0,1,.08-12.08,11.78,11.78,0,0,1,1.17-3.28,7.72,7.72,0,0,0,.94-6c-.26-1-.07-2.21-.36-3.23a57.8,57.8,0,0,0-2.29-6.68c-.67-1.58-1.34-3-.77-4.8a12.54,12.54,0,0,0,.36-3.83,3.34,3.34,0,0,0-.62-2.17c-1.4-1.46-1.45-3.16-1.42-5,0-2.68.1-5.36,0-8-.21-4.94-.56-9.86-.76-14.8a7.53,7.53,0,0,1,.44-3.46c1.24-2.57,1-5.24.86-7.88-.36-4.83-.85-9.64-1.41-14.44-.22-2,1-2.8,2.82-3.68-2.87-1.67-2.81-3.9-2.15-6.35a6.2,6.2,0,0,0-.12-2c-.27-2.64-.72-5.28-.79-7.93-.13-4.65-.05-9.31,0-14a32.18,32.18,0,0,1,.89-8.82c.73-2.61.43-5.5.9-8.21a15.31,15.31,0,0,0-.37-8.17,6.08,6.08,0,0,1-.24-1.76,101.35,101.35,0,0,1,1.8-23.9c.05-.29.11-.77.26-.81,2.23-.64,2.46-2.93,3.7-4.38a3.46,3.46,0,0,1,1.38-1c.9-.32,1-.84.68-1.61-.76-1.78.17-2.91,1.67-4.32.42,1.65.7,3,1.11,4.24a5.28,5.28,0,0,0,.95,1.26c.29-.38.79-.74.81-1.13.11-2,.12-4,.07-5.94a1.73,1.73,0,0,0-.62-1.26c-1.12-.7-1.06-1.76-1.16-2.86a12.86,12.86,0,0,0-1.17-4.44,27.27,27.27,0,0,0-1.15,5,8.83,8.83,0,0,1-1.52,4.4c-1.3,2.11-3.34,2.45-5.17.76a8.83,8.83,0,0,1-2.41-9.56c1.48-4.47.68-8.73.32-13.1-.24-3.05-.53-6.1-.72-9.16-.26-3.84-.37-7.7-.67-11.54-.26-3.34-.72-6.67-1-10-.25-2.65-.45-5.31-.63-8-.24-3.65-.41-7.3-.68-10.95-.3-3.93-.7-7.86-1-11.79-.25-2.85-.5-5.71-.69-8.56-.43-6.31-.77-12.62-1.26-18.92s-1.13-12.39-1.66-18.58c-.28-3.25-.42-6.51-.71-9.75a22.47,22.47,0,0,0-.83-5.54c-1.17-3.21-.83-6.45-.91-9.7,0-1.37.58-2,2-2a8.22,8.22,0,0,1,2.06.13,19.91,19.91,0,0,0,7.3,1.07,2.28,2.28,0,0,1,1.66.46c1.23,1.4,3.33.4,4.56,1.75.18.2.79.12,1.15,0,1.76-.55,3.49-1.19,5.25-1.73a9.67,9.67,0,0,1,2.59-.51c9.31,0,18.63,0,27.95,0,1.1,0,2.22-.06,2.84,1.14.75,1.47,2.18,1.44,3.38,1.16,2.93-.67,5.78.25,8.67.23,1,0,1.92.19,2.78-.51,1.09-.89,2.2-.62,3.31,0,.68.4,1.45.65,2.11,1.09a3.86,3.86,0,0,0,4.7,0,4.32,4.32,0,0,1,4.45-.43,10.55,10.55,0,0,0,3.83.22c1.78,0,3.58-.86,5.19,1,.5.57,2.07.24,3.16.27s1.84.17,2.22,1.45a9.4,9.4,0,0,0,1.6,2.43c-.62,1.54-1.27,3.06-1.83,4.61a3.19,3.19,0,0,1-2,2.3c-2,.74-2.12,1.43-1.75,3.61a11.56,11.56,0,0,1-.22,2.83c-3.37-.81-5-.05-6.26,2.94a4.45,4.45,0,0,1-3.13,2.87A15.36,15.36,0,0,0,881,364a19.8,19.8,0,0,0-4.07,3.7c-.83.91-1.21,2.82-2.06,3a24,24,0,0,1-6.16-.05,3.18,3.18,0,0,1-1.34-.61,1.8,1.8,0,0,0-2.78.68A4.13,4.13,0,0,1,861,372.9c-.72,0-1.39.92-2.27,1.55-.81-1.57-2.11-2.09-3.93-1.05a3.76,3.76,0,0,1-2.27.35c-3.57-.57-6.93-.44-10.25,1.39-1.76,1-3.94,1.24-6,1.69-1.4.31-1.89.81-1.77,2.41.42,5.22.63,10.46.81,15.7.25,7.61.4,15.22.64,22.84a4.82,4.82,0,0,0,.48,2.28c1.27,2.08,1.27,4.32,1.25,6.61,0,5-.08,9.92,0,14.87.16,9.79.4,19.59.63,29.38,0,.66.06,1.64.47,1.92,1.55,1.06,1.29,2.55,1.29,4,0,4,0,7.93,0,11.89,0,2.82.39,3.25,3,2.95,5.59-.63,11.16-1.5,16.76-2.06a71.42,71.42,0,0,0,14.48-3,12.87,12.87,0,0,1,3.24-.25c4.35-.19,8.7-.29,13-.58a12.4,12.4,0,0,0,4.29-1,3.79,3.79,0,0,1,4.18.25c1.82,1.33,3.57,2.76,5.32,4.19.61.5,1,1.27,1.7,1.64,3.39,1.88,2.33,4.71,1.65,7.44-.08.32-.71.48-1,.78-.82.79-2.19,1.56-2.28,2.44-.31,3.07-2.11,5.24-4.18,8l5.79.11ZM818.64,660.45c3.07-4.63,3.82-9.42,1.27-14.46Zm-1.31-105.24.76,0c0-2.26,0-4.51,0-6.76,0-.37-.66-.71-1-1.06-.33.42-1,.88-.95,1.25C816.41,550.83,816.9,553,817.33,555.21Zm-1.12,109.15c-2.06,3.61-.45,7.19,0,10.78Zm2.89-122.08c1.43-2.2,1.43-2.2-1-2.87Z" transform="translate(-8.33 -7.36)"/><path class="cls-2" d="M465.79,673.61c-1.39-.48-2.77-1.08-3.21,1.07-.05.25-.31.65-.46.65-2.7,0-3.7,2.72-5.87,3.52-.45.17-1.06.48-1.18.85-1.17,3.63-4.85,3.93-7.47,5.47-6.39,3.74-13,7-19.59,10.51-1.3.68-2.66,2-3.85,1.89s-2.31-1.69-3.37-2.71c-3-2.87-6.06-5.67-8.83-8.74-1.83-2-1.49-3.15,1.05-4.27a50.27,50.27,0,0,1,6.21-1.94c1.22-.36,2.25-.72,1.9-2.41-.08-.38.58-1.12,1.06-1.38,1.48-.78,3.06-1.38,4.57-2.11,1.19-.58,2.31-1.16,3.58-.15a1.63,1.63,0,0,0,1.07.27c.83-1.55,2.91-1,3.88-2.41,1.26-1.82,2.79-2.14,5.26-1.87,4.61.5,9.39,1.2,14-.62a8.59,8.59,0,0,1,6.64,0,23.19,23.19,0,0,0,3.33,1.26C466.24,670.94,466.52,671.9,465.79,673.61Z" transform="translate(-8.33 -7.36)"/><path class="cls-2" d="M970.16,635.44c.11-1.49.16-2.74.32-4,0-.31.44-.57.67-.85.31.31.89.63.87.92a27.1,27.1,0,0,1-.52,4.4,53.43,53.43,0,0,1-1.79,6.82,9.61,9.61,0,0,0-.26,4.93c.35,2.2,1.29,4.43.1,6.66a5.63,5.63,0,0,1-1.12,1.71c-1.57,1.3-2.78.91-3.16-1.1-.45-2.39-1.13-4.78.44-7.14a5.58,5.58,0,0,0,.61-4.84c-.45-1.5-.43-3.14-.83-4.66s0-2.08,1.13-3.15C968.05,633.78,968.69,635.19,970.16,635.44Z" transform="translate(-8.33 -7.36)"/><path class="cls-2" d="M969.34,627V611.68c.84.26,1.49.42,2.1.65,2.39.92,2.4.93,2.45,3.38,0,.89,0,1.78,0,2.67C973.9,623.45,973.9,623.45,969.34,627Z" transform="translate(-8.33 -7.36)"/><path class="cls-2" d="M962.24,679.77c-1.06-1.67-1.55-3.3-.36-5.2a6,6,0,0,0,.73-2.52c.17-1.47.14-3,.23-4.44a2.38,2.38,0,0,1,.3-.83,36.49,36.49,0,0,1,3.48-6c-.15,1.26-.2,2.54-.47,3.78-.54,2.47-.25,5.09-1.65,7.45-.43.72,0,2.08.3,3.08C965.74,678.34,965.71,678.47,962.24,679.77Z" transform="translate(-8.33 -7.36)"/><path class="cls-2" d="M906.13,509.56c.22-1.74.43-3.48.65-5.22.09-.74-.07-1.7,1.11-1.67s2.44,1.46,2.15,2.3a6.46,6.46,0,0,1-1.32,2.23,30.59,30.59,0,0,1-2.59,2.36Z" transform="translate(-8.33 -7.36)"/><path class="cls-2" d="M968.57,792.65c.57-1.5,0-2.47-1.4-3.08a15.41,15.41,0,0,1-2.38-1.16c-.21-.14-.22-.81-.09-1.15.06-.16.95-.23,1-.13.78,1.82,2.54,1.58,4,2a14.81,14.81,0,0,1,2.08,1c.67.31,1.35.59,2.21,1l-5.4,1.53Z" transform="translate(-8.33 -7.36)"/><path class="cls-2" d="M287,479.74c-.82-2.31-1.18-4.62.51-6.79.62-.8,1.45-.6,1.68.39a3.75,3.75,0,0,1,0,1.73c-.45,1.58-1,3.12-1.54,4.68Z" transform="translate(-8.33 -7.36)"/><path class="cls-2" d="M513,735l-2.51-1.47c2.83-3.84,3.41-4,6-1.43L513,735Z" transform="translate(-8.33 -7.36)"/><path class="cls-2" d="M741.5,678.53c1.17-.14,2-.26,2.9-.35,1.45-.15,1.85.22,1.54,1.59a22.2,22.2,0,0,1-1,2.68C743.47,681.23,741.5,680.91,741.5,678.53Z" transform="translate(-8.33 -7.36)"/><path class="cls-2" d="M966.67,783.82c1.5,0,3-.08,4.5,0a1.57,1.57,0,0,1,1.17,1,1.71,1.71,0,0,1-.85,1.34,2.61,2.61,0,0,1-1.92.22,24,24,0,0,1-3.11-1.84Z" transform="translate(-8.33 -7.36)"/><path class="cls-2" d="M290.06,452.55a10.94,10.94,0,0,1-1,8C289.17,457.83,288,455,290.06,452.55Z" transform="translate(-8.33 -7.36)"/><path class="cls-2" d="M295.55,426.17a17.84,17.84,0,0,1-.65-3.31,2.85,2.85,0,0,1,.85-2c.38-.32,1.23-.1,1.86-.12a9.25,9.25,0,0,1-.36,1.49C296.74,423.53,296.17,424.75,295.55,426.17Z" transform="translate(-8.33 -7.36)"/><path class="cls-2" d="M970.43,708.76l.93-5.73.69.12a8.72,8.72,0,0,1-.84,5.78Z" transform="translate(-8.33 -7.36)"/><path class="cls-2" d="M970,699.91c-.36-1.38-.53-2.71,1.59-4.13-.34,1.82-.56,3-.79,4.26Z" transform="translate(-8.33 -7.36)"/><path class="cls-2" d="M328.48,352.81c-.52-.22-.67-.24-.68-.29-.33-1.11-.69-2.24.34-3.2a.55.55,0,0,1,.53,0C329.59,350.64,328.38,351.55,328.48,352.81Z" transform="translate(-8.33 -7.36)"/><path class="cls-2" d="M754.67,845.54l-3.51.51c1.59-1.51,1.59-1.51,3.44-1.15Z" transform="translate(-8.33 -7.36)"/><path class="cls-2" d="M573.08,782.54a3.79,3.79,0,0,1-.34.45c-.68.68-1.68,1.1-2.21.23-.74-1.21.39-1.61,1.36-1.88h0l1.18,1.19Z" transform="translate(-8.33 -7.36)"/><path class="cls-2" d="M451,794.13c.16-.31.19-.43.26-.48.72-.45,1.4-1.19,2.32-.41a.55.55,0,0,1,0,.54C452.9,794.57,452.12,795,451,794.13Z" transform="translate(-8.33 -7.36)"/><path class="cls-2" d="M458.79,788.85l-2.52,1.53-.33-.56C456.78,789.33,457.22,788.16,458.79,788.85Z" transform="translate(-8.33 -7.36)"/><path class="cls-2" d="M525.51,725.71c.61-.26,1-.55,1.22-.47s.41.52.62.8c-.29.15-.59.44-.87.42S526,726.1,525.51,725.71Z" transform="translate(-8.33 -7.36)"/><path class="cls-2" d="M802.05,818.22c.29-1.68,1.6-2.07,3-2.38h0l-3,2.38Z" transform="translate(-8.33 -7.36)"/><path class="cls-2" d="M411.09,828.37c-.55.25-.77.44-1,.43a2.22,2.22,0,0,1-.72-.33c.15-.19.31-.53.46-.53A5.19,5.19,0,0,1,411.09,828.37Z" transform="translate(-8.33 -7.36)"/><path class="cls-2" d="M935.83,837.51l-1.06.59c-.11-.2-.35-.46-.29-.6a.9.9,0,0,1,.58-.5C935.22,837,935.44,837.24,935.83,837.51Z" transform="translate(-8.33 -7.36)"/><path class="cls-2" d="M710.42,842.19a8,8,0,0,1-1,.64s-.39-.4-.35-.53a1,1,0,0,1,.56-.53C709.76,841.72,710,842,710.42,842.19Z" transform="translate(-8.33 -7.36)"/><path class="cls-2" d="M545.57,829.51l1.32-.82.24.41-1.32.8Z" transform="translate(-8.33 -7.36)"/><path class="cls-2" d="M560.05,775.81l-.41.82c-.2-.17-.52-.32-.55-.51s.19-.49.3-.73Z" transform="translate(-8.33 -7.36)"/><path class="cls-2" d="M689.28,747.22c-.11.26-.19.56-.25.56a3.47,3.47,0,0,1-.75-.2c.07-.16.12-.45.21-.46A2.9,2.9,0,0,1,689.28,747.22Z" transform="translate(-8.33 -7.36)"/><path class="cls-2" d="M914.06,742.2l.58.36a2.86,2.86,0,0,1-.51.53c-.07,0-.3-.17-.45-.27C913.81,742.62,913.93,742.41,914.06,742.2Z" transform="translate(-8.33 -7.36)"/><path class="cls-2" d="M686.41,794.65l-1.32.81-.24-.33,1.16-1Z" transform="translate(-8.33 -7.36)"/><path class="cls-2" d="M894.24,512.53c.14-.62.29-1.24.43-1.86l.56.2-1,1.66Z" transform="translate(-8.33 -7.36)"/><path class="cls-2" d="M987.16,510.36c-.14-.08-.38-.14-.41-.25s.1-.33.16-.5l.55.3Z" transform="translate(-8.33 -7.36)"/><path class="cls-2" d="M624.06,752c-.12.13-.23.26-.35.38a2.1,2.1,0,0,1-.29-.58c0-.06.27-.18.42-.27C623.92,751.73,624,751.88,624.06,752Z" transform="translate(-8.33 -7.36)"/><path class="cls-2" d="M587.41,799.07c-.11.13-.29.39-.33.37a2.78,2.78,0,0,1-.52-.4c.16-.09.31-.25.46-.25S587.28,799,587.41,799.07Z" transform="translate(-8.33 -7.36)"/><path class="cls-2" d="M694.5,752.13c-.15.09-.32.26-.45.24s-.22-.24-.32-.38c.15-.08.31-.23.45-.21S694.39,752,694.5,752.13Z" transform="translate(-8.33 -7.36)"/><path class="cls-2" d="M937.05,840.94l-.5.21c0-.15-.13-.36-.08-.43s.32-.15.48-.22C937,840.65,937,840.79,937.05,840.94Z" transform="translate(-8.33 -7.36)"/><path class="cls-2" d="M481.74,778.52l.44.26c-.12.12-.22.34-.34.35s-.28-.16-.43-.25Z" transform="translate(-8.33 -7.36)"/><path class="cls-2" d="M489.69,763.29l-1.07-1" transform="translate(-8.33 -7.36)"/><path class="cls-2" d="M488.65,762.29l1.29.63" transform="translate(-8.33 -7.36)"/><path class="cls-2" d="M911.54,789.75l-1.13.9-.24-.37,1.26-.68Z" transform="translate(-8.33 -7.36)"/><path class="cls-2" d="M919.39,747.62l-.27-.44c.17-.06.35-.19.5-.16s.18.26.26.4Z" transform="translate(-8.33 -7.36)"/><path class="cls-2" d="M711.73,845.54c-.13.12-.25.29-.4.34s-.23-.16-.34-.26c.13-.12.24-.29.4-.35S711.61,845.44,711.73,845.54Z" transform="translate(-8.33 -7.36)"/><path class="cls-2" d="M771.75,483.42c-.17,0-.36.16-.5.11s-.12-.29-.17-.44c.17,0,.36-.14.51-.1S771.7,483.27,771.75,483.42Z" transform="translate(-8.33 -7.36)"/><path class="cls-2" d="M297.27,437.4c.06-.17.13-.33.19-.5.15.1.38.17.41.29s-.12.32-.19.48Z" transform="translate(-8.33 -7.36)"/><path class="cls-2" d="M918.54,751.2c0,.07,0,.19,0,.21a.71.71,0,0,1-.26,0l0-.32Z" transform="translate(-8.33 -7.36)"/><path class="cls-2" d="M288.65,445.16l-.19.14a1,1,0,0,1-.13-.23,1.69,1.69,0,0,1,.32-.19Z" transform="translate(-8.33 -7.36)"/><path class="cls-2" d="M803.84,687.38l1-.45-1,.45Z" transform="translate(-8.33 -7.36)"/><path class="cls-2" d="M564,538.26v.29l-.34-.15a.84.84,0,0,1,.14-.24A1.76,1.76,0,0,1,564,538.26Z" transform="translate(-8.33 -7.36)"/><polygon class="cls-2" points="284.94 448.57 284.99 448.75 284.84 448.72 284.94 448.57"/><path class="cls-2" d="M588.54,397.15l.17-.55-.16.55Z" transform="translate(-8.33 -7.36)"/><polygon class="cls-2" points="684.19 748.68 684.37 748.63 684.34 748.78 684.19 748.68"/><path class="cls-2" d="M894.23,512.53l-.15.56.16-.56Z" transform="translate(-8.33 -7.36)"/><polygon class="cls-2" points="928.73 829.31 928.57 829.45 928.71 829.29 928.73 829.31"/><polygon class="cls-2" points="849.64 753.78 849.47 753.92 849.61 753.75 849.64 753.78"/><polygon class="cls-2" points="849.61 753.75 849.77 753.62 849.64 753.78 849.61 753.75"/><path d="M655.75,816.11" transform="translate(-8.33 -7.36)"/><path d="M975.8,639.81c.33-1.82.65-3.59,1-5.76" transform="translate(-8.33 -7.36)"/><path class="cls-2" d="M504,781.51c.11-.14.26-.42.31-.4a2.74,2.74,0,0,1,.55.36c-.15.11-.28.29-.43.3S504.19,781.6,504,781.51Z" transform="translate(-8.33 -7.36)"/></svg>