<svg preserveAspectRatio="none" width="100%" height="100%" overflow="visible" style="display: block;" viewBox="0 0 14.9568 18.1824" fill="none" xmlns="http://www.w3.org/2000/svg">
<path id="reload" d="M7.19277 8.51113C7.4125 8.51113 7.57949 8.44082 7.71133 8.30898L11.1303 4.86367C11.2885 4.70547 11.3588 4.52969 11.3588 4.32754C11.3588 4.13418 11.2797 3.94082 11.1303 3.79141L7.71133 0.319727C7.57949 0.179102 7.4125 0.1 7.19277 0.1C6.79727 0.1 6.48965 0.425195 6.48965 0.838281C6.48965 1.02285 6.55996 1.19863 6.68301 1.34805L8.82754 3.43984C8.3793 3.36074 7.92227 3.32559 7.47402 3.32559C3.37832 3.32559 0.1 6.59512 0.1 10.6908C0.1 14.7865 3.38711 18.0824 7.48281 18.0824C11.5697 18.0824 14.8568 14.7865 14.8568 10.6908C14.8568 10.2602 14.5492 9.94375 14.1098 9.94375C13.6879 9.94375 13.4066 10.2602 13.4066 10.6908C13.4066 13.9867 10.7699 16.6322 7.48281 16.6322C4.18691 16.6322 1.5502 13.9867 1.5502 10.6908C1.5502 7.38613 4.17813 4.7582 7.47402 4.7582C8.08047 4.7582 8.62539 4.80215 9.10879 4.89883L6.6918 7.29824C6.55996 7.43887 6.48965 7.60586 6.48965 7.79043C6.48965 8.20352 6.79727 8.51113 7.19277 8.51113Z" fill="var(--fill-0, #1B1B1B)" stroke="var(--stroke-0, #1B1B1B)" stroke-width="0.2"/>
</svg>
