<svg preserveAspectRatio="none" width="100%" height="100%" overflow="visible" style="display: block;" viewBox="0 0 17 12.3333" fill="none" xmlns="http://www.w3.org/2000/svg">
<path id="Wifi" fill-rule="evenodd" clip-rule="evenodd" d="M8.50046 2.56141C10.967 2.56152 13.3393 3.51917 15.1269 5.23644C15.2615 5.36901 15.4766 5.36734 15.6092 5.23269L16.896 3.92048C16.9631 3.85219 17.0005 3.75967 17 3.66342C16.9994 3.56716 16.9609 3.4751 16.893 3.4076C12.2011 -1.13587 4.79908 -1.13587 0.107163 3.4076C0.0391973 3.47505 0.000634479 3.56708 7.75932e-06 3.66334C-0.00061896 3.7596 0.0367421 3.85214 0.103824 3.92048L1.39096 5.23269C1.52346 5.36754 1.73878 5.36922 1.87331 5.23644C3.66116 3.51906 6.03367 2.56141 8.50046 2.56141ZM8.50049 6.8305C9.8557 6.83041 11.1626 7.3394 12.1671 8.25855C12.303 8.389 12.517 8.38617 12.6495 8.25217L13.9347 6.93997C14.0024 6.87114 14.04 6.77777 14.039 6.68074C14.038 6.58372 13.9986 6.49114 13.9296 6.42371C10.8705 3.54843 6.1331 3.54843 3.07403 6.42371C3.00493 6.49114 2.9655 6.58376 2.9646 6.68082C2.96369 6.77788 3.00138 6.87124 3.0692 6.93997L4.35412 8.25217C4.48656 8.38617 4.7006 8.389 4.83647 8.25855C5.84036 7.34 7.14617 6.83106 8.50049 6.8305ZM11.0751 9.70276C11.0771 9.80006 11.0392 9.89387 10.9705 9.96203L8.74721 12.2291C8.68203 12.2958 8.59318 12.3333 8.50047 12.3333C8.40775 12.3333 8.3189 12.2958 8.25373 12.2291L6.03008 9.96203C5.96139 9.89382 5.9236 9.79998 5.92564 9.70268C5.92767 9.60538 5.96935 9.51325 6.04084 9.44803C7.46071 8.23456 9.54023 8.23456 10.9601 9.44803C11.0315 9.5133 11.0731 9.60547 11.0751 9.70276Z" fill="var(--fill-0, black)"/>
</svg>
