<svg preserveAspectRatio="none" width="100%" height="100%" overflow="visible" style="display: block;" viewBox="0 0 19.3333 12.3333" fill="none" xmlns="http://www.w3.org/2000/svg">
<g id="Cellular">
<path d="M17 0C16.4477 0 16 0.447715 16 0.999999V11.3333C16 11.8856 16.4477 12.3333 17 12.3333H18.3333C18.8856 12.3333 19.3333 11.8856 19.3333 11.3333V1C19.3333 0.447715 18.8856 0 18.3333 0H17Z" fill="var(--fill-0, black)"/>
<path d="M10.6667 3.66667C10.6667 3.11438 11.1144 2.66667 11.6667 2.66667H13C13.5523 2.66667 14 3.11438 14 3.66667V11.3333C14 11.8856 13.5523 12.3333 13 12.3333H11.6667C11.1144 12.3333 10.6667 11.8856 10.6667 11.3333V3.66667Z" fill="var(--fill-0, black)"/>
<path d="M6.33333 5.33333C5.78105 5.33333 5.33333 5.78105 5.33333 6.33333V11.3333C5.33333 11.8856 5.78105 12.3333 6.33333 12.3333H7.66667C8.21895 12.3333 8.66667 11.8856 8.66667 11.3333V6.33333C8.66667 5.78105 8.21895 5.33333 7.66667 5.33333H6.33333Z" fill="var(--fill-0, black)"/>
<path d="M1 7.66667C0.447715 7.66667 0 8.11438 0 8.66667V11.3333C0 11.8856 0.447715 12.3333 0.999999 12.3333H2.33333C2.88562 12.3333 3.33333 11.8856 3.33333 11.3333V8.66667C3.33333 8.11438 2.88562 7.66667 2.33333 7.66667H1Z" fill="var(--fill-0, black)"/>
</g>
</svg>
