<svg preserveAspectRatio="none" width="100%" height="100%" overflow="visible" style="display: block;" viewBox="0 0 15.2 18.2" fill="none" xmlns="http://www.w3.org/2000/svg">
<path id="site settings" fill-rule="evenodd" clip-rule="evenodd" d="M4.01957 0.1H11.1804C11.7146 0.0999898 12.1604 0.099981 12.5247 0.12974C12.9046 0.160778 13.2612 0.227889 13.5985 0.399733C14.1159 0.663385 14.5366 1.08408 14.8003 1.60153C14.9721 1.93879 15.0392 2.29545 15.0703 2.67533C15.1 3.03956 15.1 3.4854 15.1 4.01955V5.68045C15.1 6.2146 15.1 6.66044 15.0703 7.02467C15.0392 7.40456 14.9721 7.76121 14.8003 8.09848C14.5366 8.61592 14.1159 9.03662 13.5985 9.30027C13.2612 9.47211 12.9046 9.53922 12.5247 9.57026C12.1604 9.60002 11.7146 9.60001 11.1805 9.6H4.01955C3.4854 9.60001 3.03956 9.60002 2.67533 9.57026C2.29545 9.53922 1.93879 9.47211 1.60153 9.30027C1.08408 9.03662 0.663385 8.61592 0.399733 8.09847C0.227889 7.76121 0.160778 7.40456 0.12974 7.02467C0.099981 6.66044 0.0999898 6.21459 0.1 5.68044V4.01957C0.0999898 3.48541 0.099981 3.03956 0.12974 2.67533C0.160778 2.29545 0.227889 1.93879 0.399733 1.60153C0.663385 1.08408 1.08408 0.663385 1.60153 0.399733C1.93879 0.227889 2.29545 0.160778 2.67533 0.12974C3.03956 0.099981 3.48541 0.0999898 4.01957 0.1ZM2.79748 1.62476C2.51036 1.64822 2.37307 1.6901 2.28251 1.73624C2.04731 1.85608 1.85608 2.04731 1.73624 2.28251C1.6901 2.37307 1.64822 2.51036 1.62476 2.79748C1.60058 3.09336 1.6 3.47757 1.6 4.05V5.65C1.6 6.22243 1.60058 6.60664 1.62476 6.90252C1.64822 7.18965 1.6901 7.32693 1.73624 7.41749C1.85608 7.65269 2.04731 7.84392 2.28251 7.96376C2.37307 8.0099 2.51036 8.05178 2.79748 8.07524C3.09336 8.09942 3.47757 8.1 4.05 8.1H11.15C11.7224 8.1 12.1066 8.09942 12.4025 8.07524C12.6896 8.05178 12.8269 8.0099 12.9175 7.96376C13.1527 7.84392 13.3439 7.65269 13.4638 7.41749C13.5099 7.32693 13.5518 7.18965 13.5752 6.90252C13.5994 6.60664 13.6 6.22243 13.6 5.65V4.05C13.6 3.47757 13.5994 3.09336 13.5752 2.79748C13.5518 2.51036 13.5099 2.37307 13.4638 2.28251C13.3439 2.04731 13.1527 1.85608 12.9175 1.73624C12.8269 1.6901 12.6896 1.64822 12.4025 1.62476C12.1066 1.60058 11.7224 1.6 11.15 1.6H4.05C3.47757 1.6 3.09336 1.60058 2.79748 1.62476ZM0.100001 13.35C0.100001 12.9358 0.435787 12.6 0.850001 12.6H14.35C14.7642 12.6 15.1 12.9358 15.1 13.35C15.1 13.7642 14.7642 14.1 14.35 14.1H0.850001C0.435787 14.1 0.100001 13.7642 0.100001 13.35ZM0.100001 17.35C0.100001 16.9358 0.435787 16.6 0.850001 16.6H10.35C10.7642 16.6 11.1 16.9358 11.1 17.35C11.1 17.7642 10.7642 18.1 10.35 18.1H0.850001C0.435787 18.1 0.100001 17.7642 0.100001 17.35Z" fill="var(--fill-0, #1B1B1B)" stroke="var(--stroke-0, #1B1B1B)" stroke-width="0.2" stroke-linecap="round" stroke-linejoin="round"/>
</svg>
