<svg preserveAspectRatio="none" width="100%" height="100%" overflow="visible" style="display: block;" viewBox="0 0 27.3333 13" fill="none" xmlns="http://www.w3.org/2000/svg">
<g id="battery" opacity="0.4">
<path fill-rule="evenodd" clip-rule="evenodd" d="M18.5188 0H6.48123C5.56534 0 4.85217 0 4.27734 0.03922C3.69406 0.0790172 3.21655 0.160859 2.77792 0.342542C1.6753 0.799265 0.799265 1.6753 0.342542 2.77792C0.160859 3.21655 0.0790172 3.69406 0.03922 4.27734C0 4.85217 0 5.56511 0 6.481V6.51877C0 7.43467 0 8.14783 0.03922 8.72266C0.0790172 9.30594 0.160859 9.78345 0.342542 10.2221C0.799265 11.3247 1.6753 12.2007 2.77792 12.6575C3.21655 12.8391 3.69406 12.921 4.27734 12.9608C4.85221 13 5.56522 13 6.48122 13H18.5188C19.4348 13 20.1478 13 20.7227 12.9608C21.3059 12.921 21.7835 12.8391 22.2221 12.6575C23.3247 12.2007 24.2007 11.3247 24.6575 10.2221C24.8391 9.78345 24.921 9.30594 24.9608 8.72266C25 8.14779 25 7.43479 25 6.51881V6.48123C25 5.56524 25 4.85221 24.9608 4.27734C24.921 3.69406 24.8391 3.21655 24.6575 2.77792C24.2007 1.6753 23.3247 0.799265 22.2221 0.342542C21.7835 0.160859 21.3059 0.0790172 20.7227 0.03922C20.1478 0 19.4347 0 18.5188 0ZM3.16061 1.26642C3.45707 1.14362 3.81304 1.07322 4.34541 1.0369C4.88227 1.00027 5.56128 1 6.5 1H18.5C19.4387 1 20.1177 1.00027 20.6546 1.0369C21.187 1.07322 21.5429 1.14362 21.8394 1.26642C22.697 1.62165 23.3783 2.30301 23.7336 3.16061C23.8564 3.45707 23.9268 3.81304 23.9631 4.34541C23.9997 4.88227 24 5.56128 24 6.5C24 7.43872 23.9997 8.11773 23.9631 8.65459C23.9268 9.18696 23.8564 9.54293 23.7336 9.83939C23.3783 10.697 22.697 11.3783 21.8394 11.7336C21.5429 11.8564 21.187 11.9268 20.6546 11.9631C20.1177 11.9997 19.4387 12 18.5 12H6.5C5.56128 12 4.88227 11.9997 4.34541 11.9631C3.81304 11.9268 3.45707 11.8564 3.16061 11.7336C2.30301 11.3783 1.62165 10.697 1.26642 9.83939C1.14362 9.54293 1.07322 9.18696 1.0369 8.65459C1.00027 8.11773 1 7.43872 1 6.5C1 5.56128 1.00027 4.88227 1.0369 4.34541C1.07322 3.81304 1.14362 3.45707 1.26642 3.16061C1.62165 2.30301 2.30301 1.62165 3.16061 1.26642Z" fill="var(--fill-0, black)"/>
<path d="M26 4.49927C26.783 4.82579 27.3333 5.59856 27.3333 6.49988C27.3333 7.4012 26.783 8.17397 26 8.50049V4.49927Z" fill="var(--fill-0, black)"/>
</g>
</svg>
