<svg width="19" height="24" viewBox="0 0 19 24" fill="none" xmlns="http://www.w3.org/2000/svg">
<path d="M5.75 4.85156C5.54036 4.85156 5.36816 4.78792 5.2334 4.66064C5.10612 4.53337 5.04248 4.3724 5.04248 4.17773C5.04248 3.98307 5.12109 3.81087 5.27832 3.66113L8.79346 0.258301C8.89079 0.16097 8.98063 0.0935872 9.06299 0.0561523C9.15283 0.0187174 9.25016 0 9.35498 0C9.45231 0 9.54215 0.0187174 9.62451 0.0561523C9.71436 0.0935872 9.80794 0.16097 9.90527 0.258301L13.4204 3.66113C13.5701 3.81087 13.645 3.98307 13.645 4.17773C13.645 4.3724 13.5776 4.53337 13.4429 4.66064C13.3081 4.78792 13.1396 4.85156 12.9375 4.85156C12.7279 4.85156 12.5557 4.77295 12.4209 4.61572L10.6802 2.78516L9.35498 1.37012L8.00732 2.78516L6.27783 4.61572C6.13558 4.77295 5.95964 4.85156 5.75 4.85156ZM9.35498 15.4082C9.14535 15.4082 8.96191 15.3333 8.80469 15.1836C8.65495 15.0339 8.58008 14.8542 8.58008 14.6445V3.69482L8.70361 0.977051C8.70361 0.80485 8.76351 0.655111 8.8833 0.527832C9.01058 0.400553 9.16781 0.336914 9.35498 0.336914C9.53467 0.336914 9.68441 0.400553 9.8042 0.527832C9.93148 0.655111 9.99512 0.80485 9.99512 0.977051L10.1187 3.69482V14.6445C10.1187 14.8542 10.04 15.0339 9.88281 15.1836C9.73307 15.3333 9.55713 15.4082 9.35498 15.4082ZM4.40234 23.6514C2.9873 23.6514 1.89795 23.2695 1.13428 22.5059C0.378092 21.7497 0 20.6603 0 19.2378V11.1069C0 9.69189 0.378092 8.60628 1.13428 7.8501C1.89795 7.08643 2.9873 6.70459 4.40234 6.70459H6.68213V8.25439H4.39111C3.48519 8.25439 2.78516 8.50146 2.29102 8.99561C1.80436 9.48975 1.56104 10.1935 1.56104 11.1069V19.249C1.56104 20.1624 1.80436 20.8662 2.29102 21.3604C2.78516 21.8545 3.48519 22.1016 4.39111 22.1016H14.2852C15.2061 22.1016 15.9136 21.8545 16.4077 21.3604C16.9019 20.8662 17.1489 20.1624 17.1489 19.249V11.1069C17.1489 10.1935 16.9019 9.48975 16.4077 8.99561C15.9136 8.50146 15.2061 8.25439 14.2852 8.25439H12.0166V6.70459H14.2852C15.7077 6.70459 16.797 7.08643 17.5532 7.8501C18.3169 8.60628 18.6987 9.69189 18.6987 11.1069V19.2378C18.6987 20.6603 18.3169 21.7497 17.5532 22.5059C16.797 23.2695 15.7077 23.6514 14.2852 23.6514H4.40234Z" fill="#1B1B1B"/>
</svg>
