<svg width="24" height="20" viewBox="0 0 24 20" fill="none" xmlns="http://www.w3.org/2000/svg">
<path d="M0 17.8789V3.47021C0 3.38037 0.00748698 3.29801 0.0224609 3.22314C0.0374349 3.14827 0.0711263 3.06592 0.123535 2.97607C0.445475 2.43701 0.909668 1.94287 1.51611 1.49365C2.12256 1.03695 2.83382 0.673828 3.6499 0.404297C4.47347 0.134766 5.36068 0 6.31152 0C7.48698 0 8.54639 0.213379 9.48975 0.640137C10.4406 1.05941 11.1818 1.60596 11.7134 2.27979C12.245 1.60596 12.9824 1.05941 13.9258 0.640137C14.8766 0.213379 15.936 0 17.104 0C18.0623 0 18.9495 0.134766 19.7656 0.404297C20.5817 0.673828 21.293 1.03695 21.8994 1.49365C22.5133 1.94287 22.9775 2.43701 23.292 2.97607C23.3444 3.06592 23.3781 3.14827 23.3931 3.22314C23.408 3.29801 23.4155 3.38037 23.4155 3.47021V17.8789C23.4155 18.2682 23.307 18.5452 23.0898 18.71C22.8802 18.8747 22.6331 18.957 22.3486 18.957C22.1764 18.957 22.0117 18.9159 21.8545 18.8335C21.7048 18.7586 21.54 18.6613 21.3604 18.5415C20.7839 18.1222 20.1325 17.7891 19.4062 17.542C18.68 17.3024 17.9238 17.1826 17.1377 17.1826C16.3441 17.1901 15.5729 17.3436 14.8242 17.6431C14.0755 17.9425 13.3979 18.3843 12.7915 18.9683C12.5819 19.1629 12.3947 19.2977 12.23 19.3726C12.0653 19.4474 11.8931 19.4849 11.7134 19.4849C11.5412 19.4849 11.369 19.4474 11.1968 19.3726C11.0246 19.2977 10.8374 19.1629 10.6353 18.9683C10.0363 18.3843 9.35872 17.9425 8.60254 17.6431C7.84635 17.3436 7.07145 17.1901 6.27783 17.1826C5.49919 17.1826 4.743 17.3024 4.00928 17.542C3.28304 17.7891 2.63167 18.1222 2.05518 18.5415C1.87549 18.6613 1.70703 18.7586 1.5498 18.8335C1.40007 18.9159 1.24284 18.957 1.07812 18.957C0.79362 18.957 0.542806 18.8747 0.325684 18.71C0.108561 18.5452 0 18.2682 0 17.8789ZM1.56104 17.0254C2.11507 16.6061 2.80762 16.2692 3.63867 16.0146C4.46973 15.7601 5.36068 15.6328 6.31152 15.6328C6.92546 15.6328 7.51693 15.7039 8.08594 15.8462C8.66243 15.9884 9.19401 16.1794 9.68066 16.4189C10.1673 16.6585 10.5866 16.9243 10.9385 17.2163V3.76221C10.5417 3.08838 9.92773 2.55306 9.09668 2.15625C8.27311 1.75195 7.34473 1.5498 6.31152 1.5498C5.31576 1.5498 4.37988 1.74821 3.50391 2.14502C2.63542 2.53434 1.98779 3.0472 1.56104 3.68359V17.0254ZM12.4883 17.2163C12.8402 16.9243 13.2557 16.6585 13.7349 16.4189C14.2215 16.1794 14.7493 15.9884 15.3184 15.8462C15.8949 15.7039 16.4901 15.6328 17.104 15.6328C18.0698 15.6328 18.9683 15.7601 19.7993 16.0146C20.6304 16.2692 21.3229 16.6061 21.877 17.0254V3.68359C21.4427 3.0472 20.7876 2.53434 19.9116 2.14502C19.0356 1.74821 18.0998 1.5498 17.104 1.5498C16.0708 1.5498 15.1387 1.75195 14.3076 2.15625C13.484 2.55306 12.8776 3.08838 12.4883 3.76221V17.2163Z" fill="#1B1B1B"/>
</svg>
