<svg width="23" height="22" viewBox="0 0 23 22" fill="none" xmlns="http://www.w3.org/2000/svg">
<path d="M3.25684 17.1602C2.17122 17.1602 1.35514 16.8906 0.808594 16.3516C0.269531 15.8125 0 15.0114 0 13.9482V3.21191C0 2.14128 0.269531 1.34017 0.808594 0.808594C1.35514 0.269531 2.17122 0 3.25684 0H13.9146C14.9852 0 15.7938 0.269531 16.3403 0.808594C16.8869 1.34766 17.1602 2.14876 17.1602 3.21191V5.51416H15.6104V3.30176C15.6104 2.72526 15.4569 2.29102 15.1499 1.99902C14.8504 1.69954 14.4274 1.5498 13.8809 1.5498H3.2793C2.72526 1.5498 2.2985 1.69954 1.99902 1.99902C1.70703 2.29102 1.56104 2.72526 1.56104 3.30176V13.8696C1.56104 14.4461 1.70703 14.8804 1.99902 15.1724C2.2985 15.4644 2.72526 15.6104 3.2793 15.6104H5.91846V17.1602H3.25684ZM8.40039 21.9668C7.31478 21.9668 6.50244 21.6973 5.96338 21.1582C5.42432 20.6191 5.15479 19.818 5.15479 18.7549V8.01855C5.15479 6.94792 5.42432 6.14681 5.96338 5.61523C6.50244 5.07617 7.31478 4.80664 8.40039 4.80664H19.0581C20.1362 4.80664 20.9448 5.07617 21.4839 5.61523C22.0304 6.1543 22.3037 6.9554 22.3037 8.01855V18.7549C22.3037 19.818 22.0304 20.6191 21.4839 21.1582C20.9448 21.6973 20.1362 21.9668 19.0581 21.9668H8.40039ZM8.42285 20.417H19.0356C19.5822 20.417 20.0052 20.2673 20.3047 19.9678C20.6117 19.6758 20.7651 19.2415 20.7651 18.665V8.09717C20.7651 7.52067 20.6117 7.08643 20.3047 6.79443C20.0052 6.50244 19.5822 6.35645 19.0356 6.35645H8.42285C7.86882 6.35645 7.44206 6.50244 7.14258 6.79443C6.8431 7.08643 6.69336 7.52067 6.69336 8.09717V18.665C6.69336 19.2415 6.8431 19.6758 7.14258 19.9678C7.44206 20.2673 7.86882 20.417 8.42285 20.417Z" fill="#1B1B1B"/>
</svg>
