<svg width="11" height="19" viewBox="0 0 11 19" fill="none" xmlns="http://www.w3.org/2000/svg">
<path d="M0 9.06299C0 8.9432 0.0224609 8.83089 0.0673828 8.72607C0.112305 8.62126 0.183431 8.52393 0.280762 8.43408L8.72607 0.258301C8.89079 0.0861003 9.09668 0 9.34375 0C9.50846 0 9.65446 0.0374349 9.78174 0.112305C9.9165 0.187174 10.0213 0.291992 10.0962 0.426758C10.1785 0.554036 10.2197 0.703776 10.2197 0.875977C10.2197 1.10807 10.1374 1.31396 9.97266 1.49365L2.13379 9.06299L9.97266 16.6436C10.1374 16.8158 10.2197 17.0216 10.2197 17.2612C10.2197 17.4259 10.1785 17.5757 10.0962 17.7104C10.0213 17.8452 9.9165 17.9463 9.78174 18.0137C9.65446 18.0885 9.50846 18.126 9.34375 18.126C9.09668 18.126 8.89079 18.0436 8.72607 17.8789L0.280762 9.70312C0.183431 9.61328 0.112305 9.51595 0.0673828 9.41113C0.0224609 9.30632 0 9.19027 0 9.06299Z" fill="#1B1B1B"/>
</svg>
