<svg width="11" height="19" viewBox="0 0 11 19" fill="none" xmlns="http://www.w3.org/2000/svg">
<path d="M10.2197 9.06299C10.2197 9.19027 10.1973 9.30632 10.1523 9.41113C10.1074 9.51595 10.0363 9.61328 9.93896 9.70312L1.49365 17.8789C1.32894 18.0436 1.12305 18.126 0.875977 18.126C0.711263 18.126 0.561523 18.0885 0.426758 18.0137C0.299479 17.9463 0.194661 17.8452 0.112305 17.7104C0.0374349 17.5757 0 17.4259 0 17.2612C0 17.0216 0.0823568 16.8158 0.24707 16.6436L8.08594 9.06299L0.24707 1.49365C0.0823568 1.31396 0 1.10807 0 0.875977C0 0.703776 0.0374349 0.554036 0.112305 0.426758C0.194661 0.291992 0.299479 0.187174 0.426758 0.112305C0.561523 0.0374349 0.711263 0 0.875977 0C1.12305 0 1.32894 0.0861003 1.49365 0.258301L9.93896 8.43408C10.0363 8.52393 10.1074 8.62126 10.1523 8.72607C10.1973 8.83089 10.2197 8.9432 10.2197 9.06299Z" fill="#1B1B1B"/>
</svg>
